<svg width="64" height="64" viewBox="0 0 64 64" fill="none" xmlns="http://www.w3.org/2000/svg">
<rect x="3.16675" y="5.5" width="57" height="53" rx="3.5" fill="url(#paint0_radial_3068_6171)" fill-opacity="0.5" stroke="#B4BBC5"/>
<rect x="6.5" y="8.5" width="3" height="3" rx="1.5" stroke="#415465"/>
<rect x="12.5" y="8.5" width="3" height="3" rx="1.5" stroke="#415465"/>
<rect x="18.5" y="8.5" width="3" height="3" rx="1.5" stroke="#415465"/>
<line x1="6" y1="14.5" x2="58" y2="14.5" stroke="#B4BBC5"/>
<path d="M6.5 19C6.5 19.4 6.5 31.8333 6.5 38H10.25M14 48.5V38H10.25M10.25 38V19" stroke="#FD6219"/>
<path d="M35.5 48.5V38H31.75M31.75 38H28V28.5H29.875M31.75 38V28.5H29.875M29.875 28.5V19" stroke="#FD6219"/>
<path d="M24.5 19C24.5 19.4 24.5 31.8333 24.5 38H20.75M17 38V19M17 38H20.75M17 38V46H20.75V56M20.75 38V19" stroke="#041C3C"/>
<path opacity="0.3" d="M45.5 19C45.5 19.4 45.5 31.8333 45.5 38H41.75M38 38V48.5M38 38V19M38 38H41.75M41.75 38V19" stroke="#041C3C"/>
<path d="M55.5 19C55.5 19.4 55.5 31.8333 55.5 38H51.75H48M48 38V55M48 38V19" stroke="#041C3C"/>
<line x1="31.6667" y1="49.5" x2="41.6667" y2="49.5" stroke="#FD6219"/>
<path d="M34.2967 56H39.0368C39.5215 56 39.8237 55.509 39.5813 55.118L37.2113 51.2933C36.9689 50.9022 36.3646 50.9022 36.1222 51.2933L33.7522 55.118C33.5098 55.509 33.812 56 34.2967 56Z" fill="#FD6219"/>
<path d="M11.2967 56H16.0368C16.5215 56 16.8237 55.509 16.5813 55.118L14.2113 51.2933C13.9689 50.9022 13.3646 50.9022 13.1222 51.2933L10.7522 55.118C10.5098 55.509 10.812 56 11.2967 56Z" fill="#FD6219"/>
<line x1="10.6667" y1="49.5" x2="16.6667" y2="49.5" stroke="#FD6219"/>
<defs>
<radialGradient id="paint0_radial_3068_6171" cx="0" cy="0" r="1" gradientUnits="userSpaceOnUse" gradientTransform="translate(60.6667 59) rotate(-137.045) scale(79.2465 79.2464)">
<stop stop-color="#415465" stop-opacity="0.3"/>
<stop offset="1" stop-color="#415465" stop-opacity="0"/>
</radialGradient>
</defs>
</svg>
