<svg width="171" height="190" fill="none" xmlns="http://www.w3.org/2000/svg"><g clip-path="url(#a)"><path d="M14.849 148.2l71.436 36.371 68.723-36.371V5.971H14.848V148.2z" fill="#fff"/><path d="M156.455 6.514L13.402 150.733l74.149 36.734 68.904-35.286V6.514z" fill="#F2F3F2"/><path d="M10.147 53.38v97.896l2.532 1.267 71.436 36.371 2.17 1.086 2.17-1.086 68.904-36.371 2.532-1.267V1.266H10.147v52.115zm4.702 95.182V5.972h140.34v142.59l-68.904 36.371-71.436-36.371z" fill="#DCDEDC"/><path d="M85.02 8.324c.723 0 1.446 0 2.17.18l-2.17 4.163c-3.256-.181-6.15 2.352-6.33 5.61-.181 3.256 2.35 6.151 5.606 6.332h.723a6.318 6.318 0 003.979-1.447l2.35 3.98a10.958 10.958 0 01-6.329 1.991c-5.787.181-10.67-4.162-10.851-9.952-.18-5.79 4.16-10.676 9.947-10.857h.904zm7.414 8.866l2.713 4.524-2.713 4.343-2.532-4.343h-5.245l2.713-4.524h5.064zm-4.34-1.628c0-.724.18-1.448.542-1.99.362-.543 1.085-1.086 1.628-1.448l.362-.181c.723-.362.904-.543.904-.905s-.543-.724-.904-.724c-.724 0-1.267.362-1.628 1.086l-.904-.905c.18-.362.542-.724.904-1.086.542-.361 1.085-.361 1.627-.361.543 0 1.266.18 1.628.542.362.362.724.905.724 1.448 0 .905-.543 1.629-1.628 1.99l-.543.362c-.542.362-.904.543-1.085 1.086h3.255v1.267l-4.882-.181zM85.019 38.18L102.2 28.41V1.267H67.657v26.962L85.02 38.18zm78.309 64.057H6.711L.923 114.905l5.788 12.666h156.617l5.606-12.666-5.606-12.667z" fill="#FF492C"/><path d="M34.724 94.095a.368.368 0 01-.27-.108.433.433 0 01-.11-.29V71.693c0-.108.037-.205.11-.29a.368.368 0 01.27-.108h3.817c.108 0 .198.036.27.109a.4.4 0 01.127.29v18.293c0 .11.055.163.163.163h10.634c.109 0 .205.037.29.109.072.084.108.18.108.29v3.148a.432.432 0 01-.108.29.432.432 0 01-.29.108h-15.01zm32.753-10.097c.132.82.174 1.743.126 2.769-.012.265-.15.398-.416.398H57.132c-.133 0-.175.054-.127.162.06.435.175.87.344 1.303.567 1.207 1.718 1.81 3.454 1.81 1.387-.012 2.484-.573 3.292-1.683.084-.133.18-.199.29-.199.071 0 .15.042.234.127L66.952 91c.109.108.163.205.163.29 0 .048-.042.138-.127.27-.711.881-1.633 1.57-2.767 2.064-1.12.482-2.357.724-3.707.724-1.869 0-3.448-.423-4.738-1.267-1.29-.845-2.219-2.027-2.786-3.547-.458-1.086-.687-2.509-.687-4.27 0-1.195.163-2.244.489-3.149.506-1.544 1.38-2.775 2.622-3.691 1.254-.905 2.737-1.358 4.449-1.358 2.17 0 3.912.628 5.226 1.882 1.315 1.255 2.11 2.938 2.388 5.049zm-7.578-2.968c-1.374 0-2.279.64-2.713 1.918-.084.29-.157.64-.217 1.05 0 .109.054.163.163.163h5.624c.133 0 .175-.054.127-.163a23.44 23.44 0 00-.163-.905c-.193-.651-.53-1.158-1.012-1.52-.495-.362-1.098-.543-1.809-.543zm17.054-3.944c1.41 0 2.67.247 3.78.742 1.11.482 1.971 1.152 2.586 2.008.615.845.922 1.785.922 2.823v11.038a.432.432 0 01-.108.29.368.368 0 01-.271.108h-3.816a.368.368 0 01-.272-.108.399.399 0 01-.126-.29V92.63c0-.06-.018-.102-.054-.126-.049-.024-.09-.006-.127.054-.916 1.194-2.381 1.791-4.395 1.791-1.7 0-3.068-.41-4.105-1.23-1.049-.82-1.573-2.039-1.573-3.655 0-1.665.59-2.962 1.772-3.89 1.17-.917 2.84-1.376 5.01-1.376h3.31c.108 0 .162-.054.162-.163v-.724c0-.711-.217-1.272-.651-1.683-.434-.398-1.085-.597-1.953-.597-.663 0-1.218.121-1.664.362-.446.242-.736.58-.868 1.014-.06.24-.2.35-.416.325l-3.943-.524c-.265-.049-.386-.145-.362-.29.085-.917.447-1.743 1.086-2.479s1.489-1.309 2.55-1.719c1.049-.422 2.224-.633 3.526-.633zm-.65 13.843c.928 0 1.717-.248 2.368-.742.651-.495.977-1.134.977-1.918v-1.177c0-.108-.054-.163-.163-.163h-2.333c-.976 0-1.742.187-2.297.561-.554.362-.832.881-.832 1.557 0 .59.205 1.05.615 1.375.41.338.965.507 1.664.507zM97.86 71.692c0-.108.036-.205.108-.29a.368.368 0 01.271-.108h3.816a.37.37 0 01.272.109.434.434 0 01.108.29v22.003a.434.434 0 01-.108.29.37.37 0 01-.272.108h-3.816a.368.368 0 01-.27-.108.433.433 0 01-.11-.29V92.63c0-.06-.023-.096-.072-.108a.126.126 0 00-.126.036c-.917 1.194-2.165 1.791-3.744 1.791-1.52 0-2.827-.422-3.924-1.266-1.098-.845-1.887-2.003-2.37-3.474-.361-1.134-.542-2.45-.542-3.945 0-1.544.193-2.89.579-4.035.506-1.4 1.296-2.504 2.369-3.312 1.073-.82 2.4-1.23 3.978-1.23 1.568 0 2.786.543 3.654 1.628.036.073.078.097.126.073.048-.025.073-.067.073-.127v-6.967zm-.688 17.317c.434-.796.651-1.894.651-3.293 0-1.448-.24-2.588-.723-3.42-.494-.844-1.218-1.267-2.17-1.267-1.025 0-1.797.423-2.315 1.267-.543.857-.814 2.009-.814 3.456 0 1.303.23 2.389.687 3.257.543.941 1.345 1.412 2.406 1.412.976 0 1.736-.47 2.278-1.412zm23.529-5.012c.133.82.175 1.743.127 2.769-.012.265-.151.398-.416.398h-10.056c-.132 0-.174.054-.126.162.06.435.175.87.343 1.303.567 1.207 1.719 1.81 3.455 1.81 1.386-.012 2.483-.573 3.291-1.683.085-.133.181-.199.29-.199.072 0 .15.042.235.127L120.177 91c.108.108.162.205.162.29 0 .048-.042.138-.126.27-.712.881-1.634 1.57-2.767 2.064-1.121.482-2.357.724-3.708.724-1.868 0-3.448-.423-4.738-1.267-1.29-.845-2.218-2.027-2.785-3.547-.458-1.086-.687-2.509-.687-4.27 0-1.195.162-2.244.488-3.149.506-1.544 1.381-2.775 2.622-3.691 1.254-.905 2.737-1.358 4.449-1.358 2.17 0 3.913.628 5.227 1.882 1.314 1.255 2.11 2.938 2.387 5.049zm-7.578-2.968c-1.374 0-2.278.64-2.712 1.918a7.79 7.79 0 00-.217 1.05c0 .109.054.163.162.163h5.625c.133 0 .175-.054.126-.163a23.441 23.441 0 00-.162-.905c-.193-.651-.531-1.158-1.013-1.52-.494-.362-1.097-.543-1.809-.543zm18.881-3.908c.784 0 1.399.15 1.845.452.181.097.247.26.199.489l-.687 3.727c-.012.254-.163.326-.452.217a3.614 3.614 0 00-1.14-.162 4.75 4.75 0 00-.705.072c-.784.06-1.447.344-1.989.85-.543.52-.814 1.2-.814 2.045v8.885a.43.43 0 01-.109.29.431.431 0 01-.289.108h-3.798a.43.43 0 01-.289-.108.43.43 0 01-.109-.29v-15.96c0-.108.036-.199.109-.271a.43.43 0 01.289-.109h3.798c.108 0 .205.036.289.109a.366.366 0 01.109.271v1.249c0 .06.018.102.054.126.048.024.084.012.108-.036.893-1.303 2.086-1.954 3.581-1.954z" fill="#252530"/><path d="M49.084 109.44a.285.285 0 01.253-.145h1.664a.17.17 0 01.145.073.17.17 0 01.072.144v12.233c0 .06-.024.108-.072.145a.172.172 0 01-.145.072h-1.664a.226.226 0 01-.163-.072.198.198 0 01-.054-.145v-8.632c0-.036-.012-.06-.036-.072-.036-.012-.06 0-.072.036l-2.26 3.475a.283.283 0 01-.254.144h-.832a.284.284 0 01-.253-.144l-2.279-3.457c-.012-.036-.03-.048-.054-.036-.036.012-.054.036-.054.073v8.613c0 .06-.025.108-.073.145a.172.172 0 01-.144.072h-1.664a.172.172 0 01-.145-.072.174.174 0 01-.072-.145v-12.233a.17.17 0 01.072-.144.17.17 0 01.145-.073h1.664c.108 0 .193.049.253.145l2.948 4.47c.024.024.048.036.072.036.024 0 .042-.012.054-.036l2.948-4.47zm5.77 2.009c-.374 0-.682-.121-.923-.362s-.362-.549-.362-.923.12-.682.362-.923c.241-.241.549-.362.922-.362.374 0 .681.121.923.362.24.241.361.549.361.923s-.12.682-.361.923c-.242.241-.549.362-.923.362zm-.869 10.513a.172.172 0 01-.145-.072.174.174 0 01-.072-.145v-8.831a.17.17 0 01.072-.144.17.17 0 01.145-.073h1.664c.06 0 .115.024.163.073a.194.194 0 01.054.144v8.831c0 .06-.018.108-.054.145a.225.225 0 01-.163.072h-1.664zm10.02-12.45a.17.17 0 01.072-.144.17.17 0 01.144-.073h1.664c.06 0 .115.024.163.073a.194.194 0 01.054.144v12.233c0 .06-.018.108-.054.145a.226.226 0 01-.163.072h-1.664a.172.172 0 01-.144-.072.174.174 0 01-.073-.145v-.543c0-.036-.012-.06-.036-.072-.024-.012-.048 0-.072.036-.53.627-1.224.941-2.08.941-.856 0-1.58-.223-2.17-.67-.591-.446-1.019-1.067-1.284-1.864-.217-.675-.326-1.429-.326-2.261 0-.857.103-1.593.308-2.208.265-.796.693-1.418 1.284-1.864.59-.446 1.332-.669 2.224-.669.832 0 1.513.301 2.044.904.024.024.048.037.072.037.024-.013.036-.037.036-.073v-3.927zm-.435 9.917c.278-.495.416-1.195.416-2.099 0-.941-.15-1.659-.452-2.154-.325-.53-.784-.796-1.374-.796-.615 0-1.097.253-1.447.76-.362.531-.543 1.267-.543 2.208 0 .844.145 1.538.434 2.081.338.579.85.868 1.538.868.614 0 1.09-.289 1.428-.868zm4.485-2.009a.196.196 0 01-.144-.054.226.226 0 01-.073-.163v-1.375c0-.061.025-.115.073-.163a.196.196 0 01.144-.054h5.697c.06 0 .109.018.145.054a.224.224 0 01.072.163v1.375c0 .06-.024.115-.072.163a.196.196 0 01-.145.054h-5.697zm15.988-7.98a.285.285 0 01.253-.145h1.664c.06 0 .114.024.162.073a.194.194 0 01.055.144v12.233c0 .06-.018.108-.055.145a.225.225 0 01-.162.072h-1.664a.172.172 0 01-.145-.072.174.174 0 01-.072-.145v-8.632c0-.036-.012-.06-.036-.072-.037-.012-.06 0-.073.036l-2.26 3.475a.284.284 0 01-.253.144h-.832a.283.283 0 01-.254-.144l-2.278-3.457c-.012-.036-.03-.048-.055-.036-.036.012-.054.036-.054.073v8.613c0 .06-.018.108-.054.145a.226.226 0 01-.163.072h-1.664a.172.172 0 01-.144-.072.174.174 0 01-.073-.145v-12.233a.17.17 0 01.073-.144.17.17 0 01.144-.073h1.664c.109 0 .193.049.253.145l2.948 4.47c.024.024.048.036.072.036.025 0 .043-.012.055-.036l2.948-4.47zm8.102 3.131c.76 0 1.428.132 2.007.398.579.265 1.025.627 1.338 1.085a2.81 2.81 0 01.47 1.593v6.098c0 .06-.017.108-.053.145a.226.226 0 01-.163.072H94.08a.172.172 0 01-.145-.072.174.174 0 01-.072-.145v-.579c0-.036-.012-.061-.036-.073-.024 0-.049.013-.073.037-.59.651-1.447.977-2.568.977-.904 0-1.646-.229-2.224-.688-.591-.458-.886-1.14-.886-2.045 0-.941.331-1.676.994-2.207.651-.519 1.574-.778 2.767-.778h1.935c.06 0 .09-.03.09-.091v-.434c0-.471-.138-.839-.415-1.104-.277-.253-.693-.38-1.248-.38-.458 0-.826.085-1.103.253-.29.157-.47.38-.543.67-.036.145-.12.205-.253.181l-1.754-.217a.387.387 0 01-.145-.055c-.048-.036-.066-.078-.054-.126.096-.736.494-1.339 1.194-1.81.687-.47 1.555-.705 2.604-.705zm-.434 7.871c.59 0 1.097-.157 1.519-.47.422-.314.633-.712.633-1.195v-.85c0-.061-.03-.091-.09-.091h-1.52c-.639 0-1.14.121-1.5.362-.374.241-.561.585-.561 1.032 0 .386.144.681.434.886.277.217.639.326 1.085.326zm10.652-7.835c.386 0 .723.078 1.013.235.096.048.132.139.108.271l-.307 1.629c-.012.145-.097.187-.254.127a1.973 1.973 0 00-.632-.091c-.157 0-.278.006-.362.018-.507.024-.929.199-1.266.525-.338.338-.507.772-.507 1.303v5.121c0 .06-.018.108-.054.145a.225.225 0 01-.163.072h-1.663a.172.172 0 01-.145-.072.174.174 0 01-.072-.145v-8.813c0-.06.024-.114.072-.162a.193.193 0 01.145-.055h1.663a.26.26 0 01.163.055.263.263 0 01.054.162v.815c0 .048.013.072.037.072.012.012.03 0 .054-.036.506-.784 1.212-1.176 2.116-1.176zm2.713 9.355a.172.172 0 01-.145-.072.174.174 0 01-.072-.145v-12.233c0-.06.024-.108.072-.144a.17.17 0 01.145-.073h1.663a.17.17 0 01.145.073.171.171 0 01.072.144v6.533c0 .036.013.06.037.072.024.012.048 0 .072-.036l2.93-3.239a.382.382 0 01.271-.127h1.917c.121 0 .181.043.181.127a.314.314 0 01-.054.145l-2.297 2.75c-.036.036-.042.079-.018.127l2.713 5.845a.276.276 0 01.036.108c0 .097-.067.145-.199.145h-1.754a.257.257 0 01-.254-.163l-1.971-4.596c-.012-.024-.036-.042-.072-.054-.024 0-.042.012-.055.036l-1.446 1.665a.293.293 0 00-.037.126v2.769c0 .06-.024.108-.072.145a.172.172 0 01-.145.072h-1.663zm16.367-5.664c.048.302.072.64.072 1.014l-.018.56c0 .145-.072.218-.217.218h-5.661c-.06 0-.09.03-.09.09.036.398.09.67.163.814.289.869.994 1.309 2.116 1.321.819 0 1.47-.337 1.953-1.013.048-.072.108-.109.181-.109.048 0 .09.019.126.055l1.121.923c.109.084.127.181.055.289a3.686 3.686 0 01-1.501 1.231c-.615.289-1.302.434-2.062.434-.94 0-1.742-.211-2.405-.633-.651-.423-1.128-1.014-1.429-1.774-.277-.651-.416-1.556-.416-2.714 0-.7.072-1.267.217-1.701.241-.844.699-1.514 1.374-2.009.664-.482 1.465-.723 2.406-.723 2.375 0 3.713 1.242 4.015 3.727zm-4.015-1.918c-.446 0-.82.115-1.122.344-.289.217-.494.525-.614.923-.073.205-.121.47-.145.796-.024.06 0 .09.072.09h3.672c.06 0 .09-.03.09-.09a3.346 3.346 0 00-.109-.688c-.108-.434-.319-.772-.633-1.013-.325-.241-.729-.362-1.211-.362zm10.724-.181c0 .06-.018.109-.054.145a.226.226 0 01-.163.072h-1.844c-.061 0-.091.03-.091.091v4.361c0 .458.103.79.308.995.192.205.506.308.94.308h.543c.06 0 .108.018.144.054a.225.225 0 01.073.163v1.357c0 .133-.073.211-.217.235l-.941.018c-.952 0-1.664-.163-2.134-.488-.47-.326-.711-.941-.723-1.846v-5.157c0-.061-.03-.091-.091-.091h-1.031a.171.171 0 01-.144-.072.171.171 0 01-.073-.145v-1.267c0-.06.024-.114.073-.162a.191.191 0 01.144-.055h1.031c.061 0 .091-.03.091-.09v-2.117c0-.061.024-.115.072-.163a.195.195 0 01.145-.054h1.573c.06 0 .109.018.145.054a.224.224 0 01.072.163v2.117c0 .06.03.09.091.09h1.844a.26.26 0 01.163.055.263.263 0 01.054.162v1.267z" fill="#fff"/><path d="M73.427 136.782c0 .06-.025.109-.073.145a.172.172 0 01-.144.072h-5.914c-.06 0-.09.03-.09.091v2.804c0 .061.03.091.09.091h3.888c.06 0 .109.018.145.054a.226.226 0 01.072.163v1.755a.224.224 0 01-.072.163.196.196 0 01-.145.054h-3.888c-.06 0-.09.03-.09.091v4.994c0 .06-.019.109-.055.145a.225.225 0 01-.163.072h-2.116a.172.172 0 01-.144-.072.173.173 0 01-.073-.145v-12.232c0-.061.024-.109.073-.145a.172.172 0 01.144-.072h8.338c.06 0 .108.024.144.072a.171.171 0 01.073.145v1.755zm7.993 10.694c-.12 0-.199-.06-.235-.181l-.543-1.773c-.024-.048-.054-.072-.09-.072h-4.449c-.036 0-.066.024-.09.072l-.525 1.773c-.036.121-.114.181-.235.181h-2.297c-.072 0-.126-.024-.162-.072-.037-.036-.043-.097-.019-.181l3.907-12.232c.036-.121.114-.181.235-.181h2.84c.12 0 .198.06.234.181l3.907 12.232a.199.199 0 01.018.09c0 .109-.066.163-.199.163H81.42zm-4.756-4.107c-.012.072.012.108.072.108h3.183c.072 0 .097-.036.072-.108l-1.627-5.375c-.012-.048-.03-.072-.055-.072-.024.012-.042.036-.054.072l-1.591 5.375zm9.06 4.107a.172.172 0 01-.144-.072.173.173 0 01-.073-.145v-12.232c0-.061.024-.109.073-.145a.172.172 0 01.144-.072h2.116c.06 0 .115.024.163.072a.195.195 0 01.054.145v10.169c0 .061.03.091.09.091h5.915c.06 0 .114.018.162.054a.265.265 0 01.055.163v1.755c0 .06-.018.109-.055.145a.225.225 0 01-.162.072h-8.338zm10.345 0a.226.226 0 01-.163-.072.197.197 0 01-.054-.145v-12.232c0-.061.018-.109.054-.145a.226.226 0 01.163-.072h2.116c.06 0 .109.024.145.072a.171.171 0 01.072.145v10.169c0 .061.03.091.09.091h5.914c.061 0 .115.018.163.054a.266.266 0 01.054.163v1.755c0 .06-.018.109-.054.145a.224.224 0 01-.163.072h-8.337zm-27.037 14.712c-.024.024-.03.048-.018.072.012.024.036.036.072.036h4.901a.26.26 0 01.163.055.263.263 0 01.054.162v1.756c0 .06-.018.108-.054.144a.223.223 0 01-.163.073H65.85a.223.223 0 01-.163-.073.194.194 0 01-.054-.144v-1.665a.37.37 0 01.108-.272 46.146 46.146 0 001.809-1.881c.615-.688 1-1.116 1.157-1.285a23.78 23.78 0 011.031-1.14c1.097-1.219 1.646-2.123 1.646-2.715 0-.422-.15-.772-.452-1.049-.302-.265-.694-.398-1.176-.398s-.874.133-1.175.398c-.302.277-.452.639-.452 1.086v.452c0 .06-.025.115-.073.163a.196.196 0 01-.144.054h-2.135a.196.196 0 01-.144-.054.225.225 0 01-.073-.163v-.85a3.16 3.16 0 01.615-1.738 3.619 3.619 0 011.483-1.14c.627-.265 1.327-.398 2.098-.398.856 0 1.604.157 2.243.471.627.326 1.115.76 1.465 1.303.337.543.506 1.146.506 1.809 0 .507-.126 1.026-.38 1.556-.253.531-.633 1.104-1.139 1.719a21.31 21.31 0 01-1.212 1.394c-.434.458-1.079 1.122-1.935 1.99l-.271.272zm11.05 2.497c-1.326 0-2.375-.374-3.147-1.122-.772-.736-1.157-1.743-1.157-3.022v-4.777c0-1.255.385-2.25 1.157-2.986.772-.736 1.82-1.104 3.147-1.104 1.326 0 2.381.368 3.165 1.104.771.736 1.157 1.731 1.157 2.986v4.777c0 1.279-.386 2.286-1.157 3.022-.784.748-1.839 1.122-3.165 1.122zm0-2.19c.542 0 .977-.169 1.302-.506.314-.326.47-.766.47-1.321v-4.977c0-.554-.156-.995-.47-1.32-.326-.338-.76-.507-1.302-.507-.53 0-.953.169-1.266.507-.326.325-.488.766-.488 1.32v4.977c0 .555.162.995.488 1.321.313.337.735.506 1.266.506zm9.386-.307c-.024.024-.03.048-.018.072.012.024.036.036.072.036h4.901a.26.26 0 01.163.055.262.262 0 01.054.162v1.756c0 .06-.018.108-.054.144a.223.223 0 01-.163.073h-8.138a.17.17 0 01-.145-.073.17.17 0 01-.072-.144v-1.665a.37.37 0 01.109-.272 46.147 46.147 0 001.808-1.881c.615-.688 1-1.116 1.157-1.285a23.78 23.78 0 011.031-1.14c1.097-1.219 1.646-2.123 1.646-2.715 0-.422-.15-.772-.452-1.049-.301-.265-.693-.398-1.176-.398-.482 0-.874.133-1.175.398-.302.277-.452.639-.452 1.086v.452c0 .06-.018.115-.054.163a.265.265 0 01-.163.054h-2.134a.196.196 0 01-.145-.054.226.226 0 01-.072-.163v-.85a3.159 3.159 0 01.615-1.738c.373-.494.874-.874 1.5-1.14.615-.265 1.309-.398 2.08-.398.856 0 1.604.157 2.243.471.627.326 1.115.76 1.465 1.303.338.543.506 1.146.506 1.809 0 .507-.126 1.026-.38 1.556-.253.531-.633 1.104-1.139 1.719-.374.471-.777.935-1.212 1.394-.434.458-1.079 1.122-1.935 1.99l-.271.272zm14.287-3.746c.241.555.362 1.194.362 1.918a4.93 4.93 0 01-.326 1.81 3.584 3.584 0 01-1.446 1.809c-.688.434-1.495.652-2.424.652-.916 0-1.718-.23-2.405-.688-.7-.459-1.2-1.08-1.501-1.864a5.15 5.15 0 01-.29-1.52c0-.145.073-.217.218-.217h2.133c.145 0 .218.072.218.217.048.398.114.694.199.887.108.313.289.555.542.724.241.181.53.271.868.271.675 0 1.14-.296 1.393-.887.168-.362.253-.784.253-1.266 0-.567-.091-1.032-.271-1.394-.278-.567-.742-.85-1.393-.85a.934.934 0 00-.416.108c-.145.085-.32.199-.524.344a.243.243 0 01-.145.055c-.072 0-.127-.037-.163-.109l-1.067-1.502a.221.221 0 01-.036-.127c0-.072.024-.132.072-.181l2.876-2.515c.024-.024.036-.048.036-.072-.012-.024-.036-.036-.072-.036h-4.25a.173.173 0 01-.145-.073.171.171 0 01-.072-.145v-1.755c0-.06.024-.108.072-.145a.172.172 0 01.145-.072h7.541c.06 0 .115.024.163.072a.199.199 0 01.054.145v1.991a.38.38 0 01-.126.271l-2.37 2.172c-.024.024-.03.048-.018.072 0 .024.024.036.073.036 1.049.205 1.796.826 2.242 1.864z" fill="#252530"/></g><defs><clipPath id="a"><path fill="#fff" transform="translate(.2)" d="M0 0H170V190H0z"/></clipPath></defs></svg>