<svg width="170" height="190" fill="none" xmlns="http://www.w3.org/2000/svg"><path d="M14.705 146.933l71.476 36.372 68.762-36.372V4.705H14.705v142.228z" fill="#fff"/><path d="M156.39 5.248L13.257 149.467l74.19 36.733 68.943-35.286V5.248z" fill="#F2F3F2"/><path d="M10 52.114v97.896l2.533 1.266 71.477 36.372 2.17 1.085 2.172-1.085 68.943-36.372 2.534-1.266V0H10v52.114zm4.705 95.181V4.705h140.419v142.59l-68.943 36.372-71.476-36.372z" fill="#DCDEDC"/><path d="M84.914 7.057c.724 0 1.448 0 2.172.181L84.914 11.4c-3.257-.181-6.152 2.352-6.333 5.61-.18 3.257 2.352 6.152 5.61 6.333h.723a6.324 6.324 0 003.981-1.448l2.353 3.981a10.969 10.969 0 01-6.334 1.99c-5.79.182-10.676-4.161-10.857-9.952-.18-5.79 4.162-10.676 9.953-10.857h.904zm7.42 8.867l2.714 4.524-2.715 4.343-2.533-4.343h-5.248l2.715-4.524h5.067zm-4.343-1.629c0-.724.18-1.447.543-1.99.361-.543 1.085-1.086 1.628-1.448l.362-.18c.724-.363.905-.544.905-.906 0-.361-.543-.723-.905-.723-.724 0-1.267.362-1.629 1.085l-.904-.904c.18-.362.542-.724.904-1.086.543-.362 1.086-.362 1.629-.362.543 0 1.267.18 1.629.543.361.362.723.905.723 1.447 0 .905-.543 1.629-1.628 1.99l-.543.363c-.543.362-.905.543-1.086 1.085h3.257v1.267l-4.885-.18zm-3.077 22.62l17.191-9.772V0H67.543v26.962l17.371 9.952z" fill="#FF492C"/><path d="M42.21 73.105V57.18a.39.39 0 01.361-.362h4.162a.39.39 0 01.362.362v15.924c0 2.352 1.629 4.161 4.162 4.161s4.162-1.628 4.162-4.161V57.18a.39.39 0 01.362-.362h4.162a.39.39 0 01.362.362v15.924c0 5.066-3.62 8.323-9.048 8.323s-9.048-3.438-9.048-8.323zm21.17 3.076v-.362a.39.39 0 01.363-.362h3.8a.39.39 0 01.362.362c0 1.086 1.266 1.81 3.076 1.81 1.628 0 2.714-.724 2.714-1.63 0-1.447-2.714-1.447-5.247-2.352-2.353-.723-4.886-1.99-4.886-5.066 0-3.438 2.895-5.61 7.419-5.61 4.524 0 7.419 2.353 7.419 5.61a.39.39 0 01-.362.362h-3.8a.39.39 0 01-.362-.362c0-1.086-1.086-1.81-2.895-1.81-1.448 0-2.533.543-2.533 1.629 0 1.447 2.352 1.447 5.066 2.352 2.715.724 5.429 1.99 5.429 5.248 0 3.438-3.076 5.428-7.6 5.428-4.886 0-7.962-2.171-7.962-5.247zm34.2-2.895c0 .361-.18.361-.542.361H86.181c-.181 0-.181 0-.181.181 0 .543.18.905.362 1.448.543 1.267 1.628 1.99 3.619 1.99 1.628 0 2.714-.723 3.619-1.81.18-.18.362-.361.543 0l2.533 2.534c.181.181.181.362 0 .543-1.629 1.99-4.162 3.076-7.057 3.076-3.981 0-6.695-1.99-7.962-5.247-.543-1.267-.724-2.534-.724-4.343 0-1.267.181-2.534.543-3.62 1.086-3.256 3.8-5.428 7.6-5.428 4.705 0 7.6 3.076 8.143 7.42.362.904.362 1.809.362 2.894zm-11.218-4.162c-.181.362-.181.723-.181 1.085 0 .181 0 .181.18.181h5.972c.181 0 .181 0 .181-.18 0-.363-.18-.724-.18-.905-.363-1.448-1.448-2.172-3.077-2.172-1.448 0-2.352.724-2.895 1.99zm25.333-5.61c.181.181.181.362.181.543l-.724 3.98c0 .363-.181.363-.543.182-.542-.181-1.266-.181-1.99-.181-1.629.18-3.076 1.267-3.076 3.076v9.59a.39.39 0 01-.362.363h-4.162a.39.39 0 01-.362-.362v-17.01a.39.39 0 01.362-.362h4.162a.39.39 0 01.362.362v1.267c0 .18.181.18.181.18.904-1.266 2.171-2.17 3.8-2.17 1.085 0 1.628.18 2.171.542zm1.448 12.667v-.362a.39.39 0 01.362-.362h3.8a.39.39 0 01.362.362c0 1.086 1.266 1.81 3.076 1.81 1.628 0 2.714-.724 2.714-1.63 0-1.447-2.714-1.447-5.248-2.352-2.352-.723-4.885-1.99-4.885-5.066 0-3.438 2.895-5.61 7.419-5.61 4.524 0 7.419 2.353 7.419 5.61a.39.39 0 01-.362.362H124a.39.39 0 01-.362-.362c0-1.086-1.086-1.81-2.895-1.81-1.448 0-2.534.543-2.534 1.629 0 1.447 2.353 1.447 5.067 2.352 2.714.724 5.429 1.99 5.429 5.248 0 3.438-3.077 5.428-7.6 5.428-4.886 0-7.962-2.171-7.962-5.247zm-86.676 33.838V86.495c0-.18.18-.362.361-.362h4.162a.39.39 0 01.362.362v19.543c0 .181 0 .181.181.181h11.4a.39.39 0 01.362.362v3.438a.39.39 0 01-.362.362H26.828a.39.39 0 01-.361-.362zm19.723-5.067c-.361-1.086-.542-2.352-.542-3.619 0-1.267.18-2.714.542-3.619 1.086-3.438 3.981-5.428 7.962-5.428 3.8 0 6.695 2.17 7.781 5.428.362 1.086.543 2.352.543 3.619 0 1.267-.18 2.533-.543 3.438-1.086 3.619-3.98 5.791-7.78 5.791-3.982.181-7.058-1.991-7.963-5.61zm11.038-1.086c.181-.723.362-1.628.362-2.352 0-.905-.18-1.81-.362-2.533-.542-1.629-1.628-2.534-3.076-2.534-1.628 0-2.714.905-3.076 2.534-.362.543-.362 1.447-.362 2.533 0 .905 0 1.81.181 2.352.543 1.629 1.629 2.534 3.257 2.534 1.448.181 2.534-.905 3.076-2.534zm11.943 6.153l-5.61-17.19c-.18-.362 0-.543.363-.543h4.524c.18 0 .361.18.542.361l2.896 10.496c0 .181.18.181.18 0l2.896-10.496c0-.18.18-.362.543-.362h4.523c.362 0 .543.181.362.543l-5.61 17.01c0 .181-.18.362-.542.362h-4.524c-.362.181-.543.181-.543-.181zm28.59-7.419c0 .362-.18.362-.542.362H86.362c-.181 0-.181 0-.181.181 0 .543.18.904.362 1.447.543 1.267 1.628 1.991 3.619 1.991 1.628 0 2.714-.724 3.619-1.81.18-.181.362-.362.543 0l2.533 2.534c.181.181.181.361 0 .542-1.629 1.991-4.162 3.077-7.057 3.077-3.981 0-6.695-1.991-7.962-5.248-.543-1.267-.724-2.533-.724-4.343 0-1.267.181-2.533.543-3.619 1.086-3.257 3.8-5.428 7.6-5.428 4.705 0 7.6 3.076 8.143 7.419.362.904.362 1.809.362 2.895zm-11.218-4.162c-.181.362-.181.724-.181 1.086 0 .18 0 .18.18.18h5.972c.181 0 .181 0 .181-.18 0-.362-.18-.724-.18-.905-.363-1.448-1.448-2.172-3.077-2.172s-2.533.724-2.895 1.99zm21.352 3.981V86.495a.39.39 0 01.362-.362h4.162a.39.39 0 01.362.362v15.924c0 2.352 1.628 4.162 4.162 4.162 2.533 0 4.162-1.629 4.162-4.162V86.495a.39.39 0 01.362-.362h4.161a.39.39 0 01.362.362v15.924c0 5.067-3.619 8.324-9.047 8.324-5.429 0-9.048-3.438-9.048-8.324zm21.172 3.076v-.362c0-.181.181-.362.361-.362h3.8a.39.39 0 01.362.362c0 1.086 1.267 1.81 3.077 1.81 1.628 0 2.714-.724 2.714-1.629 0-1.448-2.714-1.448-5.248-2.352-2.352-.724-4.885-1.991-4.885-5.067 0-3.438 2.895-5.61 7.419-5.61 4.523 0 7.419 2.353 7.419 5.61a.39.39 0 01-.362.362h-3.8a.39.39 0 01-.362-.362c0-1.086-1.086-1.81-2.895-1.81-1.448 0-2.534.543-2.534 1.63 0 1.447 2.353 1.447 5.067 2.351 2.714.724 5.428 1.991 5.428 5.248 0 3.438-3.076 5.429-7.6 5.429-4.885 0-7.961-2.172-7.961-5.248z" fill="#252530"/><path d="M34.971 131.19h36.19v1.448h-36.19v-1.448zm64.781 0h36.191v1.448h-36.19v-1.448zM76.771 129.562l5.61-.905 2.895-5.61 2.714 5.429 5.972 1.086-4.162 4.162.905 5.971-5.429-2.533-5.429 2.533.724-5.971-3.8-4.162z" fill="#DCDEDC"/></svg>