<svg width="64" height="64" fill="none" xmlns="http://www.w3.org/2000/svg"><path d="M26.681 33.048l.002.001c.188.158.34.354.447.577.108.222.168.467.176.72.008.254-.037.51-.133.75a1.93 1.93 0 01-1.076 1.077 1.869 1.869 0 01-.75.133 1.788 1.788 0 01-.722-.175 1.74 1.74 0 01-.576-.448l-.001-.002-2.05-2.43.436-.434-.886-.886-.986-.986-.677-.677-.83.476a7.096 7.096 0 01-4.883.826 6.778 6.778 0 01-4.121-2.563 6.87 6.87 0 01-1.358-4.69 7.214 7.214 0 012.098-4.526 7.213 7.213 0 014.526-2.098 6.87 6.87 0 014.69 1.358 6.778 6.778 0 012.563 4.122 7.096 7.096 0 01-.826 4.883l-.476.83.677.676.986.986.886.887.434-.437 2.43 2.05z" stroke="#fff" stroke-width="2.5"/><path fill-rule="evenodd" clip-rule="evenodd" d="M44 60.006a15.06 15.06 0 01-9.5-13.993v-8.6a15.206 15.206 0 009.499-3.34 15.18 15.18 0 009.501 3.342v8.598A15.062 15.062 0 0144 60.006zm9.5-25.09c.837 0 1.674-.083 2.5-.25v11.347a17.56 17.56 0 01-12 16.654 17.56 17.56 0 01-12-16.654V34.667a12.703 12.703 0 0011.48-3.48l.52-.52.52.52.03.029a12.68 12.68 0 008.95 3.7z" fill="#fff"/><path d="M42.7 16a1 1 0 01-1 1h-8.4a1 1 0 110-2h8.4a1 1 0 011 1zM56 20a1 1 0 01-1 1H33a1 1 0 110-2h22a1 1 0 011 1zM56 24a1 1 0 01-1 1H33a1 1 0 110-2h22a1 1 0 011 1zM17 40a1 1 0 01-1 1H8a1 1 0 110-2h8a1 1 0 011 1zM29 44a1 1 0 01-1 1H8a1 1 0 110-2h20a1 1 0 011 1zM29 48a1 1 0 01-1 1H8a1 1 0 110-2h20a1 1 0 011 1z" fill="#fff"/><path fill-rule="evenodd" clip-rule="evenodd" d="M5.333 1.333h53.334a4 4 0 014 4v45.334a4 4 0 01-4 4H58V52h.667A1.333 1.333 0 0060 50.667V12H4v38.667A1.333 1.333 0 005.333 52H29v2.667H5.334a4 4 0 01-4-4V5.333a4 4 0 014-4zM58.668 4H5.333A1.333 1.333 0 004 5.333v4h56v-4A1.333 1.333 0 0058.667 4z" fill="#fff"/></svg>