<svg width="165" height="36" viewBox="0 0 165 36" fill="none" xmlns="http://www.w3.org/2000/svg">
<path d="M163.679 9.63569C163.92 9.7711 164.109 9.95546 164.246 10.1888C164.384 10.4204 164.454 10.6749 164.454 10.9506C164.454 11.2263 164.385 11.4792 164.246 11.7109C164.109 11.9409 163.919 12.1236 163.679 12.2574C163.437 12.3912 163.171 12.4581 162.879 12.4581C162.595 12.4581 162.333 12.3912 162.095 12.2574C161.855 12.1236 161.667 11.9409 161.528 11.7109C161.39 11.4809 161.321 11.228 161.321 10.9506C161.321 10.6749 161.39 10.4204 161.528 10.1888C161.666 9.95709 161.855 9.77273 162.095 9.63569C162.333 9.50028 162.595 9.43176 162.879 9.43176C163.171 9.43176 163.437 9.49865 163.679 9.63569ZM163.517 12.0111C163.705 11.9067 163.852 11.7615 163.956 11.5771C164.062 11.3911 164.114 11.1839 164.114 10.9506C164.114 10.719 164.062 10.5085 163.956 10.3209C163.852 10.1333 163.705 9.98645 163.517 9.88041C163.33 9.77437 163.116 9.72053 162.878 9.72053C162.646 9.72053 162.439 9.77437 162.253 9.88041C162.067 9.98645 161.922 10.1333 161.817 10.3209C161.711 10.5085 161.659 10.7173 161.659 10.9506C161.659 11.1839 161.711 11.3911 161.817 11.5771C161.922 11.7615 162.067 11.9067 162.253 12.0111C162.439 12.1155 162.646 12.1677 162.878 12.1677C163.118 12.1677 163.33 12.1155 163.517 12.0111ZM163.441 10.8935C163.365 10.9702 163.269 11.0257 163.15 11.0616L163.607 11.7419H163.193L162.816 11.1154H162.667V11.7419H162.315V10.1104H162.796C163.299 10.1104 163.55 10.2752 163.55 10.6064C163.551 10.7222 163.516 10.8169 163.441 10.8935ZM162.669 10.856H162.855C163.078 10.856 163.189 10.7728 163.189 10.608C163.189 10.5248 163.162 10.4661 163.106 10.4286C163.051 10.3911 162.963 10.3731 162.843 10.3731H162.67V10.856H162.669Z" fill="#041E42"/>
<path d="M52.832 14.5547C52.7308 14.6526 52.6085 14.6999 52.4649 14.6999H48.0633C47.9197 14.6999 47.8479 14.7684 47.8479 14.9071V24.9095C47.8479 25.9618 48.0861 26.722 48.5592 27.1919C49.034 27.6634 49.7893 27.8966 50.8253 27.8966H52.1207C52.2642 27.8966 52.3866 27.9456 52.4877 28.0418C52.5889 28.1397 52.6395 28.2572 52.6395 28.3942V31.507C52.6395 31.8121 52.4665 31.9916 52.1223 32.047L49.8774 32.0878C47.6048 32.0878 45.9065 31.7142 44.7857 30.967C43.6649 30.2198 43.0873 28.8086 43.0596 26.7334V14.9055C43.0596 14.7668 42.9878 14.6983 42.8443 14.6983H40.384C40.2405 14.6983 40.1181 14.651 40.017 14.5531C39.9158 14.4568 39.8652 14.3394 39.8652 14.2007V11.2951C39.8652 11.1564 39.9158 11.039 40.017 10.9427C40.1181 10.8464 40.2388 10.7975 40.384 10.7975H42.8443C42.9878 10.7975 43.0596 10.729 43.0596 10.5903V5.73514C43.0596 5.59647 43.1102 5.479 43.2113 5.38275C43.3125 5.28649 43.4332 5.23755 43.5784 5.23755H47.3324C47.4759 5.23755 47.5983 5.28649 47.6994 5.38275C47.8006 5.48063 47.8512 5.5981 47.8512 5.73514V10.5903C47.8512 10.729 47.9229 10.7975 48.0665 10.7975H52.4682C52.6117 10.7975 52.7341 10.8464 52.8352 10.9427C52.9364 11.0406 52.987 11.1581 52.987 11.2951V14.2007C52.9821 14.341 52.9315 14.4585 52.832 14.5547Z" fill="#041E42"/>
<path d="M72.6264 21.3417L72.584 22.6289C72.584 22.9617 72.4111 23.1265 72.0668 23.1265H58.5585C58.4149 23.1265 58.3432 23.1967 58.3432 23.3337C58.4296 24.2473 58.5585 24.8689 58.7314 25.2017C59.4215 27.1937 61.1052 28.2035 63.7808 28.2313C65.7369 28.2313 67.29 27.4563 68.4418 25.9065C68.556 25.7401 68.7012 25.6569 68.8741 25.6569C68.9883 25.6569 69.0895 25.6977 69.1759 25.7809L71.8515 27.8968C72.1109 28.091 72.1533 28.3112 71.9804 28.5608C71.088 29.7779 69.9019 30.7192 68.4206 31.3832C66.9392 32.0472 65.2915 32.38 63.4789 32.38C61.2341 32.38 59.3285 31.8955 57.7607 30.9281C56.1929 29.9606 55.0493 28.6033 54.3298 26.8609C53.6674 25.3665 53.3379 23.2913 53.3379 20.6353C53.3379 19.0316 53.5108 17.7297 53.8551 16.7345C54.431 14.798 55.5159 13.2693 57.113 12.1485C58.7102 11.0277 60.6304 10.4681 62.8737 10.4681C68.5413 10.4681 71.734 13.3183 72.4535 19.0185C72.5693 19.7086 72.6264 20.4836 72.6264 21.3417ZM60.2193 15.3853C59.5145 15.8976 59.0169 16.6089 58.7298 17.5225C58.5569 17.994 58.441 18.6009 58.3839 19.3481C58.3252 19.4868 58.3839 19.5553 58.5569 19.5553H67.3177C67.4613 19.5553 67.5331 19.4868 67.5331 19.3481C67.4743 18.6563 67.3895 18.131 67.2737 17.7705C67.0143 16.7737 66.5036 16.0004 65.7417 15.4457C64.9799 14.8926 64.0222 14.6153 62.872 14.6153C61.8083 14.6169 60.9241 14.873 60.2193 15.3853Z" fill="#041E42"/>
<path d="M90.683 12.4582C92.0779 13.7862 92.7762 15.5987 92.7762 17.8958V31.5085C92.7762 31.6472 92.7256 31.7647 92.6245 31.8609C92.5233 31.9588 92.401 32.0061 92.2574 32.0061H88.2865C88.1429 32.0061 88.0205 31.9588 87.9194 31.8609C87.8182 31.7647 87.7677 31.6472 87.7677 31.5085V18.891C87.7677 17.6184 87.3941 16.5874 86.6452 15.7994C85.8964 15.0114 84.9045 14.6166 83.6678 14.6166C82.4312 14.6166 81.4311 15.0049 80.6693 15.7782C79.9074 16.5531 79.5256 17.5776 79.5256 18.8502V31.5085C79.5256 31.6472 79.475 31.7647 79.3739 31.8609C79.2727 31.9588 79.1504 32.0061 79.0068 32.0061H75.0359C74.8923 32.0061 74.77 31.9588 74.6688 31.8609C74.5677 31.7647 74.5171 31.6472 74.5171 31.5085V11.2966C74.5171 11.1579 74.5677 11.0405 74.6688 10.9442C74.77 10.8479 74.8907 10.799 75.0359 10.799H79.0068C79.1504 10.799 79.2727 10.8479 79.3739 10.9442C79.475 11.0421 79.5256 11.1596 79.5256 11.2966V12.6246C79.5256 12.7078 79.5533 12.7633 79.6121 12.791C79.6692 12.8187 79.7132 12.791 79.741 12.7078C80.9205 11.2134 82.7037 10.4662 85.0921 10.4662C87.4234 10.4662 89.2865 11.1302 90.683 12.4582Z" fill="#041E42"/>
<path d="M109.187 11.3798C110.567 11.9884 111.633 12.8253 112.38 13.8906C113.127 14.956 113.502 16.1665 113.502 17.5222V31.5086C113.502 31.6473 113.452 31.7647 113.351 31.861C113.249 31.9589 113.127 32.0062 112.983 32.0062H109.013C108.869 32.0062 108.747 31.9589 108.645 31.861C108.544 31.7647 108.494 31.6473 108.494 31.5086V30.1806C108.494 30.0974 108.464 30.0501 108.407 30.0354C108.349 30.0223 108.291 30.0419 108.234 30.0974C106.825 31.5918 104.782 32.339 102.107 32.339C99.9483 32.339 98.1716 31.8137 96.7767 30.7614C95.3802 29.7107 94.6836 28.1462 94.6836 26.071C94.6836 23.9126 95.4667 22.2322 97.0361 21.0282C98.6039 19.8242 100.813 19.2222 103.66 19.2222H108.277C108.42 19.2222 108.492 19.1537 108.492 19.015V18.0182C108.492 16.9398 108.161 16.1029 107.5 15.5074C106.838 14.9119 105.846 14.615 104.523 14.615C103.43 14.615 102.544 14.801 101.868 15.1746C101.191 15.5482 100.767 16.067 100.596 16.731C100.509 17.0638 100.307 17.2025 99.9923 17.1454L95.806 16.6478C95.6625 16.62 95.5401 16.5727 95.439 16.5026C95.3378 16.434 95.3019 16.3443 95.3313 16.2334C95.5613 14.5465 96.5026 13.1614 98.1586 12.083C99.8128 11.0046 101.891 10.4646 104.394 10.4646C106.21 10.4662 107.807 10.7713 109.187 11.3798ZM106.823 27.4414C107.83 26.7219 108.334 25.8083 108.334 24.7022V22.751C108.334 22.6123 108.262 22.5438 108.119 22.5438H104.493C102.968 22.5438 101.767 22.8211 100.89 23.3742C100.012 23.9273 99.573 24.7169 99.573 25.7398C99.573 26.6257 99.9107 27.3109 100.588 27.7938C101.263 28.2783 102.134 28.5198 103.198 28.5198C104.608 28.5214 105.817 28.1625 106.823 27.4414Z" fill="#041E42"/>
<path d="M134.779 21.3417C134.779 23.3059 134.505 25.0353 133.959 26.5297C133.326 28.3553 132.304 29.7811 130.895 30.804C129.485 31.8286 127.759 32.3392 125.717 32.3392C123.702 32.3392 122.049 31.6067 120.754 30.1401C120.695 30.0568 120.638 30.0291 120.581 30.0568C120.522 30.0846 120.494 30.1401 120.494 30.2233V31.5105C120.494 31.6491 120.444 31.7666 120.343 31.8629C120.241 31.9607 120.119 32.0081 119.976 32.0081H116.005C115.861 32.0081 115.739 31.9607 115.638 31.8629C115.536 31.7666 115.486 31.6491 115.486 31.5105V3.45291C115.486 3.31424 115.536 3.19678 115.638 3.10052C115.739 3.00427 115.859 2.95532 116.005 2.95532H119.976C120.119 2.95532 120.241 3.00427 120.343 3.10052C120.444 3.19841 120.494 3.31587 120.494 3.45291V12.4585C120.494 12.5417 120.522 12.5971 120.581 12.6249C120.638 12.6526 120.695 12.6396 120.754 12.5841C121.99 11.1729 123.63 10.4681 125.674 10.4681C127.803 10.4681 129.565 10.9804 130.96 12.0033C132.355 13.0278 133.384 14.4521 134.045 16.2777C134.535 17.8276 134.779 19.5145 134.779 21.3417ZM129.643 21.4233C129.643 19.2649 129.211 17.5779 128.348 16.3593C127.572 15.1977 126.42 14.6169 124.896 14.6169C123.486 14.6169 122.406 15.2254 121.659 16.4425C120.94 17.5779 120.581 19.2224 120.581 21.3808C120.581 23.5115 120.912 25.1168 121.573 26.1952C122.32 27.5232 123.442 28.1872 124.938 28.1872C125.743 28.1872 126.462 28.0143 127.097 27.6684C127.73 27.3226 128.232 26.8315 128.607 26.1952C129.298 25.0353 129.643 23.4446 129.643 21.4233Z" fill="#041E42"/>
<path d="M136.847 31.8939C136.745 31.7977 136.695 31.6802 136.695 31.5415V3.48563C136.695 3.34695 136.745 3.22949 136.847 3.13324C136.948 3.03698 137.068 2.98804 137.214 2.98804H141.185C141.328 2.98804 141.45 3.03698 141.552 3.13324C141.653 3.23112 141.703 3.34859 141.703 3.48563V31.5415C141.703 31.6802 141.653 31.7977 141.552 31.8939C141.45 31.9918 141.328 32.0391 141.185 32.0391H137.212C137.068 32.0391 136.946 31.9918 136.847 31.8939Z" fill="#041E42"/>
<path d="M162.927 21.309L162.884 22.5962C162.884 22.929 162.711 23.0938 162.367 23.0938H148.859C148.715 23.0938 148.643 23.1639 148.643 23.301C148.73 24.2146 148.859 24.8362 149.032 25.169C149.722 27.161 151.405 28.1708 154.081 28.1986C156.037 28.1986 157.59 27.4236 158.742 25.8738C158.856 25.7074 159.001 25.6242 159.173 25.6242C159.287 25.6242 159.388 25.6649 159.475 25.7481L162.15 27.8641C162.409 28.0583 162.452 28.2785 162.279 28.5281C161.387 29.7452 160.201 30.6865 158.719 31.3505C157.238 32.0145 155.59 32.3473 153.778 32.3473C151.534 32.3473 149.627 31.8628 148.059 30.8953C146.491 29.9279 145.348 28.5705 144.628 26.8282C143.966 25.3338 143.636 23.2586 143.636 20.6026C143.636 18.9989 143.809 17.697 144.154 16.7018C144.73 14.7653 145.814 13.2366 147.412 12.1158C149.009 10.995 150.929 10.4354 153.172 10.4354C158.84 10.4354 162.033 13.2856 162.752 18.9858C162.868 19.6775 162.927 20.4525 162.927 21.309ZM150.52 15.3526C149.815 15.8649 149.317 16.5762 149.03 17.4898C148.857 17.9613 148.743 18.5682 148.684 19.3154C148.625 19.454 148.684 19.5226 148.857 19.5226H157.618C157.762 19.5226 157.833 19.454 157.833 19.3154C157.775 18.6236 157.69 18.0983 157.574 17.7378C157.314 16.7409 156.804 15.9676 156.042 15.413C155.28 14.8599 154.322 14.5826 153.172 14.5826C152.109 14.5858 151.224 14.842 150.52 15.3526Z" fill="#041E42"/>
<path d="M37.2697 20.0037L32.2791 5.18369C31.9185 4.11346 31.0049 3.31242 29.8955 3.09707L14.3185 0.0576941C13.232 -0.154393 12.0998 0.227364 11.364 1.05287L0.798761 12.8939C0.0466655 13.7373 -0.196419 14.9267 0.16413 15.9969L5.15471 30.8169C5.51526 31.8888 6.42887 32.6882 7.53825 32.9035L23.1153 35.9429C23.3143 35.9821 23.5133 36 23.7124 36C24.6015 36 25.4678 35.6215 26.0698 34.9477L36.635 23.1067C37.3871 22.2649 37.6302 21.0756 37.2697 20.0037ZM31.2399 5.53445L34.5223 15.2807L27.5463 4.27497C27.3962 4.03678 27.2118 3.82796 27.0046 3.65013L29.6884 4.17382C30.4094 4.31413 31.0049 4.83619 31.2399 5.53445ZM26.0975 31.2378L20.0172 31.5462L29.8531 25.8524C29.8678 25.8443 29.8825 25.8345 29.8972 25.8247L27.53 30.3226C27.2493 30.8577 26.6995 31.2085 26.0975 31.2378ZM10.8158 31.1416L7.38 25.7219C7.44526 25.7692 7.51215 25.8133 7.5823 25.8541L17.4966 31.5935C17.5423 31.6196 17.5896 31.6457 17.6369 31.6685L12.3526 31.9361C11.7343 31.9654 11.1454 31.662 10.8158 31.1416ZM11.3363 4.76441L17.4166 4.45606L7.5823 10.1498C7.56762 10.158 7.55293 10.1677 7.53825 10.1775L9.90548 5.67964C10.1861 5.14453 10.7342 4.7954 11.3363 4.76441ZM26.6196 4.86229L30.0554 10.2819C29.9902 10.2346 29.9233 10.1906 29.8531 10.1498L19.9388 4.41201C19.8932 4.38591 19.8459 4.35981 19.7985 4.33697L25.0828 4.06941C25.6978 4.03352 26.2884 4.34023 26.6196 4.86229ZM29.9722 23.7446C29.9722 24.221 29.7161 24.6664 29.3033 24.9062L19.3891 30.644C18.9747 30.8838 18.4591 30.8838 18.0447 30.644L8.1321 24.9046C7.71934 24.6647 7.46321 24.221 7.46321 23.743V12.2576C7.46321 11.7812 7.71934 11.3359 8.1321 11.096L18.0464 5.35825C18.2536 5.23752 18.4852 5.17879 18.7185 5.17879C18.9502 5.17879 19.1835 5.23915 19.3907 5.35825L29.3033 11.0977C29.7161 11.3359 29.9722 11.7812 29.9722 12.2593V23.7446ZM6.40766 24.1867L3.52816 19.6432C3.20024 19.126 3.17414 18.4669 3.45964 17.9253L6.36524 12.4028V23.743C6.36524 23.8947 6.37993 24.0415 6.40766 24.1867ZM31.0278 11.8155L33.9073 16.3591C34.2352 16.8762 34.2613 17.5353 33.9758 18.077L31.0686 23.5994V12.2593C31.0686 12.1092 31.0539 11.9607 31.0278 11.8155ZM12.1846 1.78376C12.5778 1.34327 13.1423 1.09692 13.7214 1.09692C13.8503 1.09692 13.9808 1.10997 14.1113 1.13445L23.8364 3.03181L11.2824 3.66808C10.9349 3.68602 10.6005 3.76922 10.2905 3.90627L12.1846 1.78376ZM1.61774 13.6248L8.60522 5.79548L2.48894 17.4162C2.30458 17.7654 2.2018 18.1455 2.17407 18.5289L1.20499 15.6494C0.968431 14.9495 1.12831 14.1746 1.61774 13.6248ZM6.19394 30.4678L2.91148 20.7215L9.88753 31.7273C10.0376 31.9638 10.222 32.1743 10.4292 32.3521L7.74708 31.8284C7.02435 31.6881 6.4305 31.166 6.19394 30.4678ZM25.2508 34.2201C24.7712 34.7585 24.0321 35.0081 23.3241 34.8694L13.5991 32.972L26.153 32.3358C26.5005 32.3178 26.835 32.2346 27.1449 32.0976L25.2508 34.2201ZM35.816 22.3775L28.8302 30.2084L34.9465 18.5876C35.1308 18.2385 35.2336 17.8584 35.2614 17.475L36.2304 20.3545C36.4654 21.0527 36.3071 21.8277 35.816 22.3775Z" fill="#041E42"/>
</svg>
