<svg width="211" height="58" viewBox="0 0 211 58" fill="none" xmlns="http://www.w3.org/2000/svg">
<path d="M57.3543 30.6262L49.8271 8.18747C49.2077 6.37713 47.6832 5.0432 45.8253 4.70972L22.2432 0.0885885C20.4329 -0.244895 18.5273 0.374431 17.2886 1.75601L1.32904 19.7165C0.0903877 21.1457 -0.338377 23.0989 0.28095 24.9093L7.80815 47.348C8.42747 49.1583 9.95197 50.4922 11.8099 50.8257L35.392 55.3992C35.7255 55.4468 36.059 55.4945 36.3924 55.4945C37.9169 55.4945 39.3462 54.8752 40.3466 53.7318L56.3538 35.819C57.5448 34.3897 57.9736 32.4365 57.3543 30.6262ZM54.3053 34.0563L38.2981 51.9691C37.6787 52.6361 36.7736 52.9695 35.8684 52.779L12.2864 48.1578C11.3812 47.9673 10.6189 47.348 10.3331 46.4428L2.75826 24.0518C2.47241 23.1466 2.66297 22.1938 3.2823 21.4792L19.2895 3.56634C19.7659 2.99466 20.4805 2.70882 21.2428 2.70882C21.3857 2.70882 21.5763 2.70882 21.7192 2.75646L45.3012 7.32994C46.2064 7.52051 46.9686 8.18747 47.2545 9.045L54.8293 31.4837C55.1152 32.3888 54.9246 33.3417 54.3053 34.0563Z" fill="#041E42"/>
<path d="M84.9382 12.1213C86.5579 13.741 87.3678 15.9325 87.3678 18.7433V35.2745C87.3678 35.608 87.082 35.8939 86.7961 35.8939H82.175C81.8415 35.8939 81.5557 35.608 81.5557 35.3222V19.9343C81.6033 18.5527 81.1269 17.2188 80.2694 16.1707C79.3642 15.2179 78.0779 14.6938 76.7916 14.7415C75.4577 14.6938 74.219 15.2179 73.2662 16.1707C72.3611 17.1711 71.8847 18.5051 71.9323 19.8867V35.2745C71.9323 35.608 71.6465 35.8939 71.3606 35.8939H66.6918C66.3584 35.8939 66.0725 35.608 66.0725 35.3222V10.692C66.0725 10.3586 66.3584 10.0727 66.6442 10.0727H71.2653C71.5988 10.0727 71.8847 10.3586 71.8847 10.692V12.3118C71.8847 12.4071 71.9323 12.4547 71.9799 12.5024C72.0276 12.55 72.0752 12.5024 72.1229 12.4071C73.5044 10.5968 75.6006 9.69159 78.3638 9.69159C81.1746 9.69159 83.3184 10.5015 84.9382 12.1213Z" fill="#041E42"/>
<path d="M70.5446 53.8077C71.1035 53.8077 71.5793 53.6828 71.9717 53.433C72.3761 53.1714 72.6913 52.8146 72.9172 52.3627C72.9767 52.2556 73.054 52.2259 73.1492 52.2735L73.613 52.5054C73.72 52.5649 73.7498 52.6422 73.7022 52.7373C73.4405 53.3201 73.0243 53.7839 72.4534 54.1288C71.8944 54.4737 71.2344 54.6461 70.4732 54.6461C69.6407 54.6461 68.933 54.444 68.3503 54.0396C67.7675 53.6352 67.3691 53.0822 67.155 52.3805C67.0599 52.0832 66.9945 51.7502 66.9588 51.3815C66.9231 51.0128 66.9053 50.549 66.9053 49.99C66.9053 49.4072 66.9112 48.9672 66.9231 48.6699C66.9469 48.3725 66.9885 48.099 67.048 47.8492C67.2383 47.1 67.6248 46.4994 68.2076 46.0474C68.8022 45.5955 69.5277 45.3695 70.384 45.3695C71.3592 45.3695 72.1382 45.6252 72.721 46.1366C73.3038 46.6361 73.6665 47.3319 73.8092 48.2239C73.8449 48.4498 73.8687 48.7174 73.8806 49.0267C73.8925 49.324 73.8984 49.6986 73.8984 50.1505C73.8984 50.2695 73.839 50.3289 73.72 50.3289H67.9043C67.8567 50.3289 67.8329 50.3527 67.8329 50.4003C67.8329 51.1615 67.8627 51.6669 67.9221 51.9167C68.053 52.4994 68.3443 52.9633 68.7963 53.3082C69.2601 53.6412 69.8429 53.8077 70.5446 53.8077ZM67.9578 48.0633C67.8983 48.2893 67.8567 48.7531 67.8329 49.4548C67.8329 49.5024 67.8567 49.5262 67.9043 49.5262H72.8816C72.9291 49.5262 72.9529 49.5024 72.9529 49.4548C72.9529 48.8601 72.9232 48.4142 72.8637 48.1168C72.7329 47.546 72.4475 47.0881 72.0074 46.7432C71.5674 46.3864 71.0262 46.208 70.384 46.208C69.7418 46.208 69.2066 46.3804 68.7784 46.7253C68.3503 47.0583 68.0767 47.5043 67.9578 48.0633Z" fill="#041E42"/>
<path d="M74.8717 54.5034C74.8003 54.5034 74.7527 54.4796 74.7289 54.4321C74.7052 54.3845 74.717 54.3369 74.7646 54.2894L77.7438 50.0614C77.7676 50.0257 77.7676 49.99 77.7438 49.9543L74.7646 45.7263C74.7408 45.7025 74.7289 45.6668 74.7289 45.6193C74.7289 45.5955 74.7408 45.5717 74.7646 45.5479C74.7884 45.5241 74.8241 45.5122 74.8717 45.5122H75.496C75.5912 45.5122 75.6625 45.5479 75.7101 45.6193L78.2255 49.2229C78.2374 49.2348 78.2552 49.2407 78.279 49.2407C78.3028 49.2407 78.3207 49.2348 78.3326 49.2229L80.8301 45.6193C80.8777 45.5479 80.949 45.5122 81.0442 45.5122H81.7221C81.7934 45.5122 81.841 45.536 81.8648 45.5836C81.8886 45.6312 81.8767 45.6787 81.8291 45.7263L78.8499 49.9543C78.838 49.99 78.838 50.0257 78.8499 50.0614L81.8291 54.2894C81.8529 54.3131 81.8648 54.3488 81.8648 54.3964C81.8648 54.4202 81.8529 54.444 81.8291 54.4677C81.8053 54.4915 81.7697 54.5034 81.7221 54.5034H81.0799C80.9847 54.5034 80.9134 54.4677 80.8658 54.3964L78.3682 50.8106C78.3563 50.7868 78.3385 50.7749 78.3147 50.7749C78.2909 50.7749 78.2731 50.7868 78.2612 50.8106L75.7458 54.3964C75.6982 54.4677 75.6269 54.5034 75.5317 54.5034H74.8717Z" fill="#041E42"/>
<path d="M90.016 47.7422C90.0993 48.0157 90.1528 48.325 90.1766 48.6699C90.2003 49.0029 90.2122 49.4429 90.2122 49.99C90.2122 50.5371 90.2003 50.9831 90.1766 51.328C90.1528 51.661 90.1052 51.9642 90.0338 52.2378C89.8554 52.9752 89.4808 53.5639 88.9099 54.0039C88.351 54.4321 87.6552 54.6461 86.8227 54.6461C86.2994 54.6461 85.8296 54.5451 85.4134 54.3429C85.009 54.1288 84.6819 53.8255 84.4322 53.433C84.4084 53.4093 84.3846 53.4033 84.3608 53.4152C84.3489 53.4152 84.343 53.433 84.343 53.4687V57.8216C84.343 57.9405 84.2835 58 84.1646 58H83.5759C83.4569 58 83.3975 57.9405 83.3975 57.8216V45.6906C83.3975 45.5717 83.4569 45.5122 83.5759 45.5122H84.1646C84.2835 45.5122 84.343 45.5717 84.343 45.6906V46.5469C84.343 46.5826 84.3489 46.6064 84.3608 46.6183C84.3846 46.6183 84.4084 46.6064 84.4322 46.5826C84.6819 46.1901 85.009 45.8928 85.4134 45.6906C85.8296 45.4766 86.2994 45.3695 86.8227 45.3695C87.6314 45.3695 88.3153 45.5836 88.8743 46.0117C89.4332 46.4399 89.8138 47.0167 90.016 47.7422ZM89.017 52.0951C89.1121 51.881 89.1775 51.6312 89.2132 51.3458C89.2489 51.0604 89.2667 50.6144 89.2667 50.0078C89.2667 49.3894 89.2489 48.9434 89.2132 48.6699C89.1775 48.3844 89.1181 48.1228 89.0348 47.8849C88.9159 47.3854 88.6483 46.981 88.232 46.6718C87.8158 46.3626 87.3163 46.208 86.7335 46.208C86.1745 46.208 85.7047 46.3685 85.3242 46.6897C84.9555 46.9989 84.7057 47.3973 84.5749 47.8849C84.4917 48.099 84.4322 48.3487 84.3965 48.6342C84.3608 48.9196 84.343 49.3775 84.343 50.0078C84.343 50.6382 84.3608 51.0961 84.3965 51.3815C84.4322 51.6669 84.4917 51.9286 84.5749 52.1664C84.7057 52.654 84.9555 53.0525 85.3242 53.3617C85.7047 53.659 86.1745 53.8077 86.7335 53.8077C87.2806 53.8077 87.7504 53.6709 88.1428 53.3974C88.5353 53.1119 88.8029 52.7432 88.9456 52.2913L89.017 52.0951Z" fill="#041E42"/>
<path d="M95.5292 53.8077C96.0881 53.8077 96.5639 53.6828 96.9563 53.433C97.3607 53.1714 97.6759 52.8146 97.9018 52.3627C97.9613 52.2556 98.0386 52.2259 98.1337 52.2735L98.5976 52.5054C98.7046 52.5649 98.7343 52.6422 98.6868 52.7373C98.4251 53.3201 98.0089 53.7839 97.438 54.1288C96.879 54.4737 96.219 54.6461 95.4578 54.6461C94.6253 54.6461 93.9176 54.444 93.3349 54.0396C92.7521 53.6352 92.3537 53.0822 92.1396 52.3805C92.0445 52.0832 91.9791 51.7502 91.9434 51.3815C91.9077 51.0128 91.8899 50.549 91.8899 49.99C91.8899 49.4072 91.8958 48.9672 91.9077 48.6699C91.9315 48.3725 91.9731 48.099 92.0326 47.8492C92.2229 47.1 92.6094 46.4994 93.1922 46.0474C93.7868 45.5955 94.5123 45.3695 95.3686 45.3695C96.3438 45.3695 97.1228 45.6252 97.7056 46.1366C98.2884 46.6361 98.6511 47.3319 98.7938 48.2239C98.8295 48.4498 98.8533 48.7174 98.8652 49.0267C98.8771 49.324 98.883 49.6986 98.883 50.1505C98.883 50.2695 98.8235 50.3289 98.7046 50.3289H92.8889C92.8413 50.3289 92.8175 50.3527 92.8175 50.4003C92.8175 51.1615 92.8473 51.6669 92.9067 51.9167C93.0375 52.4994 93.3289 52.9633 93.7809 53.3082C94.2447 53.6412 94.8275 53.8077 95.5292 53.8077ZM92.9424 48.0633C92.8829 48.2893 92.8413 48.7531 92.8175 49.4548C92.8175 49.5024 92.8413 49.5262 92.8889 49.5262H97.8661C97.9137 49.5262 97.9375 49.5024 97.9375 49.4548C97.9375 48.8601 97.9078 48.4142 97.8483 48.1168C97.7175 47.546 97.4321 47.0881 96.992 46.7432C96.552 46.3864 96.0108 46.208 95.3686 46.208C94.7264 46.208 94.1912 46.3804 93.763 46.7253C93.3349 47.0583 93.0613 47.5043 92.9424 48.0633Z" fill="#041E42"/>
<path d="M104.311 45.4409C104.716 45.4409 105.06 45.5122 105.346 45.655C105.441 45.6906 105.477 45.7679 105.453 45.8869L105.292 46.4577C105.257 46.5767 105.179 46.6123 105.06 46.5648C104.823 46.4696 104.525 46.428 104.168 46.4399C103.502 46.4518 102.949 46.7075 102.509 47.207C102.081 47.6946 101.867 48.2952 101.867 49.0088V54.325C101.867 54.444 101.808 54.5034 101.689 54.5034H101.1C100.981 54.5034 100.922 54.444 100.922 54.325V45.6906C100.922 45.5717 100.981 45.5122 101.1 45.5122H101.689C101.808 45.5122 101.867 45.5717 101.867 45.6906V46.9037C101.867 46.9394 101.873 46.9632 101.885 46.9751C101.909 46.9751 101.927 46.9572 101.938 46.9216C102.188 46.4577 102.509 46.095 102.902 45.8334C103.306 45.5717 103.776 45.4409 104.311 45.4409Z" fill="#041E42"/>
<path d="M110.644 46.1366C110.644 46.2556 110.585 46.315 110.466 46.315H108.379C108.331 46.315 108.307 46.3388 108.307 46.3864V52.0237C108.307 52.6303 108.444 53.0584 108.718 53.3082C108.991 53.546 109.431 53.665 110.038 53.665H110.448C110.567 53.665 110.626 53.7244 110.626 53.8434V54.325C110.626 54.444 110.567 54.5034 110.448 54.5034L109.913 54.5213C109.08 54.5213 108.45 54.3607 108.022 54.0396C107.606 53.7185 107.391 53.1298 107.38 52.2735V46.3864C107.38 46.3388 107.356 46.315 107.308 46.315H106.238C106.119 46.315 106.059 46.2556 106.059 46.1366V45.6906C106.059 45.5717 106.119 45.5122 106.238 45.5122H107.308C107.356 45.5122 107.38 45.4885 107.38 45.4409V43.4072C107.38 43.2882 107.439 43.2288 107.558 43.2288H108.129C108.248 43.2288 108.307 43.2882 108.307 43.4072V45.4409C108.307 45.4885 108.331 45.5122 108.379 45.5122H110.466C110.585 45.5122 110.644 45.5717 110.644 45.6906V46.1366Z" fill="#041E42"/>
<path d="M113.284 22.888L113.236 24.4601C113.284 24.746 113.094 25.0318 112.808 25.0794C112.76 25.0794 112.712 25.0794 112.665 25.0794H96.8958C96.7529 25.0794 96.6576 25.1271 96.6576 25.27V25.3176C96.7052 26.0799 96.8481 26.8421 97.134 27.6044C97.9439 30.0341 99.8971 31.2727 103.041 31.2727C105.233 31.3203 107.281 30.2723 108.472 28.4619C108.568 28.2714 108.758 28.1761 108.996 28.1761C109.139 28.1761 109.235 28.2237 109.33 28.319L112.474 30.8916C112.712 31.0345 112.808 31.368 112.665 31.6062C112.665 31.6538 112.617 31.6538 112.617 31.6538C111.569 33.1307 110.14 34.3217 108.472 35.0839C106.662 35.8938 104.709 36.3226 102.708 36.275C100.374 36.3226 98.0392 35.7509 96.0383 34.5123C94.2279 33.3212 92.7987 31.6062 92.0365 29.5576C91.2742 27.7473 90.8931 25.2224 90.8931 21.9828C90.8454 20.363 91.036 18.7433 91.5124 17.2188C92.0841 14.9797 93.4657 13.0264 95.3236 11.6448C97.2769 10.2633 99.6589 9.54865 102.041 9.59629C108.663 9.59629 112.427 13.074 113.236 19.9819C113.236 20.9824 113.284 21.9352 113.284 22.888ZM98.8014 15.6943C97.9439 16.3612 97.3245 17.2664 97.0863 18.2669C96.8481 18.9815 96.7052 19.7437 96.6576 20.506C96.6099 20.6965 96.6576 20.7442 96.8481 20.7442H107.091C107.234 20.7442 107.329 20.6965 107.329 20.5536V20.506C107.281 19.839 107.186 19.2197 107.043 18.6003C106.805 17.457 106.186 16.4565 105.233 15.7896C104.28 15.0749 103.089 14.7415 101.898 14.7891C100.802 14.7415 99.7066 15.0273 98.8014 15.6943Z" fill="#041E42"/>
<path d="M120.478 35.2269C119.049 34.7029 117.762 33.8454 116.762 32.6543C115.904 31.6539 115.476 30.3676 115.428 29.0337V28.5573C115.428 28.2238 115.714 27.9379 116 27.9379H120.43C120.764 27.9379 121.05 28.2238 121.05 28.5096V28.6049C121.05 29.4624 121.526 30.177 122.431 30.7964C123.479 31.4633 124.718 31.7968 125.957 31.7492C127.1 31.7968 128.243 31.511 129.244 30.8916C130.006 30.4629 130.482 29.7006 130.482 28.7955C130.482 28.0809 130.101 27.4139 129.434 27.0804C128.386 26.5564 127.243 26.1276 126.099 25.8418L124.194 25.2224C122.717 24.7937 121.24 24.2696 119.859 23.6026C118.715 23.031 117.715 22.2687 116.905 21.2683C116.047 20.1725 115.619 18.8386 115.714 17.457C115.619 15.2179 116.667 13.1217 118.477 11.8355C120.335 10.4539 122.765 9.73927 125.814 9.73927C127.672 9.69163 129.482 10.0251 131.197 10.7397C132.626 11.3114 133.865 12.2642 134.77 13.4552C135.628 14.5986 136.056 15.9802 136.009 17.4094C136.009 17.7429 135.77 18.0287 135.437 18.0287C135.437 18.0287 135.437 18.0287 135.389 18.0287H131.102C130.768 18.0287 130.482 17.7905 130.482 17.457C130.482 17.457 130.482 17.457 130.482 17.4094C130.482 16.5042 129.958 15.6943 129.196 15.2179C128.148 14.5986 126.957 14.2651 125.718 14.3604C124.623 14.3128 123.479 14.551 122.526 15.075C121.764 15.4561 121.288 16.266 121.288 17.1235C121.288 17.9334 121.764 18.648 122.479 18.9815C123.765 19.5532 125.099 20.0296 126.433 20.3631L127.529 20.6489C129.053 21.0777 130.578 21.6494 132.007 22.2687C133.198 22.7928 134.246 23.6027 135.104 24.6031C135.961 25.6988 136.437 27.0804 136.342 28.462C136.437 30.7011 135.342 32.7973 133.531 34.0836C131.626 35.4651 129.101 36.1321 126.004 36.1321C124.146 36.2274 122.241 35.8939 120.478 35.2269Z" fill="#041E42"/>
<path d="M143.155 35.2269C141.725 34.7029 140.439 33.8454 139.439 32.6543C138.581 31.6539 138.152 30.3676 138.105 29.0337V28.5573C138.105 28.2238 138.391 27.9379 138.676 27.9379H143.107C143.44 27.9379 143.726 28.2238 143.726 28.5096V28.6049C143.726 29.4624 144.203 30.177 145.108 30.7964C146.156 31.4633 147.395 31.7968 148.633 31.7492C149.777 31.7968 150.92 31.511 151.921 30.8916C152.683 30.4629 153.159 29.653 153.159 28.7955C153.159 28.0809 152.778 27.4139 152.111 27.0804C151.063 26.5564 149.92 26.1276 148.776 25.8418L146.871 25.2224C145.394 24.7937 143.917 24.2696 142.535 23.6027C141.392 23.031 140.344 22.2687 139.582 21.2683C138.724 20.1725 138.295 18.8386 138.391 17.457C138.295 15.2179 139.343 13.1217 141.154 11.8355C143.012 10.4539 145.441 9.73927 148.49 9.73927C150.348 9.69163 152.159 10.0251 153.874 10.7397C155.303 11.3114 156.542 12.2642 157.447 13.4552C158.304 14.5986 158.733 15.9802 158.685 17.4094C158.685 17.7429 158.447 18.0287 158.114 18.0287H153.826C153.493 18.0287 153.207 17.7429 153.207 17.457C153.207 16.5519 152.73 15.6943 151.921 15.2656C150.872 14.6462 149.634 14.3128 148.395 14.408C147.299 14.3604 146.156 14.5986 145.203 15.1226C144.441 15.5038 143.965 16.3137 143.965 17.1712C143.965 17.9811 144.441 18.6957 145.156 19.0292C146.442 19.6009 147.776 20.0773 149.11 20.4107L150.205 20.6966C151.73 21.1253 153.254 21.697 154.684 22.3164C155.875 22.8404 156.923 23.6503 157.78 24.6507C158.638 25.7465 159.114 27.128 159.019 28.5096C159.114 30.7487 158.019 32.8926 156.161 34.1312C154.303 35.5128 151.778 36.1797 148.633 36.1797C146.823 36.2274 144.965 35.8939 143.155 35.2269Z" fill="#041E42"/>
<path d="M177.265 10.2633C177.361 10.168 177.551 10.0727 177.694 10.0727H182.268C182.41 10.0727 182.601 10.1203 182.696 10.2633C182.792 10.3585 182.887 10.5491 182.887 10.692V35.2745C182.887 35.4174 182.839 35.608 182.696 35.7033C182.601 35.7986 182.41 35.8938 182.268 35.8938H177.694C177.551 35.8938 177.361 35.8462 177.265 35.7033C177.17 35.608 177.075 35.4174 177.075 35.2745V33.6547C177.075 33.5595 177.027 33.5118 176.979 33.4642C176.932 33.4165 176.837 33.4642 176.789 33.5595C175.407 35.3222 173.359 36.2273 170.596 36.2273C168.261 36.3226 165.975 35.5127 164.164 33.9882C162.449 32.5114 161.544 30.4152 161.544 27.6997V10.692C161.544 10.3585 161.83 10.0727 162.116 10.0727H166.737C166.88 10.0727 167.07 10.1203 167.166 10.2633C167.261 10.3585 167.356 10.5491 167.356 10.692V26.0323C167.261 27.4138 167.737 28.7478 168.595 29.7959C169.452 30.7487 170.739 31.2727 172.025 31.2251C173.406 31.2727 174.693 30.7487 175.646 29.7959C176.598 28.7478 177.075 27.4138 177.027 26.0323V10.692C177.075 10.5491 177.17 10.4062 177.265 10.2633Z" fill="#041E42"/>
<path d="M190.986 35.2268C189.557 34.7028 188.27 33.8453 187.27 32.6542C186.412 31.6538 185.984 30.3675 185.936 29.0336V28.5572C185.936 28.2237 186.222 27.9378 186.508 27.9378H190.986C191.129 27.9378 191.319 27.9855 191.415 28.1284C191.51 28.2237 191.605 28.4142 191.605 28.5572V28.6525C191.605 29.51 192.082 30.2246 192.987 30.8439C194.035 31.5109 195.274 31.8444 196.512 31.7967C197.656 31.8444 198.799 31.5109 199.799 30.9392C200.562 30.5104 201.038 29.7005 201.038 28.843C201.086 28.1284 200.657 27.4614 200.038 27.128C198.99 26.6039 197.846 26.1751 196.703 25.8893L194.797 25.27C193.32 24.8412 191.843 24.3172 190.462 23.6502C189.319 23.0785 188.27 22.3163 187.508 21.3158C186.651 20.2201 186.222 18.8861 186.317 17.5046C186.222 15.2655 187.27 13.1693 189.08 11.883C190.938 10.5014 193.368 9.78681 196.417 9.78681C198.275 9.73917 200.085 10.0727 201.8 10.7873C203.23 11.359 204.468 12.3118 205.373 13.5028C206.231 14.6461 206.66 16.0277 206.612 17.4569C206.612 17.5999 206.564 17.7904 206.421 17.8857C206.326 17.981 206.136 18.0763 205.993 18.0763H201.705C201.562 18.0763 201.372 18.0286 201.276 17.8857C201.181 17.7904 201.086 17.5999 201.086 17.4569C201.086 16.5518 200.562 15.7419 199.799 15.2655C198.751 14.6461 197.513 14.3127 196.322 14.4079C195.226 14.3603 194.083 14.5985 193.13 15.1226C192.368 15.5037 191.891 16.3136 191.891 17.1711C191.891 17.981 192.367 18.6956 193.082 19.0291C194.368 19.6008 195.702 20.0772 197.036 20.4106L198.132 20.6965C199.656 21.1253 201.181 21.6969 202.61 22.3163C203.801 22.8403 204.849 23.6502 205.707 24.6506C206.564 25.7464 207.041 27.128 206.945 28.5095C207.041 30.7486 205.945 32.8448 204.135 34.1311C202.229 35.5127 199.752 36.1796 196.608 36.1796C194.654 36.2273 192.796 35.8938 190.986 35.2268Z" fill="#041E42"/>
<path d="M209.804 7.0713C210.09 7.21422 210.28 7.45242 210.471 7.73826C210.614 8.02411 210.709 8.30995 210.709 8.64343C210.709 8.97692 210.614 9.26276 210.471 9.5486C210.328 9.83444 210.09 10.0726 209.804 10.2156C209.232 10.5491 208.565 10.5491 207.994 10.2156C207.708 10.0726 207.47 9.83444 207.327 9.5486C207.184 9.26276 207.088 8.97692 207.088 8.64343C207.088 8.30995 207.184 8.02411 207.327 7.73826C207.851 6.88074 208.946 6.59489 209.804 7.0713ZM209.613 9.88209C209.852 9.73916 210.042 9.59624 210.137 9.35804C210.28 9.11984 210.328 8.88164 210.328 8.59579C210.328 8.07175 210.042 7.59534 209.613 7.35714C209.137 7.11894 208.613 7.11894 208.136 7.35714C207.898 7.50006 207.708 7.64298 207.612 7.88119C207.469 8.11939 207.422 8.35759 207.422 8.59579C207.422 8.83399 207.469 9.11984 207.612 9.35804C207.755 9.59624 207.946 9.7868 208.136 9.88209C208.613 10.1679 209.137 10.1679 209.613 9.88209ZM209.423 8.54815C209.375 8.59579 209.327 8.69107 209.232 8.69107L209.185 8.73871L209.423 9.3104V9.35804C209.423 9.40568 209.375 9.45332 209.327 9.45332H209.232C209.185 9.45332 209.137 9.40568 209.137 9.35804L208.899 8.78635C208.899 8.78635 208.899 8.73871 208.851 8.73871H208.708C208.708 8.73871 208.661 8.73871 208.661 8.78635V9.35804C208.661 9.40568 208.613 9.45332 208.565 9.45332H208.47C208.422 9.45332 208.375 9.40568 208.375 9.40568V7.92883C208.375 7.88118 208.422 7.83354 208.47 7.83354H208.946C209.089 7.83354 209.185 7.88119 209.28 7.97647C209.375 8.07175 209.423 8.21467 209.423 8.30995C209.47 8.40523 209.423 8.45287 209.423 8.54815ZM208.708 8.07175V8.50051C208.708 8.54815 208.708 8.54815 208.756 8.54815H208.994C209.042 8.54815 209.137 8.54815 209.185 8.50051C209.232 8.45287 209.232 8.40523 209.232 8.30995C209.232 8.26231 209.232 8.16703 209.185 8.11939C209.137 8.07175 209.089 8.07175 208.994 8.07175H208.708Z" fill="#041E42"/>
</svg>
