<svg width="64" height="64" fill="none" xmlns="http://www.w3.org/2000/svg"><path d="M31.716 56.464l-.05.015-.049-.015a25.263 25.263 0 01-.54-.17 39.628 39.628 0 01-1.974-.707 44.843 44.843 0 01-6.237-2.982c-4.714-2.735-9.784-6.96-11.544-12.986-.643-2.202-.972-5.33-1.096-8.816-.123-3.477-.041-7.274.124-10.795a230.616 230.616 0 01.93-12.396l20.276 4.617.11.025.112-.025 20.276-4.617.049.474a230.616 230.616 0 01.881 11.921c.165 3.522.247 7.32.123 10.796-.123 3.486-.452 6.614-1.095 8.815-1.76 6.026-6.83 10.252-11.544 12.987a44.837 44.837 0 01-6.238 2.982c-.825.319-1.503.553-1.973.706-.234.077-.417.134-.54.171z" stroke="#0079DD"/><rect x="28.167" y="16.5" width="7" height="10.2" rx="3.5" fill="#415465" fill-opacity=".2" stroke="#385168"/><path d="M24.167 34.048a4.748 4.748 0 014.747-4.748h5.505a4.748 4.748 0 014.748 4.748c0 .938-.616 1.765-1.514 2.034l-4.98 1.494a3.5 3.5 0 01-2.012 0l-4.98-1.494a2.124 2.124 0 01-1.514-2.034z" fill="#415465" fill-opacity=".2" stroke="#385168"/><path opacity=".5" stroke="#385168" d="M23.667 42.5L39.667 42.5M25.667 45.5L36.667 45.5M24.667 48.5L38.667 48.5"/></svg>