<svg width="171" height="190" fill="none" xmlns="http://www.w3.org/2000/svg"><g clip-path="url(#a)"><path d="M15.449 148.2l71.436 36.371L155.61 148.2V5.971H15.449V148.2z" fill="#fff"/><path d="M157.055 6.514L14.002 150.733l74.15 36.734 68.903-35.286V6.514z" fill="#F2F3F2"/><path d="M10.747 53.38v97.896l2.532 1.267 71.436 36.371 2.17 1.086 2.17-1.086 68.905-36.371 2.531-1.267V1.266H10.747v52.115zm4.702 95.182V5.972h140.34v142.59l-68.904 36.371-71.436-36.371z" fill="#DCDEDC"/><path d="M85.62 8.324c.723 0 1.446 0 2.17.18l-2.17 4.163c-3.256-.181-6.15 2.352-6.33 5.61-.181 3.256 2.35 6.151 5.606 6.332h.723a6.318 6.318 0 003.979-1.447l2.351 3.98a10.958 10.958 0 01-6.33 1.991c-5.787.181-10.67-4.162-10.85-9.952-.182-5.79 4.159-10.676 9.946-10.857h.904zm7.414 8.866l2.713 4.524-2.713 4.343-2.532-4.343h-5.245l2.713-4.524h5.064zm-4.34-1.628c0-.724.18-1.448.542-1.99.362-.543 1.085-1.086 1.628-1.448l.362-.181c.723-.362.904-.543.904-.905s-.543-.724-.904-.724c-.724 0-1.266.362-1.628 1.086l-.904-.905c.18-.362.542-.724.904-1.086.543-.361 1.085-.361 1.628-.361.542 0 1.266.18 1.627.542.362.362.724.905.724 1.448 0 .905-.543 1.629-1.628 1.99l-.543.362c-.542.362-.904.543-1.085 1.086h3.256v1.267l-4.883-.181zM85.619 38.18L102.8 28.41V1.267H68.257v26.962L85.62 38.18zm78.309 64.057H7.311l-5.788 12.667 5.788 12.666h156.617l5.606-12.666-5.606-12.667z" fill="#FF492C"/><path d="M35.325 94.095a.368.368 0 01-.272-.108.433.433 0 01-.108-.29V71.693c0-.108.036-.205.108-.29a.368.368 0 01.272-.108h3.816c.108 0 .199.036.27.109a.399.399 0 01.127.29v18.293c0 .11.055.163.163.163h10.634c.109 0 .205.037.29.109.072.084.108.18.108.29v3.148a.432.432 0 01-.108.29.432.432 0 01-.29.108h-15.01zm32.752-10.097c.132.82.175 1.743.126 2.769-.012.265-.15.398-.416.398H57.732c-.133 0-.175.054-.127.162.06.435.175.87.344 1.303.567 1.207 1.718 1.81 3.454 1.81 1.387-.012 2.484-.573 3.292-1.683.084-.133.18-.199.29-.199.072 0 .15.042.234.127L67.552 91c.109.108.163.205.163.29 0 .048-.042.138-.127.27-.71.881-1.633 1.57-2.767 2.064-1.12.482-2.357.724-3.707.724-1.869 0-3.448-.423-4.738-1.267-1.29-.845-2.219-2.027-2.785-3.547-.459-1.086-.688-2.509-.688-4.27 0-1.195.163-2.244.489-3.149.506-1.544 1.38-2.775 2.622-3.691 1.254-.905 2.737-1.358 4.449-1.358 2.17 0 3.912.628 5.226 1.882 1.315 1.255 2.11 2.938 2.388 5.049zm-7.578-2.968c-1.374 0-2.279.64-2.713 1.918-.084.29-.156.64-.217 1.05 0 .109.055.163.163.163h5.624c.133 0 .175-.054.127-.163a23.44 23.44 0 00-.163-.905c-.193-.651-.53-1.158-1.012-1.52-.495-.362-1.098-.543-1.809-.543zm17.054-3.944c1.411 0 2.67.247 3.78.742 1.11.482 1.971 1.152 2.586 2.008.615.845.923 1.785.923 2.823v11.038a.432.432 0 01-.109.29.368.368 0 01-.271.108h-3.816a.368.368 0 01-.271-.108.399.399 0 01-.127-.29V92.63c0-.06-.018-.102-.054-.126-.049-.024-.09-.006-.127.054-.916 1.194-2.381 1.791-4.394 1.791-1.7 0-3.069-.41-4.106-1.23-1.049-.82-1.573-2.039-1.573-3.655 0-1.665.59-2.962 1.772-3.89 1.17-.917 2.84-1.376 5.01-1.376h3.31c.108 0 .162-.054.162-.163v-.724c0-.711-.217-1.272-.651-1.683-.434-.398-1.085-.597-1.953-.597-.663 0-1.218.121-1.664.362-.446.242-.736.58-.868 1.014-.06.24-.2.35-.416.325l-3.943-.524c-.265-.049-.385-.145-.361-.29.084-.917.446-1.743 1.085-2.479s1.489-1.309 2.55-1.719c1.049-.422 2.224-.633 3.526-.633zm-.65 13.843c.928 0 1.717-.248 2.368-.742.651-.495.977-1.134.977-1.918v-1.177c0-.108-.054-.163-.163-.163h-2.333c-.976 0-1.742.187-2.296.561-.555.362-.832.881-.832 1.557 0 .59.205 1.05.614 1.375.41.338.965.507 1.664.507zM98.46 71.692c0-.108.036-.205.108-.29a.368.368 0 01.272-.108h3.815a.37.37 0 01.272.109.434.434 0 01.108.29v22.003a.434.434 0 01-.108.29.37.37 0 01-.272.108h-3.816a.368.368 0 01-.27-.108.433.433 0 01-.11-.29V92.63c0-.06-.023-.096-.072-.108a.126.126 0 00-.126.036c-.916 1.194-2.164 1.791-3.744 1.791-1.519 0-2.827-.422-3.924-1.266-1.097-.845-1.887-2.003-2.37-3.474-.361-1.134-.542-2.45-.542-3.945 0-1.544.193-2.89.579-4.035.506-1.4 1.296-2.504 2.369-3.312 1.073-.82 2.4-1.23 3.979-1.23 1.567 0 2.785.543 3.653 1.628.036.073.078.097.126.073.049-.025.073-.067.073-.127v-6.967zm-.688 17.317c.434-.796.651-1.894.651-3.293 0-1.448-.24-2.588-.723-3.42-.494-.844-1.218-1.267-2.17-1.267-1.025 0-1.796.423-2.315 1.267-.543.857-.814 2.009-.814 3.456 0 1.303.23 2.389.687 3.257.543.941 1.345 1.412 2.406 1.412.976 0 1.736-.47 2.278-1.412zm23.529-5.012c.133.82.175 1.743.127 2.769-.012.265-.151.398-.416.398h-10.055c-.133 0-.175.054-.127.162.06.435.175.87.344 1.303.566 1.207 1.718 1.81 3.454 1.81 1.386-.012 2.484-.573 3.291-1.683.085-.133.181-.199.29-.199.072 0 .15.042.235.127L120.777 91c.108.108.163.205.163.29 0 .048-.043.138-.127.27-.711.881-1.634 1.57-2.767 2.064-1.121.482-2.357.724-3.708.724-1.868 0-3.448-.423-4.738-1.267-1.29-.845-2.218-2.027-2.785-3.547-.458-1.086-.687-2.509-.687-4.27 0-1.195.163-2.244.488-3.149.506-1.544 1.381-2.775 2.622-3.691 1.254-.905 2.737-1.358 4.449-1.358 2.171 0 3.913.628 5.227 1.882 1.314 1.255 2.11 2.938 2.387 5.049zm-7.577-2.968c-1.375 0-2.279.64-2.713 1.918a7.79 7.79 0 00-.217 1.05c0 .109.054.163.163.163h5.624c.133 0 .175-.054.127-.163a24.237 24.237 0 00-.163-.905c-.193-.651-.531-1.158-1.013-1.52-.494-.362-1.097-.543-1.808-.543zm18.88-3.908c.784 0 1.399.15 1.845.452.181.097.247.26.199.489l-.687 3.727c-.012.254-.163.326-.452.217a3.614 3.614 0 00-1.14-.162c-.168 0-.404.024-.705.072-.784.06-1.447.344-1.989.85-.543.52-.814 1.2-.814 2.045v8.885a.43.43 0 01-.109.29.431.431 0 01-.289.108h-3.798a.431.431 0 01-.289-.108.43.43 0 01-.109-.29v-15.96c0-.108.036-.199.109-.271a.432.432 0 01.289-.109h3.798c.108 0 .205.036.289.109a.366.366 0 01.109.271v1.249c0 .06.018.102.054.126.048.024.084.012.109-.036.892-1.303 2.085-1.954 3.58-1.954z" fill="#252530"/><path d="M31.364 122.107c-.94 0-1.76-.151-2.46-.453-.699-.301-1.241-.723-1.627-1.266-.374-.543-.56-1.182-.56-1.918v-.453c0-.06.023-.114.071-.163a.196.196 0 01.145-.054h1.61c.06 0 .114.018.162.054a.267.267 0 01.055.163v.344c0 .555.247 1.013.741 1.375.494.374 1.17.561 2.026.561.735 0 1.29-.157 1.663-.47.374-.314.561-.718.561-1.213 0-.337-.102-.627-.307-.868-.205-.229-.495-.44-.868-.634-.386-.193-.959-.434-1.718-.723-.857-.314-1.55-.61-2.08-.887a3.75 3.75 0 01-1.32-1.14c-.362-.47-.543-1.062-.543-1.773 0-1.062.386-1.9 1.157-2.516.772-.615 1.803-.922 3.093-.922.904 0 1.706.156 2.405.47.688.314 1.224.754 1.61 1.321.386.555.579 1.2.579 1.936v.308c0 .06-.025.114-.073.163a.196.196 0 01-.144.054h-1.628a.196.196 0 01-.145-.054.227.227 0 01-.072-.163v-.199c0-.567-.23-1.044-.687-1.43-.47-.398-1.116-.597-1.935-.597-.663 0-1.176.139-1.538.416-.373.278-.56.67-.56 1.176 0 .362.096.658.29.887.192.229.481.434.867.615.386.193.983.435 1.79.724.857.326 1.544.621 2.062.887.507.265.947.633 1.32 1.104.362.482.543 1.079.543 1.791 0 1.086-.404 1.948-1.212 2.588-.795.639-1.886.959-3.273.959zm16.295-9.536c.928 0 1.657.277 2.188.832.518.567.778 1.351.778 2.352v5.99c0 .06-.019.108-.055.145a.225.225 0 01-.162.072h-1.646a.172.172 0 01-.145-.072.174.174 0 01-.072-.145v-5.555c0-.555-.145-.996-.434-1.321-.302-.326-.7-.489-1.194-.489s-.898.163-1.212.489c-.313.325-.47.76-.47 1.303v5.573c0 .06-.018.108-.054.145a.226.226 0 01-.163.072h-1.646a.225.225 0 01-.162-.072.198.198 0 01-.055-.145v-5.555c0-.555-.15-.996-.452-1.321-.301-.326-.699-.489-1.193-.489-.459 0-.838.133-1.14.398-.289.266-.458.627-.506 1.086v5.881c0 .06-.018.108-.054.145a.225.225 0 01-.163.072h-1.664a.172.172 0 01-.145-.072.174.174 0 01-.072-.145v-8.813c0-.06.024-.114.072-.162a.193.193 0 01.145-.055h1.664a.26.26 0 01.163.055.262.262 0 01.054.162v.598c0 .036.012.06.036.072.024.012.048 0 .072-.036.266-.338.591-.585.977-.742a3.344 3.344 0 011.32-.253c.591 0 1.11.12 1.556.361.446.242.79.592 1.03 1.05.037.048.079.048.127 0a2.484 2.484 0 011.103-1.068c.47-.229.995-.343 1.574-.343zm8.626 0c.76 0 1.429.132 2.008.398.578.265 1.025.627 1.338 1.085.313.471.47 1.002.47 1.593v6.098c0 .06-.018.108-.054.145a.225.225 0 01-.163.072H58.22a.172.172 0 01-.144-.072.174.174 0 01-.073-.145v-.579c0-.036-.012-.061-.036-.073-.024 0-.048.013-.072.037-.591.651-1.447.977-2.568.977-.905 0-1.646-.229-2.225-.688-.59-.458-.886-1.14-.886-2.045 0-.941.332-1.676.995-2.207.65-.519 1.573-.778 2.767-.778h1.935c.06 0 .09-.03.09-.091v-.434c0-.471-.138-.839-.416-1.104-.277-.253-.693-.38-1.248-.38-.458 0-.825.085-1.103.253-.29.157-.47.38-.542.67-.036.145-.12.205-.254.181l-1.754-.217a.387.387 0 01-.144-.055c-.049-.036-.067-.078-.055-.126.097-.736.495-1.339 1.194-1.81.687-.47 1.555-.705 2.604-.705zm-.434 7.871c.59 0 1.097-.157 1.52-.47.421-.314.632-.712.632-1.195v-.85c0-.061-.03-.091-.09-.091h-1.52c-.638 0-1.139.121-1.5.362-.374.241-.561.585-.561 1.032 0 .386.145.681.434.886.277.217.64.326 1.085.326zm6.565 1.52a.172.172 0 01-.145-.072.174.174 0 01-.072-.145v-12.233a.17.17 0 01.072-.144.17.17 0 01.145-.073h1.664c.06 0 .114.024.163.073a.194.194 0 01.054.144v12.233c0 .06-.018.108-.054.145a.226.226 0 01-.163.072h-1.664zm4.322 0a.172.172 0 01-.144-.072.174.174 0 01-.073-.145v-12.233a.17.17 0 01.073-.144.17.17 0 01.144-.073h1.664c.06 0 .115.024.163.073a.194.194 0 01.054.144v12.233c0 .06-.018.108-.054.145a.225.225 0 01-.163.072h-1.664zm14.993-6.605c-.072.036-.072.073 0 .109 1.23.579 1.845 1.574 1.845 2.986 0 1.146-.38 2.02-1.14 2.623-.771.591-1.772.887-3.002.887h-4.557a.172.172 0 01-.145-.072.174.174 0 01-.072-.145v-12.233a.17.17 0 01.072-.144.17.17 0 01.145-.073h4.413c1.314 0 2.326.284 3.038.851.711.567 1.067 1.423 1.067 2.569 0 1.267-.555 2.148-1.664 2.642zm-4.883-4.252c-.06 0-.09.03-.09.09v3.348c0 .06.03.09.09.09h2.442c.638 0 1.145-.15 1.519-.452.361-.314.542-.742.542-1.285 0-.555-.18-.995-.542-1.321-.374-.313-.88-.47-1.52-.47h-2.441zm2.586 9.029c.627 0 1.127-.168 1.501-.506.362-.338.543-.796.543-1.376 0-.591-.187-1.049-.56-1.375-.375-.338-.881-.506-1.52-.506h-2.55c-.06 0-.09.03-.09.09v3.583c0 .06.03.09.09.09h2.586zm11.575-7.202c0-.06.018-.114.054-.162a.26.26 0 01.163-.055h1.645a.26.26 0 01.163.055.262.262 0 01.054.162v8.813c0 .06-.018.108-.054.145a.225.225 0 01-.163.072h-1.645a.225.225 0 01-.163-.072.198.198 0 01-.054-.145v-.579c0-.036-.012-.061-.037-.073-.024-.012-.048 0-.072.037-.494.639-1.236.959-2.224.959-.917 0-1.682-.266-2.297-.797-.627-.53-.94-1.284-.94-2.261v-6.099c0-.06.018-.114.054-.162a.26.26 0 01.162-.055h1.664a.26.26 0 01.163.055.262.262 0 01.054.162v5.501c0 .567.151 1.02.452 1.358.29.337.7.506 1.23.506.543 0 .977-.169 1.302-.506.326-.338.489-.791.489-1.358v-5.501zm7.758 9.139c-.76 0-1.429-.115-2.007-.344-.567-.217-1.007-.525-1.32-.923a2.013 2.013 0 01-.47-1.303v-.163c0-.06.017-.114.053-.163a.265.265 0 01.163-.054h1.592c.06 0 .108.018.144.054a.227.227 0 01.073.163v.036c0 .302.162.567.488.797.338.217.76.325 1.266.325.482 0 .874-.096 1.176-.289.301-.205.452-.459.452-.76 0-.278-.127-.489-.38-.634-.241-.132-.64-.277-1.194-.434l-.687-.217a10.18 10.18 0 01-1.555-.579 3.062 3.062 0 01-1.067-.851c-.29-.349-.434-.802-.434-1.357 0-.844.331-1.514.994-2.008.663-.507 1.538-.76 2.623-.76.735 0 1.38.114 1.935.344.554.241.982.567 1.284.977a2.4 2.4 0 01.452 1.429.224.224 0 01-.072.163.199.199 0 01-.145.054h-1.537a.264.264 0 01-.163-.054.264.264 0 01-.054-.163c0-.313-.157-.573-.47-.778-.302-.217-.718-.326-1.248-.326-.47 0-.856.085-1.158.254-.29.181-.434.428-.434.742 0 .289.139.506.416.651.29.157.766.326 1.429.507l.398.108c.639.193 1.175.386 1.609.579.434.205.802.483 1.103.833.302.362.453.826.453 1.393 0 .857-.338 1.526-1.013 2.009-.675.494-1.574.742-2.695.742zm6.674-10.622c-.374 0-.682-.121-.923-.362s-.362-.549-.362-.923.121-.682.362-.923.549-.362.923-.362c.373 0 .681.121.922.362s.362.549.362.923-.121.682-.362.923-.549.362-.922.362zm-.869 10.513a.224.224 0 01-.162-.072.2.2 0 01-.055-.145v-8.831c0-.06.019-.108.055-.144a.221.221 0 01.162-.073h1.664a.17.17 0 01.145.073.171.171 0 01.072.144v8.831c0 .06-.024.108-.072.145a.172.172 0 01-.145.072h-1.664zm8.717-9.391c.977 0 1.755.289 2.333.868.591.579.887 1.369.887 2.371v5.935c0 .06-.025.108-.073.145a.171.171 0 01-.144.072h-1.664a.224.224 0 01-.163-.072.199.199 0 01-.054-.145v-5.501c0-.555-.157-1.007-.47-1.357-.314-.338-.73-.507-1.248-.507-.519 0-.941.169-1.266.507-.314.338-.471.784-.471 1.339v5.519c0 .06-.024.108-.072.145a.172.172 0 01-.145.072h-1.663a.224.224 0 01-.163-.072.199.199 0 01-.054-.145v-8.813c0-.06.018-.114.054-.162a.259.259 0 01.163-.055h1.663c.061 0 .109.018.145.055a.224.224 0 01.072.162v.58c0 .036.013.06.037.072.024.012.042 0 .054-.036.494-.652 1.242-.977 2.242-.977zm13.13 3.727c.048.302.073.64.073 1.014l-.019.56c0 .145-.072.218-.217.218h-5.66c-.06 0-.091.03-.091.09.037.398.091.67.163.814.29.869.995 1.309 2.116 1.321.82 0 1.471-.337 1.953-1.013.049-.072.109-.109.181-.109.048 0 .091.019.127.055l1.121.923c.109.084.127.181.054.289a3.68 3.68 0 01-1.501 1.231c-.615.289-1.302.434-2.061.434-.941 0-1.743-.211-2.406-.633-.651-.423-1.127-1.014-1.428-1.774-.278-.651-.416-1.556-.416-2.714 0-.7.072-1.267.217-1.701.241-.844.693-1.514 1.356-2.009.675-.482 1.483-.723 2.423-.723 2.376 0 3.714 1.242 4.015 3.727zm-4.015-1.918c-.446 0-.819.115-1.121.344-.289.217-.494.525-.615.923-.072.205-.12.47-.145.796-.024.06 0 .09.073.09h3.671c.06 0 .091-.03.091-.09a3.49 3.49 0 00-.109-.688c-.108-.434-.325-.772-.651-1.013-.313-.241-.711-.362-1.194-.362zm9.296 7.691c-.759 0-1.429-.115-2.007-.344-.567-.217-1.007-.525-1.321-.923a2.015 2.015 0 01-.47-1.303v-.163c0-.06.018-.114.054-.163a.268.268 0 01.163-.054h1.592c.06 0 .108.018.144.054a.225.225 0 01.073.163v.036c0 .302.163.567.488.797.338.217.76.325 1.266.325.482 0 .874-.096 1.176-.289.301-.205.452-.459.452-.76 0-.278-.127-.489-.38-.634-.241-.132-.639-.277-1.194-.434l-.687-.217a10.17 10.17 0 01-1.555-.579 3.057 3.057 0 01-1.067-.851c-.29-.349-.434-.802-.434-1.357 0-.844.331-1.514.994-2.008.663-.507 1.538-.76 2.623-.76.735 0 1.38.114 1.935.344.554.241.982.567 1.284.977a2.4 2.4 0 01.452 1.429.224.224 0 01-.072.163.199.199 0 01-.145.054h-1.537a.264.264 0 01-.163-.054.264.264 0 01-.054-.163c0-.313-.157-.573-.471-.778-.301-.217-.717-.326-1.247-.326-.471 0-.856.085-1.158.254-.289.181-.434.428-.434.742 0 .289.139.506.416.651.289.157.766.326 1.429.507l.398.108c.639.193 1.175.386 1.609.579.434.205.802.483 1.103.833.302.362.453.826.453 1.393 0 .857-.338 1.526-1.013 2.009-.675.494-1.574.742-2.695.742zm8.735 0c-.759 0-1.429-.115-2.007-.344-.567-.217-1.007-.525-1.32-.923a2.01 2.01 0 01-.471-1.303v-.163c0-.06.018-.114.055-.163a.263.263 0 01.162-.054h1.592c.06 0 .108.018.145.054a.228.228 0 01.072.163v.036c0 .302.163.567.488.797.338.217.76.325 1.266.325.482 0 .874-.096 1.176-.289.301-.205.452-.459.452-.76 0-.278-.127-.489-.38-.634-.241-.132-.639-.277-1.194-.434l-.687-.217a10.17 10.17 0 01-1.555-.579 3.057 3.057 0 01-1.067-.851c-.29-.349-.434-.802-.434-1.357 0-.844.331-1.514.994-2.008.664-.507 1.538-.76 2.623-.76.735 0 1.38.114 1.935.344.555.241.983.567 1.284.977a2.4 2.4 0 01.452 1.429.224.224 0 01-.072.163.197.197 0 01-.145.054h-1.537a.266.266 0 01-.163-.054.264.264 0 01-.054-.163c0-.313-.157-.573-.47-.778-.302-.217-.718-.326-1.248-.326-.471 0-.856.085-1.158.254-.289.181-.434.428-.434.742 0 .289.139.506.416.651.29.157.766.326 1.429.507l.398.108c.639.193 1.175.386 1.609.579.434.205.802.483 1.104.833.301.362.452.826.452 1.393 0 .857-.338 1.526-1.013 2.009-.675.494-1.574.742-2.695.742z" fill="#fff"/><path d="M74.027 136.782c0 .06-.025.109-.073.145a.172.172 0 01-.144.072h-5.914c-.06 0-.09.03-.09.091v2.804c0 .061.03.091.09.091h3.888c.06 0 .109.018.145.054a.226.226 0 01.072.163v1.755a.224.224 0 01-.072.163.196.196 0 01-.145.054h-3.888c-.06 0-.09.03-.09.091v4.994c0 .06-.019.109-.055.145a.225.225 0 01-.163.072h-2.116a.172.172 0 01-.144-.072.173.173 0 01-.073-.145v-12.232c0-.061.025-.109.073-.145a.172.172 0 01.144-.072h8.338c.06 0 .108.024.144.072a.171.171 0 01.073.145v1.755zm7.993 10.694c-.12 0-.199-.06-.235-.181l-.542-1.773c-.024-.048-.055-.072-.09-.072h-4.45c-.036 0-.066.024-.09.072l-.525 1.773c-.036.121-.114.181-.235.181h-2.297c-.072 0-.126-.024-.162-.072-.037-.036-.043-.097-.018-.181l3.906-12.232c.036-.121.115-.181.235-.181h2.84c.12 0 .198.06.234.181l3.907 12.232a.199.199 0 01.018.09c0 .109-.066.163-.199.163H82.02zm-4.756-4.107c-.012.072.012.108.072.108h3.183c.072 0 .097-.036.072-.108l-1.627-5.375c-.012-.048-.03-.072-.054-.072-.025.012-.043.036-.055.072l-1.591 5.375zm9.06 4.107a.172.172 0 01-.144-.072.173.173 0 01-.073-.145v-12.232c0-.061.025-.109.073-.145a.172.172 0 01.144-.072h2.117c.06 0 .114.024.162.072a.195.195 0 01.055.145v10.169c0 .061.03.091.09.091h5.914c.06 0 .114.018.162.054a.265.265 0 01.055.163v1.755c0 .06-.018.109-.055.145a.225.225 0 01-.162.072h-8.338zm10.345 0a.226.226 0 01-.163-.072.197.197 0 01-.054-.145v-12.232c0-.061.018-.109.054-.145a.226.226 0 01.163-.072h2.116c.06 0 .109.024.145.072a.171.171 0 01.072.145v10.169c0 .061.03.091.09.091h5.914c.061 0 .115.018.163.054a.266.266 0 01.054.163v1.755c0 .06-.018.109-.054.145a.224.224 0 01-.163.072h-8.337zm-27.037 14.712c-.024.024-.03.048-.018.072.012.024.036.036.072.036h4.901a.26.26 0 01.163.055.263.263 0 01.054.162v1.756c0 .06-.018.108-.054.144a.223.223 0 01-.163.073H66.45a.223.223 0 01-.163-.073.194.194 0 01-.054-.144v-1.665a.37.37 0 01.109-.272 46.146 46.146 0 001.808-1.881c.615-.688 1-1.116 1.157-1.285a23.78 23.78 0 011.031-1.14c1.097-1.219 1.646-2.123 1.646-2.715 0-.422-.15-.772-.452-1.049-.302-.265-.693-.398-1.176-.398-.482 0-.874.133-1.175.398-.302.277-.452.639-.452 1.086v.452c0 .06-.024.115-.073.163a.196.196 0 01-.144.054h-2.134a.196.196 0 01-.145-.054.225.225 0 01-.072-.163v-.85a3.16 3.16 0 01.615-1.738 3.619 3.619 0 011.482-1.14c.627-.265 1.327-.398 2.098-.398.856 0 1.604.157 2.243.471.627.326 1.115.76 1.465 1.303.337.543.506 1.146.506 1.809 0 .507-.126 1.026-.38 1.556-.253.531-.633 1.104-1.139 1.719a21.31 21.31 0 01-1.212 1.394c-.434.458-1.079 1.122-1.935 1.99l-.271.272zm11.05 2.497c-1.326 0-2.375-.374-3.147-1.122-.772-.736-1.157-1.743-1.157-3.022v-4.777c0-1.255.385-2.25 1.157-2.986.772-.736 1.82-1.104 3.147-1.104 1.326 0 2.381.368 3.165 1.104.772.736 1.157 1.731 1.157 2.986v4.777c0 1.279-.386 2.286-1.157 3.022-.784.748-1.839 1.122-3.165 1.122zm0-2.19c.543 0 .977-.169 1.302-.506.314-.326.47-.766.47-1.321v-4.977c0-.554-.156-.995-.47-1.32-.325-.338-.76-.507-1.302-.507-.53 0-.953.169-1.266.507-.325.325-.488.766-.488 1.32v4.977c0 .555.163.995.488 1.321.314.337.736.506 1.266.506zm9.386-.307c-.024.024-.03.048-.018.072.012.024.036.036.072.036h4.901a.26.26 0 01.163.055.262.262 0 01.054.162v1.756c0 .06-.018.108-.054.144a.223.223 0 01-.163.073h-8.138a.17.17 0 01-.145-.073.17.17 0 01-.072-.144v-1.665a.37.37 0 01.109-.272 46.147 46.147 0 001.808-1.881c.615-.688 1-1.116 1.158-1.285a23.78 23.78 0 011.03-1.14c1.098-1.219 1.646-2.123 1.646-2.715 0-.422-.15-.772-.452-1.049-.301-.265-.693-.398-1.175-.398-.483 0-.875.133-1.176.398-.301.277-.452.639-.452 1.086v.452c0 .06-.018.115-.054.163a.265.265 0 01-.163.054h-2.134a.196.196 0 01-.145-.054.226.226 0 01-.072-.163v-.85a3.159 3.159 0 01.615-1.738c.373-.494.874-.874 1.5-1.14.616-.265 1.309-.398 2.08-.398.857 0 1.604.157 2.243.471.627.326 1.115.76 1.465 1.303.338.543.506 1.146.506 1.809 0 .507-.126 1.026-.38 1.556-.253.531-.632 1.104-1.139 1.719-.374.471-.777.935-1.212 1.394-.433.458-1.079 1.122-1.935 1.99l-.27.272zm14.287-3.746c.241.555.362 1.194.362 1.918a4.93 4.93 0 01-.325 1.81 3.59 3.59 0 01-1.447 1.809c-.688.434-1.495.652-2.424.652-.916 0-1.718-.23-2.405-.688-.7-.459-1.2-1.08-1.501-1.864a5.15 5.15 0 01-.29-1.52c0-.145.073-.217.218-.217h2.134c.144 0 .217.072.217.217.048.398.114.694.199.887.108.313.289.555.542.724.241.181.531.271.868.271.675 0 1.14-.296 1.393-.887.169-.362.253-.784.253-1.266 0-.567-.09-1.032-.271-1.394-.278-.567-.742-.85-1.393-.85a.937.937 0 00-.416.108c-.145.085-.32.199-.524.344a.243.243 0 01-.145.055c-.072 0-.127-.037-.163-.109l-1.067-1.502a.221.221 0 01-.036-.127c0-.072.024-.132.072-.181l2.876-2.515c.024-.024.036-.048.036-.072-.012-.024-.036-.036-.072-.036h-4.25a.173.173 0 01-.145-.073.171.171 0 01-.072-.145v-1.755c0-.06.024-.108.072-.145a.172.172 0 01.145-.072h7.541c.061 0 .115.024.163.072a.199.199 0 01.054.145v1.991a.38.38 0 01-.126.271l-2.369 2.172c-.025.024-.031.048-.019.072 0 .024.025.036.073.036 1.049.205 1.796.826 2.242 1.864z" fill="#252530"/></g><defs><clipPath id="a"><path fill="#fff" transform="translate(.8)" d="M0 0H170V190H0z"/></clipPath></defs></svg>