<svg width="171" height="190" fill="none" xmlns="http://www.w3.org/2000/svg"><g clip-path="url(#a)"><path d="M15.249 148.117l71.436 36.351 68.724-36.351V5.968H15.249v142.149z" fill="#fff"/><path d="M156.855 6.51L13.802 150.65l74.15 36.713 68.903-35.266V6.511z" fill="#F2F3F2"/><path d="M10.547 53.351v97.84l2.532 1.266 71.436 36.351 2.17 1.086 2.17-1.086 68.905-36.351 2.532-1.266V1.266H10.547V53.35zm4.702 95.128V5.968h140.34v142.511L86.685 184.83 15.25 148.479z" fill="#DCDEDC"/><path d="M85.42 8.32c.723 0 1.446 0 2.17.18l-2.17 4.16c-3.256-.181-6.15 2.35-6.33 5.606-.181 3.255 2.35 6.149 5.606 6.33h.723a6.32 6.32 0 003.979-1.447l2.351 3.979a10.963 10.963 0 01-6.33 1.989c-5.787.18-10.67-4.16-10.85-9.947-.182-5.787 4.159-10.67 9.946-10.85h.904zm7.414 8.86l2.713 4.522-2.713 4.34-2.532-4.34h-5.244l2.712-4.521h5.064zm-4.34-1.627c0-.723.18-1.447.542-1.99.362-.542 1.085-1.084 1.628-1.446l.362-.18c.723-.363.904-.543.904-.905s-.543-.724-.904-.724c-.724 0-1.266.362-1.628 1.085l-.904-.904c.18-.361.542-.723.904-1.085.543-.362 1.085-.362 1.628-.362.542 0 1.266.181 1.627.543.362.362.724.904.724 1.447 0 .904-.543 1.627-1.628 1.99l-.542.36c-.543.363-.905.543-1.086 1.086h3.256v1.266l-4.883-.18zM85.419 38.16l17.181-9.766V1.265H68.058v26.947l17.361 9.947z" fill="#FF492C"/><path d="M163.728 102.181H7.111L1.323 114.84l5.788 12.66h156.617l5.606-12.66-5.606-12.659z" fill="#FFD200"/><path d="M60.263 75.053a.36.36 0 01.235.09c.06.073.09.151.09.236v2.658a.36.36 0 01-.09.235.36.36 0 01-.235.09h-4.865c-.084 0-.127.049-.127.145v15.21c0 .096-.03.175-.09.235a.36.36 0 01-.235.09h-3.183a.296.296 0 01-.217-.09.292.292 0 01-.109-.235v-15.21c0-.096-.042-.144-.126-.144h-4.72a.36.36 0 01-.236-.09.36.36 0 01-.09-.236V75.38a.36.36 0 01.09-.236.36.36 0 01.236-.09h13.672zm6.402 19.206c-1.52 0-2.821-.397-3.906-1.193-1.086-.796-1.827-1.881-2.225-3.255-.253-.845-.38-1.767-.38-2.768 0-1.06.127-2.019.38-2.875.422-1.338 1.17-2.387 2.243-3.147 1.097-.76 2.399-1.14 3.906-1.14 1.495 0 2.767.374 3.816 1.122 1.049.76 1.785 1.809 2.206 3.147.302.904.453 1.85.453 2.84 0 .976-.133 1.892-.398 2.748-.386 1.41-1.122 2.514-2.207 3.31-1.073.808-2.369 1.211-3.888 1.211zm0-3.273c.603 0 1.11-.18 1.52-.543.421-.361.723-.862.903-1.5a7.82 7.82 0 00.217-1.9c0-.76-.072-1.398-.217-1.917-.204-.614-.512-1.097-.922-1.446-.422-.338-.928-.507-1.52-.507-.614 0-1.126.17-1.536.507-.41.35-.706.832-.886 1.446-.145.422-.218 1.061-.218 1.917 0 .82.067 1.453.2 1.9.168.638.47 1.139.904 1.5.422.362.94.543 1.555.543zm21.503 3.273c-1.386 0-2.61-.27-3.671-.813a6.03 6.03 0 01-2.46-2.297c-.59-.989-.886-2.122-.886-3.4v-12.37a.36.36 0 01.09-.236.36.36 0 01.236-.09h3.165c.096 0 .174.03.235.09.072.073.108.151.108.236v12.406c0 .952.29 1.724.868 2.315.591.59 1.363.886 2.315.886.965 0 1.742-.295 2.333-.886.591-.59.886-1.363.886-2.315V75.379a.36.36 0 01.09-.236c.061-.06.14-.09.236-.09h3.165c.096 0 .175.03.235.09.06.073.09.151.09.236v12.37c0 1.278-.295 2.411-.886 3.4-.579.988-1.398 1.754-2.46 2.297-1.06.542-2.29.813-3.689.813zm15.499-.036c-1.206 0-2.26-.168-3.165-.506-.904-.338-1.61-.814-2.116-1.429a3.258 3.258 0 01-.741-2.098v-.271a.36.36 0 01.09-.235c.06-.06.139-.09.235-.09h3.021c.084 0 .156.03.217.09.072.072.108.15.108.235v.018c0 .41.217.754.651 1.03.446.278 1.001.417 1.664.417.627 0 1.127-.12 1.501-.362.374-.253.561-.554.561-.904 0-.326-.157-.573-.471-.742-.337-.156-.874-.325-1.609-.506-.844-.217-1.513-.428-2.008-.633-1.157-.398-2.08-.886-2.767-1.465-.687-.579-1.03-1.41-1.03-2.496 0-1.338.518-2.399 1.555-3.182 1.037-.784 2.417-1.176 4.141-1.176 1.158 0 2.171.18 3.039.542.868.374 1.543.899 2.025 1.574.482.663.724 1.423.724 2.279a.275.275 0 01-.109.217.296.296 0 01-.217.09h-2.912a.362.362 0 01-.235-.09.296.296 0 01-.09-.217c0-.398-.205-.736-.615-1.013-.398-.277-.934-.416-1.61-.416-.602 0-1.091.114-1.465.344-.373.217-.56.512-.56.886 0 .361.181.633.542.813.374.181.995.374 1.863.58l.687.162c.254.06.519.139.796.235 1.29.386 2.303.874 3.038 1.465.748.603 1.122 1.47 1.122 2.604 0 1.339-.531 2.382-1.592 3.129-1.061.748-2.483 1.121-4.268 1.121zm20.4-8.59c.109.687.145 1.453.109 2.297-.024.229-.145.343-.362.343h-8.373c-.109 0-.145.043-.109.127.06.362.157.723.289 1.085.471 1.013 1.435 1.52 2.894 1.52 1.157-.013 2.068-.483 2.731-1.411.072-.109.157-.163.253-.163.048 0 .109.036.181.108l1.953 1.917c.084.097.127.181.127.253 0 .037-.03.109-.091.218-.603.747-1.374 1.32-2.315 1.717-.94.41-1.971.615-3.092.615-1.556 0-2.87-.35-3.943-1.049-1.073-.71-1.844-1.7-2.315-2.965-.385-.905-.578-2.086-.578-3.545 0-1 .138-1.881.416-2.64.41-1.279 1.133-2.297 2.17-3.057 1.037-.76 2.273-1.14 3.707-1.14 1.809 0 3.262.525 4.359 1.574s1.76 2.448 1.989 4.196zm-6.312-2.46c-1.145 0-1.899.53-2.26 1.592a7.69 7.69 0 00-.199.868c0 .084.048.126.145.126h4.702c.108 0 .144-.042.108-.126a32.144 32.144 0 00-.144-.76c-.157-.542-.441-.964-.85-1.266-.41-.29-.911-.434-1.502-.434zm-63.135-32.3a.292.292 0 01-.108.235.296.296 0 01-.217.09h-8.916c-.084 0-.127.049-.127.145v4.196c0 .097.042.145.127.145h5.841a.36.36 0 01.235.09c.06.073.09.151.09.235v2.623c0 .096-.03.175-.09.235a.328.328 0 01-.235.108H45.38c-.084 0-.127.043-.127.127v4.395c0 .096.042.144.127.144h8.916c.084 0 .157.03.217.09.072.061.108.133.108.218v2.64a.291.291 0 01-.108.235.296.296 0 01-.217.09H41.744a.296.296 0 01-.217-.09.292.292 0 01-.109-.235V48.251c0-.084.036-.163.109-.235.06-.06.132-.09.217-.09h12.55c.085 0 .158.03.218.09.072.072.108.15.108.235v2.622zm7.976 1.881c1.17 0 2.218.205 3.147.615.916.41 1.633.965 2.152 1.664.506.711.76 1.5.76 2.369v9.187c0 .097-.03.175-.091.235a.318.318 0 01-.235.09h-3.165a.318.318 0 01-.235-.09.318.318 0 01-.09-.235v-.886c0-.06-.019-.096-.055-.109-.036-.024-.072-.005-.108.055-.76.989-1.984 1.483-3.672 1.483-1.41 0-2.544-.344-3.4-1.031-.88-.687-1.32-1.7-1.32-3.038 0-1.387.495-2.466 1.483-3.238.965-.771 2.351-1.157 4.16-1.157h2.785c.084 0 .126-.042.126-.127v-.596c0-.603-.18-1.074-.542-1.411-.362-.326-.904-.488-1.628-.488-.554 0-1.019.096-1.392.289-.374.205-.615.488-.724.85-.048.193-.169.283-.361.271l-3.274-.434c-.217-.036-.32-.12-.307-.253.084-.76.392-1.447.922-2.062.53-.615 1.236-1.09 2.116-1.428.868-.35 1.85-.525 2.948-.525zm-.56 11.538c.783 0 1.446-.21 1.989-.633.542-.422.813-.958.813-1.61v-.976c0-.084-.042-.126-.126-.126h-1.953c-.82 0-1.46.156-1.917.47-.459.301-.688.735-.688 1.302 0 .482.17.862.507 1.14.337.289.795.433 1.374.433zm14.883 2.804c-1.218 0-2.278-.17-3.183-.507-.904-.337-1.603-.814-2.098-1.428a3.21 3.21 0 01-.76-2.098v-.272c0-.084.037-.162.11-.235.06-.06.132-.09.216-.09h3.02c.097 0 .175.03.236.09.06.073.09.151.09.235v.018c0 .41.223.754.67 1.031.433.278.988.416 1.663.416.615 0 1.11-.12 1.483-.361.386-.254.579-.555.579-.905 0-.325-.163-.572-.488-.741-.326-.157-.863-.326-1.61-.507-.844-.217-1.513-.428-2.007-.633-1.158-.397-2.08-.886-2.767-1.465-.688-.578-1.031-1.41-1.031-2.495 0-1.339.524-2.4 1.573-3.183 1.037-.784 2.417-1.176 4.142-1.176 1.157 0 2.17.181 3.038.543.856.374 1.525.898 2.007 1.573.482.663.724 1.423.724 2.279 0 .084-.03.157-.09.217a.318.318 0 01-.236.09h-2.894a.318.318 0 01-.235-.09.296.296 0 01-.09-.217c0-.398-.205-.736-.615-1.013-.41-.277-.946-.416-1.61-.416-.602 0-1.097.115-1.483.344-.373.217-.56.512-.56.886 0 .362.187.633.56.814.362.18.983.374 1.863.579.193.048.416.102.67.162.253.06.524.139.813.236 1.29.385 2.303.874 3.039 1.464.735.603 1.103 1.471 1.103 2.605 0 1.338-.525 2.38-1.574 3.128-1.06.748-2.483 1.122-4.268 1.122zm10.11-15.698c-.615 0-1.127-.205-1.537-.615-.398-.398-.597-.904-.597-1.52 0-.638.199-1.157.597-1.555.397-.398.91-.596 1.537-.596.639 0 1.151.198 1.537.596.41.398.615.917.615 1.556 0 .615-.205 1.121-.615 1.519-.41.41-.922.615-1.537.615zM85.4 66.915a.36.36 0 01-.235-.09.318.318 0 01-.09-.236V53.28c0-.097.03-.175.09-.236a.36.36 0 01.235-.09h3.165c.096 0 .175.03.235.09s.09.14.09.236v13.31c0 .097-.03.175-.09.235a.318.318 0 01-.235.09h-3.165zm18.827-8.41c.108.687.144 1.453.108 2.297-.012.23-.126.344-.343.344h-8.392c-.108 0-.144.042-.108.126.06.362.162.724.307 1.085.47 1.013 1.423 1.52 2.858 1.52 1.157-.013 2.073-.483 2.749-1.411.072-.109.156-.163.253-.163.048 0 .108.036.181.109l1.953 1.917c.096.096.144.18.144.253 0 .036-.042.108-.126.217-.591.747-1.357 1.32-2.297 1.718-.94.41-1.971.615-3.093.615-1.555 0-2.869-.35-3.942-1.05-1.073-.71-1.85-1.7-2.333-2.965-.374-.904-.56-2.086-.56-3.545 0-1 .138-1.88.415-2.64.41-1.278 1.134-2.297 2.17-3.057 1.05-.76 2.285-1.139 3.708-1.139 1.808 0 3.261.525 4.358 1.573 1.098 1.05 1.761 2.448 1.99 4.196zm-6.33-2.46c-1.133 0-1.88.531-2.243 1.592a6.03 6.03 0 00-.18.868c0 .085.042.127.126.127h4.702c.097 0 .127-.042.091-.127a39.39 39.39 0 00-.127-.76c-.169-.542-.452-.964-.85-1.265-.41-.29-.916-.434-1.519-.434zm14.179 11.05c-1.218 0-2.279-.168-3.183-.506-.905-.337-1.604-.814-2.098-1.428a3.26 3.26 0 01-.742-2.098v-.272c0-.084.031-.162.091-.235.06-.06.138-.09.235-.09h3.002c.096 0 .175.03.235.09.06.073.091.151.091.235v.018c0 .41.223.754.669 1.031.446.278 1 .416 1.664.416.614 0 1.115-.12 1.501-.361.373-.254.56-.555.56-.905 0-.325-.163-.572-.488-.741-.326-.157-.856-.326-1.592-.507-.856-.217-1.525-.428-2.007-.633-1.157-.397-2.08-.886-2.767-1.465-.687-.578-1.031-1.41-1.031-2.495 0-1.339.519-2.4 1.555-3.183 1.037-.784 2.418-1.176 4.142-1.176 1.157 0 2.17.181 3.038.543.868.374 1.537.898 2.008 1.573.482.663.723 1.423.723 2.279 0 .084-.03.157-.09.217a.32.32 0 01-.235.09h-2.894a.316.316 0 01-.235-.09.298.298 0 01-.091-.217c0-.398-.205-.736-.614-1.013-.41-.277-.947-.416-1.61-.416-.603 0-1.091.115-1.465.344-.386.217-.579.512-.579.886 0 .362.187.633.561.814.374.18.995.374 1.863.579.193.048.416.102.669.162.253.06.524.139.814.236 1.29.385 2.303.874 3.038 1.464.748.603 1.121 1.471 1.121 2.605 0 1.338-.53 2.38-1.591 3.128-1.061.748-2.484 1.122-4.268 1.122zM128.1 55.72c0 .084-.03.157-.09.217a.293.293 0 01-.235.109h-2.605c-.084 0-.126.042-.126.126v5.751c0 .591.12 1.037.361 1.339.242.289.633.434 1.176.434h.904c.085 0 .157.03.217.09a.29.29 0 01.109.235v2.568c0 .205-.109.32-.326.344-.759.036-1.302.054-1.627.054-1.508 0-2.629-.247-3.364-.741-.748-.495-1.128-1.43-1.14-2.804v-7.27c0-.084-.048-.126-.144-.126h-1.538a.293.293 0 01-.235-.109.297.297 0 01-.09-.217v-2.423c0-.085.03-.163.09-.235a.32.32 0 01.235-.09h1.538c.096 0 .144-.05.144-.145v-3.22c0-.084.031-.162.091-.235.06-.06.138-.09.235-.09h3.038c.085 0 .157.03.217.09.073.073.109.15.109.235v3.22c0 .096.042.144.126.144h2.605a.32.32 0 01.235.09c.06.073.09.151.09.236v2.423z" fill="#252530"/><path d="M52.577 110.826c0 .06-.018.108-.054.144a.227.227 0 01-.163.073h-6.167c-.06 0-.09.03-.09.09v3.382c0 .06.03.09.09.09h4.141a.26.26 0 01.163.055.262.262 0 01.054.162v1.375c0 .06-.018.114-.054.163a.265.265 0 01-.163.054h-4.141c-.06 0-.09.03-.09.09v3.491c0 .06.03.09.09.09h6.167c.06 0 .114.024.163.072a.198.198 0 01.054.145v1.375c0 .06-.018.108-.054.144a.223.223 0 01-.163.073H44.22a.17.17 0 01-.144-.073.17.17 0 01-.073-.144v-12.226c0-.06.025-.108.073-.145a.172.172 0 01.144-.072h8.139c.06 0 .114.024.163.072a.198.198 0 01.054.145v1.375zm6.366 1.681c.976 0 1.76.29 2.35.869.58.578.869 1.368.869 2.369v5.932a.17.17 0 01-.072.144.17.17 0 01-.145.073H60.28a.223.223 0 01-.163-.073.194.194 0 01-.054-.144v-5.498c0-.555-.157-1.007-.47-1.357-.314-.337-.73-.506-1.248-.506-.519 0-.94.169-1.266.506-.314.338-.47.784-.47 1.339v5.516c0 .06-.018.108-.054.144a.223.223 0 01-.163.073h-1.664a.17.17 0 01-.145-.073.17.17 0 01-.072-.144v-8.808c0-.06.024-.114.072-.163a.196.196 0 01.145-.054h1.664c.06 0 .114.018.163.054a.268.268 0 01.054.163v.579c0 .036.012.06.036.072.024.012.042 0 .054-.036.494-.651 1.242-.977 2.243-.977zm10.308 1.628c0 .06-.024.109-.072.145a.172.172 0 01-.145.072H67.19c-.06 0-.09.03-.09.091v4.358c0 .458.096.79.29.995.204.205.524.307.958.307h.543c.06 0 .108.018.144.054a.227.227 0 01.072.163v1.357c0 .132-.072.211-.216.235l-.94.018c-.953 0-1.665-.163-2.135-.488-.47-.326-.711-.941-.723-1.845v-5.154c0-.061-.03-.091-.09-.091H63.97a.225.225 0 01-.162-.072.196.196 0 01-.055-.145v-1.266c0-.06.018-.114.055-.163a.265.265 0 01.162-.054h1.031c.06 0 .09-.03.09-.09v-2.116c0-.061.019-.115.055-.163a.265.265 0 01.163-.054h1.573c.06 0 .109.018.145.054a.224.224 0 01.072.163v2.116c0 .06.03.09.09.09h1.845c.06 0 .109.018.145.054a.227.227 0 01.072.163v1.266zm9.477 2.098c.048.301.072.639.072 1.013l-.018.56c0 .145-.072.217-.217.217h-5.66c-.06 0-.091.031-.091.091.036.398.09.669.163.814.29.868.994 1.308 2.116 1.32.82 0 1.47-.338 1.953-1.013.048-.072.108-.108.18-.108.049 0 .091.018.127.054l1.122.922c.108.085.126.181.054.29-.374.53-.868.94-1.483 1.229-.627.29-1.32.434-2.08.434-.94 0-1.742-.211-2.405-.633-.651-.422-1.128-1.012-1.429-1.772-.277-.651-.416-1.555-.416-2.713 0-.699.072-1.266.217-1.7.241-.844.7-1.513 1.375-2.007.663-.482 1.464-.724 2.405-.724 2.375 0 3.713 1.242 4.015 3.726zm-4.015-1.917c-.446 0-.82.115-1.121.344-.29.217-.495.524-.615.922-.073.205-.12.47-.145.796-.024.06 0 .09.072.09h3.672c.06 0 .09-.03.09-.09a3.416 3.416 0 00-.108-.688c-.109-.434-.32-.771-.633-1.012-.326-.241-.73-.362-1.212-.362zm10.308-1.772c.386 0 .724.078 1.013.235.097.048.133.138.109.271l-.308 1.628c-.012.144-.096.187-.253.126-.18-.06-.392-.09-.633-.09-.157 0-.277.006-.362.018-.506.024-.928.199-1.266.524-.337.338-.506.772-.506 1.303v5.118c0 .06-.018.108-.054.144a.223.223 0 01-.163.073h-1.664a.17.17 0 01-.144-.073.17.17 0 01-.073-.144v-8.808c0-.06.024-.114.073-.163a.196.196 0 01.144-.054h1.664c.06 0 .115.018.163.054a.268.268 0 01.054.163v.814c0 .048.006.072.018.072.024.012.048 0 .072-.036.507-.784 1.212-1.175 2.116-1.175zm10.327 2.495c.217.615.326 1.369.326 2.261 0 .856-.103 1.592-.308 2.206-.265.796-.687 1.417-1.266 1.863-.59.446-1.332.669-2.224.669-.856 0-1.544-.307-2.062-.922-.024-.024-.048-.03-.072-.018-.025.012-.037.036-.037.072v3.925c0 .06-.018.108-.054.144a.223.223 0 01-.163.073h-1.663a.17.17 0 01-.145-.073.17.17 0 01-.072-.144v-12.226c0-.06.024-.114.072-.163a.196.196 0 01.145-.054h1.663c.06 0 .115.018.163.054a.267.267 0 01.055.163v.543c0 .036.011.06.036.072.024.012.048 0 .072-.036.53-.627 1.224-.941 2.08-.941.856 0 1.58.224 2.17.67.59.446 1.019 1.067 1.284 1.862zm-2.351 4.431c.362-.554.543-1.29.543-2.206 0-.88-.145-1.574-.434-2.08-.338-.591-.85-.886-1.538-.886-.627 0-1.097.289-1.41.868-.278.47-.416 1.169-.416 2.098 0 .952.15 1.676.452 2.17.313.531.765.796 1.356.796.64 0 1.121-.253 1.447-.76zm9.006-6.926c.386 0 .724.078 1.013.235.097.048.133.138.109.271l-.308 1.628c-.012.144-.096.187-.253.126a2.014 2.014 0 00-.633-.09c-.157 0-.277.006-.362.018-.506.024-.928.199-1.266.524-.337.338-.506.772-.506 1.303v5.118c0 .06-.018.108-.054.144a.223.223 0 01-.163.073h-1.664a.17.17 0 01-.145-.073.17.17 0 01-.072-.144v-8.808c0-.06.024-.114.072-.163a.196.196 0 01.145-.054h1.664c.06 0 .115.018.163.054a.267.267 0 01.054.163v.814c0 .048.006.072.018.072.024.012.048 0 .072-.036.507-.784 1.212-1.175 2.116-1.175zm3.69-1.158c-.374 0-.682-.12-.923-.361-.241-.242-.361-.549-.361-.923s.12-.681.361-.922.549-.362.923-.362c.373 0 .681.121.922.362s.362.548.362.922-.121.681-.362.923c-.241.241-.549.361-.922.361zm-.868 10.508a.17.17 0 01-.145-.073.171.171 0 01-.072-.144v-8.826c0-.06.024-.108.072-.145a.172.172 0 01.145-.072h1.663c.061 0 .115.024.163.072a.199.199 0 01.054.145v8.826c0 .06-.018.108-.054.144a.222.222 0 01-.163.073h-1.663zm7.722.108c-.76 0-1.429-.114-2.008-.343-.566-.217-1.006-.525-1.32-.923a2.014 2.014 0 01-.47-1.302v-.163c0-.06.018-.114.054-.162a.263.263 0 01.163-.055h1.592c.06 0 .114.018.162.055a.258.258 0 01.055.162v.036c0 .302.162.567.488.796.337.217.759.326 1.266.326.482 0 .874-.097 1.175-.29.302-.205.453-.458.453-.759 0-.277-.127-.488-.38-.633-.241-.133-.639-.277-1.194-.434l-.687-.217a10.17 10.17 0 01-1.555-.579 3.055 3.055 0 01-1.067-.85c-.29-.35-.435-.802-.435-1.356 0-.844.332-1.513.995-2.008.663-.506 1.537-.759 2.623-.759.735 0 1.38.114 1.935.343.554.241.982.567 1.284.977a2.4 2.4 0 01.452 1.429c0 .06-.018.114-.054.162a.263.263 0 01-.163.055h-1.537a.259.259 0 01-.163-.055.263.263 0 01-.054-.162c0-.314-.151-.573-.453-.778-.313-.217-.735-.326-1.266-.326-.47 0-.85.085-1.139.254-.301.18-.452.428-.452.741 0 .289.139.506.416.651.289.157.765.326 1.429.507l.397.108c.64.193 1.176.386 1.61.579.434.205.802.482 1.103.832.302.361.452.826.452 1.392 0 .856-.337 1.525-1.012 2.008-.676.494-1.574.741-2.695.741zm13.274-5.769c.049.301.073.639.073 1.013l-.018.56c0 .145-.073.217-.217.217h-5.661c-.06 0-.09.031-.09.091.036.398.09.669.162.814.29.868.995 1.308 2.116 1.32.82 0 1.471-.338 1.953-1.013.049-.072.109-.108.181-.108.049 0 .091.018.127.054l1.121.922c.109.085.127.181.054.29-.373.53-.874.94-1.501 1.229-.614.29-1.302.434-2.061.434-.941 0-1.742-.211-2.406-.633-.651-.422-1.127-1.012-1.428-1.772-.278-.651-.416-1.555-.416-2.713 0-.699.072-1.266.217-1.7.241-.844.693-1.513 1.356-2.007.675-.482 1.483-.724 2.424-.724 2.375 0 3.713 1.242 4.014 3.726zm-4.014-1.917c-.447 0-.82.115-1.122.344-.289.217-.494.524-.615.922-.072.205-.12.47-.144.796-.024.06 0 .09.072.09h3.671c.061 0 .091-.03.091-.09a3.417 3.417 0 00-.109-.688c-.108-.434-.325-.771-.651-1.012-.313-.241-.711-.362-1.193-.362z" fill="#242530"/><path d="M73.827 136.705a.171.171 0 01-.073.145.172.172 0 01-.144.072h-5.914c-.06 0-.09.031-.09.091v2.803c0 .06.03.09.09.09h3.888c.06 0 .109.019.145.055a.223.223 0 01.072.162v1.755c0 .06-.024.114-.072.163a.196.196 0 01-.145.054h-3.888c-.06 0-.09.03-.09.09v4.992c0 .06-.019.108-.055.144a.223.223 0 01-.163.073h-2.116a.17.17 0 01-.144-.073.17.17 0 01-.073-.144v-12.226c0-.06.024-.108.073-.145a.172.172 0 01.144-.072h8.338c.06 0 .108.024.144.072a.174.174 0 01.073.145v1.754zm7.993 10.689c-.12 0-.199-.061-.235-.181l-.542-1.772c-.025-.049-.055-.073-.09-.073h-4.45c-.036 0-.066.024-.09.073l-.525 1.772c-.036.12-.114.181-.235.181h-2.297c-.072 0-.126-.024-.162-.073-.037-.036-.043-.096-.018-.18l3.906-12.226c.036-.121.115-.181.235-.181h2.84c.12 0 .198.06.235.181l3.906 12.226a.2.2 0 01.018.09c0 .108-.066.163-.199.163H81.82zm-4.756-4.106c-.012.073.012.109.072.109h3.183c.073 0 .097-.036.073-.109l-1.628-5.371c-.012-.048-.03-.072-.054-.072-.024.012-.042.036-.055.072l-1.591 5.371zm9.06 4.106a.17.17 0 01-.144-.073.17.17 0 01-.073-.144v-12.226c0-.06.025-.108.073-.145a.172.172 0 01.145-.072h2.115c.06 0 .115.024.163.072a.198.198 0 01.054.145v10.164c0 .06.03.09.091.09h5.914a.26.26 0 01.163.055.263.263 0 01.054.162v1.755c0 .06-.018.108-.054.144a.223.223 0 01-.163.073h-8.337zm10.345 0a.223.223 0 01-.162-.073.194.194 0 01-.055-.144v-12.226c0-.06.018-.108.055-.145a.225.225 0 01.162-.072h2.116c.06 0 .109.024.145.072a.174.174 0 01.072.145v10.164c0 .06.03.09.09.09h5.914c.061 0 .115.018.163.055a.264.264 0 01.055.162v1.755c0 .06-.019.108-.055.144a.222.222 0 01-.163.073h-8.337zm-27.037 14.703c-.024.024-.03.048-.018.072.012.024.036.036.072.036h4.901a.26.26 0 01.163.055.262.262 0 01.054.162v1.755c0 .06-.018.108-.054.144a.223.223 0 01-.163.073H66.25a.223.223 0 01-.163-.073.194.194 0 01-.054-.144v-1.664c0-.109.036-.199.109-.271a46.146 46.146 0 001.808-1.881c.615-.688 1-1.116 1.157-1.284.338-.398.682-.778 1.031-1.14 1.097-1.217 1.646-2.122 1.646-2.712 0-.422-.15-.772-.452-1.049-.302-.266-.693-.398-1.176-.398-.482 0-.874.132-1.175.398-.302.277-.452.639-.452 1.085v.452c0 .06-.024.114-.073.163a.196.196 0 01-.144.054h-2.134a.196.196 0 01-.145-.054.227.227 0 01-.072-.163v-.85c.036-.651.24-1.23.615-1.736a3.61 3.61 0 011.483-1.14c.626-.265 1.326-.398 2.097-.398.856 0 1.604.157 2.243.471.627.325 1.115.759 1.465 1.302.338.542.506 1.145.506 1.808 0 .507-.126 1.025-.38 1.556-.253.53-.633 1.103-1.139 1.718-.374.47-.778.934-1.212 1.392-.434.458-1.079 1.122-1.935 1.99l-.271.271zm11.05 2.496c-1.326 0-2.375-.374-3.147-1.122-.771-.735-1.157-1.742-1.157-3.02v-4.774c0-1.254.386-2.249 1.157-2.984.772-.736 1.82-1.104 3.147-1.104 1.326 0 2.381.368 3.165 1.104.771.735 1.157 1.73 1.157 2.984v4.774c0 1.278-.386 2.285-1.157 3.02-.784.748-1.839 1.122-3.165 1.122zm0-2.189c.543 0 .977-.168 1.302-.506.314-.326.47-.766.47-1.32v-4.974c0-.554-.156-.994-.47-1.32-.325-.337-.76-.506-1.302-.506-.53 0-.953.169-1.266.506-.325.326-.488.766-.488 1.32v4.974c0 .554.163.994.488 1.32.314.338.736.506 1.266.506zm9.386-.307c-.024.024-.03.048-.018.072.012.024.036.036.072.036h4.901a.26.26 0 01.163.055.263.263 0 01.054.162v1.755c0 .06-.018.108-.054.144a.223.223 0 01-.163.073h-8.138a.17.17 0 01-.145-.073.17.17 0 01-.072-.144v-1.664c0-.109.036-.199.109-.271a46.146 46.146 0 001.808-1.881c.615-.688 1-1.116 1.158-1.284.337-.398.68-.778 1.03-1.14 1.098-1.217 1.646-2.122 1.646-2.712 0-.422-.15-.772-.452-1.049-.301-.266-.693-.398-1.175-.398-.483 0-.874.132-1.176.398-.301.277-.452.639-.452 1.085v.452c0 .06-.018.114-.054.163a.266.266 0 01-.163.054h-2.134a.196.196 0 01-.145-.054.227.227 0 01-.072-.163v-.85c.036-.651.241-1.23.615-1.736.374-.495.874-.874 1.5-1.14.616-.265 1.309-.398 2.08-.398.857 0 1.604.157 2.243.471.627.325 1.115.759 1.465 1.302.338.542.506 1.145.506 1.808 0 .507-.126 1.025-.38 1.556-.253.53-.632 1.103-1.139 1.718-.374.47-.777.934-1.211 1.392-.434.458-1.08 1.122-1.936 1.99l-.27.271zm14.287-3.744c.242.555.362 1.194.362 1.917 0 .651-.108 1.254-.325 1.809a3.593 3.593 0 01-1.447 1.808c-.687.434-1.495.651-2.424.651-.916 0-1.718-.229-2.405-.687a3.806 3.806 0 01-1.501-1.863 5.142 5.142 0 01-.29-1.519c0-.144.073-.217.218-.217h2.134c.144 0 .217.073.217.217.048.398.114.693.199.886.108.314.289.555.542.724.241.181.53.271.868.271.675 0 1.14-.295 1.393-.886.169-.362.253-.784.253-1.266 0-.567-.09-1.031-.271-1.393-.278-.566-.742-.85-1.393-.85a.937.937 0 00-.416.109c-.144.084-.32.199-.524.344a.241.241 0 01-.145.054c-.072 0-.127-.036-.163-.109l-1.067-1.501a.221.221 0 01-.036-.126c0-.073.024-.133.073-.181l2.875-2.514c.024-.024.036-.048.036-.072-.012-.025-.036-.037-.072-.037h-4.25a.172.172 0 01-.145-.072.171.171 0 01-.072-.145v-1.754c0-.06.024-.108.072-.145a.172.172 0 01.145-.072h7.541c.061 0 .115.024.163.072a.199.199 0 01.054.145v1.99a.382.382 0 01-.126.271l-2.369 2.17c-.025.024-.031.048-.018.072 0 .024.024.037.072.037 1.049.204 1.796.825 2.242 1.862z" fill="#252530"/></g><defs><clipPath id="a"><path fill="#fff" transform="translate(.6)" d="M0 0H170V189.894H0z"/></clipPath></defs></svg>