<svg width="171" height="190" fill="none" xmlns="http://www.w3.org/2000/svg"><g clip-path="url(#a)"><path d="M159.67 148.582L84.9 187l-74.77-38.418V0h149.54v148.582z" fill="#F8F8F8"/><path d="M9 0v151.582L161.227 0H9z" fill="#fff"/><path d="M9.164 52.114v97.896l2.58 1.266 72.76 36.372 2.21 1.085 2.21-1.085 70.182-36.372 2.578-1.266V0H9.164v52.114zm4.79 95.181V4.705h142.941v142.59l-70.181 36.372-72.76-36.372z" fill="#DCDEDC"/><path d="M102.954 27.101L85.248 37.226 67.846 27.1V0h35.108v27.101z" fill="#FF3100"/><path d="M93.854 13.407h-3.296c.089-.51.407-.793 1.057-1.119l.608-.304c1.086-.548 1.663-1.166 1.663-2.175 0-.637-.249-1.138-.748-1.501-.488-.364-1.087-.54-1.774-.54-.548 0-1.045.138-1.504.42-.449.276-.787.628-.997 1.07l.956.94c.37-.736.907-1.097 1.615-1.097.598 0 .965.304.965.724 0 .354-.178.646-.866.99l-.389.186c-.847.42-1.436.902-1.774 1.451-.338.54-.51 1.235-.51 2.069v.225h4.992v-1.344l.002.005zm-.441 2.895H87.95l-2.73 4.653h5.462l2.73 4.655 2.732-4.655-2.732-4.653z" fill="#fff"/><path d="M85.692 24.059c-3.478 0-6.307-2.784-6.307-6.206 0-3.423 2.829-6.206 6.307-6.206l2.16-4.446a11.325 11.325 0 00-2.16-.21c-6.094 0-11.035 4.863-11.035 10.86 0 5.996 4.94 10.858 11.035 10.858 2.43 0 4.675-.774 6.5-2.083L89.8 22.551a6.337 6.337 0 01-4.108 1.503v.005z" fill="#fff"/><path d="M164.994 119.142H5.806L.4 105.842l5.406-13.3h159.188l5.406 13.3-5.406 13.3z" fill="#FF3100"/><path d="M33.992 134.765c0 .019.012.033.036.045.55.285.825.767.825 1.441 0 .608-.212 1.062-.64 1.359-.427.297-.984.446-1.677.446h-2.409a.16.16 0 01-.12-.045.154.154 0 01-.046-.119v-6.056c0-.047.014-.088.046-.119a.165.165 0 01.12-.045h2.337c.753 0 1.322.14 1.709.421.386.28.579.734.579 1.358 0 .625-.242 1.019-.724 1.268-.024.012-.036.029-.036.046zm-2.494-1.734v1.114c0 .042.022.064.066.064h.897c.254 0 .45-.052.584-.159a.543.543 0 00.203-.452.572.572 0 00-.203-.465c-.135-.109-.33-.164-.584-.164h-.897c-.044 0-.066.021-.066.064v-.002zm1.613 3.553c.135-.112.202-.276.202-.487 0-.211-.067-.366-.2-.48-.133-.111-.326-.168-.58-.168h-.972c-.043 0-.065.021-.065.064v1.175c0 .043.022.064.065.064h.973c.246 0 .439-.057.574-.168h.003zm7.36-3.662a.165.165 0 01-.12.045h-2.836c-.043 0-.065.021-.065.064v1.085c0 .043.022.064.065.064h1.789c.05 0 .089.015.12.045a.157.157 0 01.046.119v.957c0 .05-.014.088-.046.119a.161.161 0 01-.12.045h-1.789c-.043 0-.065.022-.065.064v1.169c0 .043.022.064.065.064h2.836c.049 0 .09.014.12.045a.157.157 0 01.047.119v.966c0 .05-.015.088-.046.119a.161.161 0 01-.12.045h-4.273a.16.16 0 01-.12-.045.153.153 0 01-.046-.119v-6.056c0-.047.014-.088.046-.119a.165.165 0 01.12-.045h4.272c.049 0 .09.015.12.045a.157.157 0 01.047.119v.967c0 .05-.015.088-.046.119zm2.036 4.966a1.938 1.938 0 01-.867-.694 1.825 1.825 0 01-.306-1.045v-.119c0-.047.014-.087.045-.118a.16.16 0 01.121-.045h1.178c.05 0 .09.011.12.03.032.022.046.048.046.079v.109c0 .195.102.368.302.52.2.152.459.228.775.228.273 0 .473-.057.603-.173a.527.527 0 00.196-.402.428.428 0 00-.227-.391c-.152-.091-.422-.198-.811-.319l-.203-.064a7.394 7.394 0 01-1.038-.415 2.278 2.278 0 01-.76-.62c-.21-.264-.316-.592-.316-.981 0-.39.101-.708.302-.991.2-.282.477-.501.835-.653a3.043 3.043 0 011.209-.228c.475 0 .903.086 1.284.257.379.171.678.411.895.719.218.312.324.665.324 1.067v.073c0 .05-.015.088-.046.119a.161.161 0 01-.12.045h-1.179a.261.261 0 01-.12-.023.073.073 0 01-.046-.069v-.083c0-.214-.097-.402-.287-.566-.191-.164-.45-.247-.77-.247-.242 0-.43.05-.565.145a.479.479 0 00-.203.411c0 .133.044.245.13.333.087.087.222.171.404.247.18.076.46.175.84.296.431.145.77.274 1.01.383.242.109.469.287.681.534.213.247.321.57.321.972 0 .401-.101.719-.306 1.007a1.95 1.95 0 01-.862.669 3.222 3.222 0 01-1.279.238c-.483 0-.93-.081-1.303-.242l-.008.007zm9.449-6.171a.157.157 0 01.045.119v.976c0 .05-.014.088-.045.119a.161.161 0 01-.121.045h-1.547c-.044 0-.065.022-.065.064v4.852c0 .05-.015.088-.046.119a.161.161 0 01-.121.045h-1.204a.161.161 0 01-.121-.045.154.154 0 01-.046-.119v-4.852c0-.042-.022-.064-.065-.064h-1.492a.161.161 0 01-.12-.045.158.158 0 01-.046-.119v-.976c0-.047.014-.088.046-.119a.165.165 0 01.12-.045h4.71c.05 0 .088.015.12.045h-.002zM56 137.888a1.938 1.938 0 01-.867-.694 1.825 1.825 0 01-.306-1.045v-.119c0-.047.014-.087.045-.118a.16.16 0 01.121-.045h1.178c.05 0 .09.011.12.03.032.022.047.048.047.079v.109c0 .195.1.368.301.52.2.152.459.228.775.228.273 0 .473-.057.603-.173a.527.527 0 00.196-.402.428.428 0 00-.227-.391c-.152-.091-.422-.198-.811-.319l-.203-.064a7.394 7.394 0 01-1.038-.415 2.278 2.278 0 01-.76-.62c-.21-.264-.316-.592-.316-.981 0-.39.101-.708.302-.991.2-.282.478-.501.835-.653a3.043 3.043 0 011.209-.228c.475 0 .903.086 1.284.257.379.171.678.411.895.719.218.312.324.665.324 1.067v.073c0 .05-.015.088-.046.119a.161.161 0 01-.12.045h-1.179a.261.261 0 01-.12-.023.073.073 0 01-.046-.069v-.083c0-.214-.097-.402-.287-.566-.191-.164-.45-.247-.77-.247-.242 0-.43.05-.565.145a.479.479 0 00-.203.411c0 .133.044.245.13.333.087.087.223.171.404.247.18.076.46.175.84.296.432.145.77.274 1.01.383.242.109.47.287.681.534.213.247.322.57.322.972 0 .401-.102.719-.307 1.007a1.95 1.95 0 01-.862.669 3.222 3.222 0 01-1.279.238c-.483 0-.93-.081-1.303-.242l-.007.007zm5.828-.026a2.146 2.146 0 01-.886-.834 2.425 2.425 0 01-.316-1.249v-1.824c0-.463.106-.872.316-1.226a2.16 2.16 0 01.886-.829c.38-.197.82-.297 1.32-.297.5 0 .942.1 1.326.297.383.197.68.475.89.829.21.354.316.765.316 1.226v1.824c0 .475-.106.89-.316 1.249-.21.359-.507.636-.89.834-.384.197-.826.296-1.325.296-.5 0-.942-.099-1.32-.296zm2.04-1.283c.18-.188.272-.442.272-.758v-1.888c0-.311-.091-.56-.272-.753-.184-.192-.423-.287-.72-.287-.296 0-.526.095-.71.287-.182.193-.272.442-.272.753v1.888c0 .316.092.568.273.758a.941.941 0 00.71.283.967.967 0 00.719-.283zm7.4-3.657a.165.165 0 01-.121.045h-2.826c-.044 0-.066.021-.066.064v1.085c0 .043.022.064.066.064h1.788c.05 0 .09.015.12.045a.157.157 0 01.047.119v.957c0 .05-.015.088-.046.119a.161.161 0 01-.12.045h-1.79c-.043 0-.064.022-.064.064v2.363c0 .05-.015.088-.046.119a.161.161 0 01-.121.045h-1.204a.16.16 0 01-.121-.045.154.154 0 01-.046-.119v-6.056c0-.047.015-.088.046-.119a.165.165 0 01.12-.045h4.263c.05 0 .09.015.12.045a.157.157 0 01.046.119v.967c0 .05-.014.088-.045.119zm5.599-1.205a.157.157 0 01.046.119v.976c0 .05-.015.088-.046.119a.16.16 0 01-.12.045H75.2c-.043 0-.065.022-.065.064v4.852c0 .05-.014.088-.046.119a.161.161 0 01-.12.045h-1.205a.16.16 0 01-.12-.045.153.153 0 01-.046-.119v-4.852c0-.042-.022-.064-.066-.064h-1.491a.161.161 0 01-.12-.045.158.158 0 01-.047-.119v-.976c0-.047.015-.088.046-.119a.165.165 0 01.121-.045h4.709c.05 0 .09.015.12.045h-.002zm2.223 6.204l-1.697-6.066a.11.11 0 01-.01-.054c0-.086.049-.129.148-.129h1.298a.2.2 0 01.126.041.16.16 0 01.06.104l.78 3.221c.012.023.026.035.04.035.015 0 .027-.012.032-.035l.75-3.221c.02-.097.08-.145.187-.145h1.102c.1 0 .162.05.186.145l.816 3.221c.012.023.027.035.041.035.015 0 .027-.012.031-.035l.725-3.221a.16.16 0 01.06-.104.183.183 0 01.125-.041h1.26c.056 0 .097.015.126.045.029.031.036.076.024.138l-1.54 6.056c-.024.098-.087.145-.186.145h-1.233a.199.199 0 01-.126-.04.168.168 0 01-.06-.105l-.78-3.42c-.007-.03-.019-.045-.036-.045-.017 0-.031.015-.036.045l-.705 3.42c-.019.098-.077.145-.176.145h-1.149c-.099 0-.161-.045-.186-.137l.003.002zm10.076 0l-.212-.748c-.007-.036-.031-.055-.075-.055h-2.095a.075.075 0 00-.075.055l-.212.748c-.024.09-.087.138-.186.138h-1.305c-.063 0-.107-.017-.13-.05-.025-.033-.03-.079-.01-.133l1.945-6.066a.19.19 0 01.195-.138h1.641c.107 0 .17.045.196.138l1.955 6.066c.007.012.01.033.01.064 0 .078-.051.119-.148.119h-1.308c-.099 0-.161-.045-.186-.138zm-2.075-2.026c0 .036.02.055.055.055h1.371c.024 0 .041-.007.05-.024.01-.014.01-.031.006-.05l-.705-2.425c-.007-.031-.017-.045-.031-.045-.015 0-.03.014-.041.045l-.705 2.425v.019zm7.97 2.033l-1.077-2.37c-.012-.031-.036-.045-.075-.045h-.574c-.044 0-.066.021-.066.064v2.315c0 .05-.014.088-.045.119a.161.161 0 01-.121.045H91.9a.161.161 0 01-.121-.045.154.154 0 01-.046-.119v-6.056c0-.047.014-.088.046-.119a.165.165 0 01.12-.045h2.697c.407 0 .765.083 1.073.247.31.164.548.397.72.699.169.301.256.646.256 1.035 0 .39-.102.751-.302 1.05-.2.297-.48.513-.84.648-.043.019-.055.05-.036.09l1.187 2.425.02.074c0 .078-.051.119-.148.119h-1.27a.2.2 0 01-.195-.129v-.002zm-1.79-4.897v1.259c0 .042.023.064.066.064h1.011c.23 0 .413-.062.555-.188a.624.624 0 00.213-.496.66.66 0 00-.213-.511.8.8 0 00-.555-.192h-1.011c-.043 0-.065.021-.065.064zm8.943-.109a.165.165 0 01-.121.045h-2.836c-.043 0-.065.021-.065.064v1.085c0 .043.022.064.065.064h1.789c.051 0 .089.015.121.045a.158.158 0 01.045.119v.957c0 .05-.014.088-.045.119a.162.162 0 01-.121.045h-1.789c-.043 0-.065.022-.065.064v1.169c0 .043.022.064.065.064h2.836c.049 0 .09.014.121.045a.158.158 0 01.046.119v.966c0 .05-.015.088-.046.119a.16.16 0 01-.121.045h-4.272a.161.161 0 01-.12-.045.154.154 0 01-.046-.119v-6.056c0-.047.014-.088.046-.119a.165.165 0 01.12-.045h4.272c.049 0 .09.015.121.045a.158.158 0 01.046.119v.967c0 .05-.015.088-.046.119zm7.202 4.999l-.212-.748c-.008-.036-.032-.055-.075-.055h-2.095a.075.075 0 00-.075.055l-.212.748c-.024.09-.087.138-.186.138h-1.306c-.063 0-.106-.017-.13-.05-.024-.033-.029-.079-.01-.133l1.945-6.066a.192.192 0 01.196-.138h1.641c.106 0 .169.045.196.138l1.955 6.066c.007.012.009.033.009.064 0 .078-.05.119-.147.119h-1.308c-.099 0-.162-.045-.186-.138zm-2.076-2.026c0 .036.02.055.056.055h1.371c.024 0 .041-.007.05-.024.01-.014.01-.031.005-.05l-.704-2.425c-.008-.031-.017-.045-.032-.045-.014 0-.029.014-.041.045l-.705 2.425v.019zm4.726 2.026l-1.697-6.066a.112.112 0 01-.009-.054c0-.086.048-.129.147-.129h1.298a.2.2 0 01.126.041.157.157 0 01.06.104l.78 3.221c.012.023.026.035.041.035.014 0 .026-.012.031-.035l.751-3.221c.019-.097.08-.145.186-.145h1.103c.099 0 .161.05.186.145l.815 3.221c.012.023.027.035.041.035.015 0 .027-.012.032-.035l.724-3.221a.157.157 0 01.06-.104.184.184 0 01.126-.041h1.259c.056 0 .097.015.126.045.029.031.036.076.024.138l-1.54 6.056c-.024.098-.087.145-.186.145h-1.233a.195.195 0 01-.125-.04.17.17 0 01-.061-.105l-.779-3.42c-.008-.03-.02-.045-.036-.045-.017 0-.032.015-.037.045l-.704 3.42c-.02.098-.078.145-.177.145h-1.148c-.099 0-.162-.045-.186-.137l.002.002zm10.074 0l-.212-.748c-.007-.036-.032-.055-.075-.055h-2.095a.075.075 0 00-.075.055l-.212.748c-.024.09-.087.138-.186.138h-1.306c-.062 0-.106-.017-.13-.05-.024-.033-.029-.079-.01-.133l1.946-6.066a.19.19 0 01.195-.138h1.641c.106 0 .169.045.196.138l1.955 6.066c.007.012.009.033.009.064 0 .078-.05.119-.147.119h-1.308c-.099 0-.162-.045-.186-.138zm-2.075-2.026c0 .036.019.055.055.055h1.371c.024 0 .041-.007.051-.024.009-.014.009-.031.004-.05l-.704-2.425c-.008-.031-.017-.045-.032-.045-.014 0-.029.014-.041.045l-.704 2.425v.019zm7.971 2.033l-1.076-2.37c-.012-.031-.036-.045-.075-.045h-.574c-.044 0-.065.021-.065.064v2.315c0 .05-.015.088-.046.119a.162.162 0 01-.121.045h-1.204a.16.16 0 01-.157-.099.18.18 0 01-.01-.065v-6.056c0-.047.015-.088.046-.119a.165.165 0 01.121-.045h2.696c.408 0 .765.083 1.074.247.309.164.548.397.719.699.169.301.256.646.256 1.035 0 .39-.102.751-.302 1.05-.2.297-.48.513-.84.648-.043.019-.055.05-.036.09l1.187 2.425.02.074c0 .078-.051.119-.148.119h-1.269a.2.2 0 01-.196-.129v-.002zm-1.788-4.897v1.259c0 .042.022.064.065.064h1.011c.23 0 .413-.062.556-.188a.624.624 0 00.212-.496.662.662 0 00-.212-.511.803.803 0 00-.556-.192h-1.011c-.043 0-.065.021-.065.064zm4.429 4.98a.15.15 0 01-.046-.119v-6.056c0-.047.015-.088.046-.119a.165.165 0 01.121-.045h2.307c.483 0 .907.083 1.279.247.372.164.659.399.862.703.202.304.306.653.306 1.05v2.389c0 .395-.101.746-.306 1.05a1.971 1.971 0 01-.862.703 3.135 3.135 0 01-1.279.247h-2.307a.16.16 0 01-.121-.045v-.005zm1.557-1.249h.936a.772.772 0 00.603-.259c.155-.173.235-.406.242-.698v-1.879c0-.292-.08-.525-.237-.698a.791.791 0 00-.615-.259h-.927c-.043 0-.065.021-.065.064v3.667c0 .043.022.064.065.064l-.002-.002zm5.372 1.126a1.932 1.932 0 01-.866-.694 1.823 1.823 0 01-.307-1.045v-.119a.16.16 0 01.046-.118.16.16 0 01.121-.045h1.178c.05 0 .089.011.12.03.032.022.046.048.046.079v.109c0 .195.101.368.302.52.2.152.458.228.774.228.273 0 .474-.057.604-.173a.527.527 0 00.195-.402.426.426 0 00-.227-.391c-.152-.091-.422-.198-.81-.319l-.203-.064a7.392 7.392 0 01-1.038-.415 2.276 2.276 0 01-.76-.62c-.21-.264-.316-.592-.316-.981 0-.39.101-.708.301-.991.201-.282.478-.501.835-.653a3.047 3.047 0 011.21-.228c.475 0 .902.086 1.284.257.378.171.678.411.895.719.217.312.323.665.323 1.067v.073c0 .05-.014.088-.046.119a.158.158 0 01-.12.045h-1.178a.264.264 0 01-.121-.023.072.072 0 01-.034-.028.075.075 0 01-.012-.041v-.083c0-.214-.096-.402-.287-.566-.19-.164-.449-.247-.77-.247-.241 0-.429.05-.564.145a.477.477 0 00-.203.411c0 .133.043.245.13.333.087.087.222.171.403.247.181.076.461.175.84.296.432.145.77.274 1.011.383.242.109.469.287.681.534.212.247.321.57.321.972 0 .401-.101.719-.306 1.007a1.955 1.955 0 01-.862.669 3.224 3.224 0 01-1.279.238c-.483 0-.929-.081-1.304-.242l-.007.007zM56.172 57.375a.555.555 0 01.162.416v3.415a.555.555 0 01-.162.416.575.575 0 01-.422.159H50.33c-.152 0-.227.073-.227.223v16.981a.555.555 0 01-.161.416.574.574 0 01-.423.159h-4.216a.574.574 0 01-.423-.16.555.555 0 01-.161-.415V62.004c0-.15-.078-.223-.227-.223H39.27a.575.575 0 01-.422-.16.556.556 0 01-.162-.415v-3.415c0-.171.053-.309.162-.416a.574.574 0 01.422-.159h16.48c.173 0 .313.052.422.16zm2.126 20.91c-1.351-1.022-2.266-2.404-2.742-4.15-.26-.871-.388-1.83-.388-2.873 0-1.043.14-2.095.422-3.097.497-1.682 1.422-2.995 2.773-3.943 1.352-.947 2.99-1.42 4.914-1.42 1.924 0 3.514.475 4.835 1.42 1.318.948 2.237 2.252 2.756 3.91.302.957.454 1.978.454 3.063 0 .979-.118 1.915-.358 2.81-.453 1.788-1.363 3.204-2.724 4.246-1.364 1.043-3.03 1.566-4.996 1.566-1.967 0-3.597-.511-4.948-1.532h.002zm6.522-3.591c.422-.395.719-.931.893-1.613a7.93 7.93 0 00.195-1.82c0-.66-.077-1.256-.227-1.852-.174-.66-.465-1.17-.876-1.532-.41-.36-.929-.541-1.557-.541-.627 0-1.172.18-1.573.541-.4.361-.688.874-.86 1.532-.151.468-.226 1.086-.226 1.853 0 .66.065 1.266.195 1.819.196.682.497 1.218.908 1.613.41.394.929.591 1.556.591.628 0 1.152-.197 1.574-.591h-.002zm25.122-3.304c0 1.51-.227 2.852-.68 4.023a6.929 6.929 0 01-2.416 3.209A6.17 6.17 0 0183.1 79.85c-1.644 0-2.877-.49-3.698-1.468-.065-.086-.125-.116-.178-.095-.053.021-.082.085-.082.192v6.353a.556.556 0 01-.162.416.575.575 0 01-.422.16H74.34a.575.575 0 01-.422-.16.556.556 0 01-.162-.416V63.638c0-.171.053-.309.162-.416a.574.574 0 01.422-.159h4.217c.173 0 .313.052.422.16a.555.555 0 01.162.415v.767c0 .107.026.171.082.192.053.022.113-.009.178-.094.82-1.129 2.054-1.691 3.698-1.691 1.404 0 2.703.458 3.893 1.372 1.19.915 2 2.097 2.433 3.544.345 1.042.519 2.266.519 3.672l-.003-.01zm-5.773-.095c0-1.085-.183-1.969-.553-2.65-.453-.787-1.115-1.18-1.979-1.18-.864 0-1.46.403-1.914 1.213-.367.681-.55 1.553-.55 2.617 0 1.17.195 2.107.584 2.81.454.724 1.081 1.085 1.883 1.085.842 0 1.491-.373 1.945-1.116.389-.703.584-1.627.584-2.777v-.002zm29.778 1.021a8.219 8.219 0 01-.584 3.064c-.562 1.32-1.499 2.377-2.807 3.175-1.308.798-2.816 1.197-4.525 1.197-1.709 0-3.213-.387-4.509-1.166-1.298-.776-2.237-1.836-2.821-3.175a7.342 7.342 0 01-.488-1.724v-.129c0-.318.184-.48.55-.48h4.381c.302 0 .519.138.649.416.022.107.087.245.196.416.174.425.437.75.794.974.357.223.772.335 1.248.335.475 0 .859-.117 1.216-.352.35-.227.626-.548.794-.926.261-.447.389-.957.389-1.532a3.11 3.11 0 00-.324-1.627 1.859 1.859 0 00-.762-.91c-.357-.223-.794-.335-1.313-.335-.888 0-1.557.3-2.011.893-.108.129-.21.224-.309.288a.671.671 0 01-.374.095h-4.542a.574.574 0 01-.422-.16.555.555 0 01-.162-.415v-12.45c0-.17.053-.308.162-.415a.574.574 0 01.422-.16h13.82c.174 0 .314.053.422.16a.554.554 0 01.162.415v3.385a.554.554 0 01-.162.415.572.572 0 01-.422.16h-8.79c-.152 0-.227.076-.227.223v3.574c0 .086.022.143.065.176.044.03.109.026.196-.017a6.121 6.121 0 012.951-.734c1.535 0 2.887.383 4.055 1.15a6.498 6.498 0 012.53 3.128 9.03 9.03 0 01.55 3.063l.002.005zm4.217 5.57c-1.427-1.373-2.141-3.24-2.141-5.603v-7.788c0-2.341.714-4.182 2.141-5.522 1.426-1.341 3.383-2.011 5.872-2.011 2.488 0 4.455.677 5.903 2.026 1.448 1.351 2.175 3.187 2.175 5.507v7.788c0 2.363-.724 4.23-2.175 5.603-1.448 1.372-3.417 2.059-5.903 2.059-2.486 0-4.443-.687-5.872-2.06zm7.834-3.257c.488-.498.729-1.185.729-2.059v-8.267c0-.872-.244-1.558-.729-2.06-.487-.498-1.142-.75-1.962-.75-.821 0-1.439.25-1.914.75-.476.502-.715 1.188-.715 2.06v8.267c0 .872.232 1.558.698 2.06.466.5 1.108.75 1.931.75s1.477-.25 1.962-.75z" fill="#252530"/><path d="M36.313 109.936c-.511-.213-.905-.52-1.182-.916-.278-.399-.415-.863-.415-1.39v-.275c0-.043.014-.079.045-.107a.161.161 0 01.05-.033.168.168 0 01.059-.01h1.455c.044 0 .08.014.109.043a.145.145 0 01.046.107v.187c0 .335.157.618.473.848.316.231.74.347 1.277.347.451 0 .787-.095 1.009-.283a.877.877 0 00.333-.698.689.689 0 00-.206-.508 1.8 1.8 0 00-.555-.364 18.578 18.578 0 00-1.117-.434c-.57-.193-1.055-.39-1.45-.592a2.887 2.887 0 01-.997-.824c-.268-.346-.404-.776-.404-1.289 0-.513.133-.943.396-1.321a2.5 2.5 0 011.099-.867c.468-.202 1.008-.301 1.621-.301.647 0 1.224.114 1.73.339.508.226.904.544 1.188.95.285.406.427.879.427 1.416v.187a.136.136 0 01-.045.107.153.153 0 01-.109.045h-1.47a.141.141 0 01-.108-.045.14.14 0 01-.046-.107v-.099c0-.352-.148-.651-.442-.898-.294-.247-.697-.371-1.207-.371-.4 0-.714.084-.939.252a.813.813 0 00-.337.691c0 .209.065.385.197.528.133.142.329.27.59.382.26.114.66.266 1.206.458.606.219 1.079.411 1.424.577.345.169.657.418.932.749.277.33.415.76.415 1.289 0 .789-.295 1.411-.881 1.867-.589.456-1.385.686-2.39.686-.68 0-1.276-.107-1.788-.32l.007-.003zm12.073-2.607c-.01.099-.063.152-.167.152h-3.948c-.05 0-.068.021-.05.061.026.169.072.335.14.504.221.47.672.705 1.353.705.546-.007.975-.225 1.291-.653.034-.05.073-.076.116-.076.027 0 .056.017.09.05l.919.893c.043.043.063.081.063.114 0 .017-.017.05-.05.1-.28.344-.645.61-1.087.798-.444.187-.93.282-1.455.282-.734 0-1.352-.164-1.859-.489a2.742 2.742 0 01-1.093-1.37c-.179-.421-.268-.969-.268-1.646 0-.461.063-.867.19-1.221a2.752 2.752 0 011.029-1.42c.49-.352 1.071-.527 1.745-.527.852 0 1.535.242 2.051.729.514.487.828 1.135.94 1.947.05.318.067.675.05 1.069v-.002zm-4.089-1.471c-.033.11-.062.243-.089.402 0 .043.022.062.063.062h2.21c.051 0 .068-.022.051-.062-.043-.242-.063-.361-.063-.352a1.081 1.081 0 00-.403-.584 1.178 1.178 0 00-.71-.207c-.535 0-.89.247-1.059.741zm6.319 3.895a2.744 2.744 0 01-1.067-1.382c-.145-.42-.217-.914-.217-1.484s.072-1.048.217-1.458a2.615 2.615 0 011.06-1.345c.502-.327 1.093-.489 1.776-.489s1.28.169 1.796.504c.514.334.859.757 1.028 1.27.067.202.101.352.101.454v.026c0 .076-.043.121-.128.138l-1.47.213h-.026c-.077 0-.128-.042-.154-.125l-.04-.202a.958.958 0 00-.395-.542 1.246 1.246 0 00-.729-.214c-.282 0-.502.067-.69.202a1.06 1.06 0 00-.396.554c-.094.251-.14.596-.14 1.03 0 .435.044.779.128 1.031.077.252.21.449.403.592.19.142.425.213.698.213.272 0 .497-.069.697-.206.2-.138.338-.328.415-.573a.196.196 0 00.012-.076c.008-.007.012-.021.012-.038.008-.099.068-.142.179-.126l1.47.226c.084.017.128.062.128.138 0 .066-.027.192-.078.377a2.354 2.354 0 01-1.04 1.321c-.516.318-1.11.477-1.78.477-.672 0-1.273-.168-1.77-.503v-.003zm9.62-6.015a.148.148 0 01.109-.043h1.494c.043 0 .08.014.108.043a.144.144 0 01.046.106v6.161a.136.136 0 01-.046.107.152.152 0 01-.108.045h-1.494a.141.141 0 01-.109-.045.144.144 0 01-.045-.107v-.427c0-.026-.01-.041-.027-.043-.017-.005-.034.007-.05.031-.341.453-.87.679-1.584.679-.647 0-1.18-.192-1.598-.579-.417-.385-.625-.927-.625-1.623v-4.199c0-.042.015-.078.046-.106a.15.15 0 01.109-.043h1.481c.044 0 .08.014.11.043a.145.145 0 01.045.106v3.76c0 .335.092.608.275.817.184.209.437.314.76.314.29 0 .529-.086.715-.259.188-.171.301-.397.345-.672v-3.96c0-.042.014-.078.046-.106h-.003zm7.087.045c.067.033.094.097.077.187l-.268 1.432c-.01.1-.068.131-.179.088a1.439 1.439 0 00-.446-.061 2.18 2.18 0 00-.283.026 1.268 1.268 0 00-.78.332c-.212.197-.318.459-.318.786v3.432a.136.136 0 01-.046.107.153.153 0 01-.108.045h-1.494a.141.141 0 01-.109-.045.144.144 0 01-.046-.107v-6.161c0-.042.015-.078.046-.106a.15.15 0 01.109-.043h1.494c.043 0 .08.014.108.043a.144.144 0 01.046.106v.478c0 .026.01.043.027.05.017.009.029.004.038-.012.35-.504.819-.755 1.405-.755.306 0 .55.059.729.175l-.002.003zm1.141-1.1a.957.957 0 01-.287-.71c0-.285.094-.532.28-.717.188-.186.43-.276.729-.276s.54.093.729.276c.188.185.28.422.28.717a.943.943 0 01-.288.71.98.98 0 01-.721.283.988.988 0 01-.722-.283zm-.154 7.431a.14.14 0 01-.046-.106v-6.173c0-.043.014-.078.046-.107a.155.155 0 01.108-.043h1.494a.15.15 0 01.109.043.146.146 0 01.046.107v6.173a.136.136 0 01-.046.106.153.153 0 01-.109.046h-1.494a.142.142 0 01-.108-.046zm6.888-5.044a.153.153 0 01-.109.045h-1.226c-.043 0-.063.021-.063.062v2.665c0 .275.058.482.172.615.116.133.3.202.555.202h.422a.15.15 0 01.155.149v1.195c0 .092-.051.147-.155.164-.357.016-.613.026-.767.026-.707 0-1.236-.114-1.584-.347-.35-.23-.528-.665-.535-1.301v-3.371c0-.042-.022-.061-.066-.061h-.728a.145.145 0 01-.109-.045.145.145 0 01-.046-.107v-1.119c0-.043.015-.078.046-.107a.142.142 0 01.05-.032.148.148 0 01.059-.011h.728c.044 0 .066-.021.066-.061v-1.497c0-.042.014-.078.046-.106a.15.15 0 01.108-.043h1.431c.044 0 .08.014.109.043a.145.145 0 01.046.106v1.497c0 .042.022.061.063.061h1.226a.151.151 0 01.154.15v1.119a.14.14 0 01-.046.107l-.002.002zm1.028 7.545a.205.205 0 01-.026-.107v-1.156c0-.043.014-.079.045-.107a.149.149 0 01.109-.045c.357-.007.64-.038.85-.088a.92.92 0 00.497-.29c.123-.142.22-.351.287-.629.007-.017.007-.043 0-.076l-2.095-6.261a.12.12 0 01-.012-.061c0-.076.046-.114.14-.114h1.598c.094 0 .154.042.178.125l1.074 4.074c.008.026.022.038.039.038s.029-.012.038-.038l1.075-4.074c.026-.083.084-.125.178-.125h1.56c.05 0 .086.014.108.042.022.029.024.074.007.133l-2.21 6.539c-.213.612-.43 1.071-.652 1.377-.222.307-.534.53-.932.672-.4.143-.968.214-1.7.214h-.088c-.027 0-.046-.014-.063-.043h-.005zm14.387-10.932c.425.226.756.546.99.962.234.416.352.891.352 1.427 0 .537-.12.993-.364 1.397a2.471 2.471 0 01-1.024.936c-.439.223-.943.332-1.513.332h-1.815c-.043 0-.063.022-.063.062v3.206a.136.136 0 01-.046.107.153.153 0 01-.108.045h-1.494a.141.141 0 01-.109-.045.144.144 0 01-.046-.107v-8.512c0-.043.015-.078.046-.107a.153.153 0 01.109-.045h3.603c.563 0 1.057.114 1.482.34v.002zm-.806 3.301c.239-.22.357-.513.357-.874s-.118-.667-.357-.893c-.239-.225-.553-.339-.946-.339h-1.622c-.043 0-.063.021-.063.062v2.313c0 .043.022.062.063.062h1.622c.39 0 .707-.112.946-.333v.002zm7.144-1.201c.068.033.094.097.077.187l-.268 1.432c-.01.1-.067.131-.178.088a1.439 1.439 0 00-.447-.061 2.18 2.18 0 00-.282.026 1.268 1.268 0 00-.78.332c-.212.197-.318.459-.318.786v3.432a.136.136 0 01-.046.107.153.153 0 01-.109.045h-1.494a.141.141 0 01-.108-.045.144.144 0 01-.046-.107v-6.161c0-.042.014-.078.046-.106a.15.15 0 01.108-.043H94.6c.044 0 .08.014.109.043a.144.144 0 01.046.106v.478c0 .026.01.043.026.05.017.009.03.004.039-.012.35-.504.818-.755 1.405-.755.306 0 .55.059.729.175l-.003.003zm1.789 5.921c-.512-.369-.86-.872-1.048-1.509a4.441 4.441 0 01-.179-1.282c0-.494.06-.938.179-1.332.196-.62.55-1.107 1.06-1.459.511-.351 1.124-.527 1.839-.527.714 0 1.293.173 1.788.523.495.349.842.831 1.048 1.451.135.42.205.859.205 1.32 0 .461-.061.877-.179 1.271-.188.653-.533 1.168-1.04 1.541s-1.118.561-1.834.561c-.717 0-1.33-.186-1.84-.554v-.004zm2.555-1.219c.196-.168.336-.399.423-.691.067-.268.101-.56.101-.879 0-.351-.034-.648-.101-.893a1.406 1.406 0 00-.435-.667 1.08 1.08 0 00-.714-.24c-.28 0-.531.078-.722.24a1.34 1.34 0 00-.415.667c-.067.202-.101.499-.101.893 0 .395.029.67.09.879.084.295.226.525.426.691.201.169.444.252.734.252s.519-.083.714-.252zm7.62-7.084a.15.15 0 01.109-.046h1.494c.043 0 .079.015.108.046a.144.144 0 01.046.106v8.501a.134.134 0 01-.046.106.149.149 0 01-.108.046h-1.494a.142.142 0 01-.109-.046.147.147 0 01-.046-.106v-.416c0-.026-.01-.04-.026-.043-.017-.005-.034 0-.051.019-.357.461-.847.691-1.47.691s-1.11-.164-1.54-.489c-.429-.328-.738-.774-.927-1.344-.144-.437-.217-.943-.217-1.523 0-.579.077-1.113.229-1.558.196-.536.505-.961.927-1.275.423-.313.944-.47 1.564-.47.621 0 1.091.209 1.431.629.017.026.034.033.051.026.017-.007.027-.026.027-.05v-2.69c0-.043.014-.079.046-.107l.002-.007zm-.058 5.526c0-.56-.094-1.002-.28-1.32a.936.936 0 00-.857-.49c-.4 0-.702.164-.907.49-.213.327-.319.772-.319 1.332 0 .504.09.922.268 1.256.213.361.529.542.946.542.384 0 .681-.181.896-.542.171-.311.255-.733.255-1.27l-.002.002zm7.048-3.189a.163.163 0 01.049-.033.15.15 0 01.059-.01h1.494c.044 0 .08.014.109.043a.144.144 0 01.046.106v6.161a.138.138 0 01-.046.107.154.154 0 01-.109.045h-1.494a.14.14 0 01-.108-.045.128.128 0 01-.034-.049.143.143 0 01-.012-.058v-.427c0-.026-.01-.041-.027-.043-.017-.005-.034.007-.05.031-.341.453-.869.679-1.584.679-.647 0-1.18-.192-1.598-.579-.417-.385-.625-.927-.625-1.623v-4.199c0-.042.015-.078.046-.106a.152.152 0 01.109-.043h1.482c.043 0 .079.014.108.043a.144.144 0 01.046.106v3.76c0 .335.092.608.275.817.184.209.437.314.761.314.289 0 .528-.086.714-.259a1.11 1.11 0 00.345-.672v-3.96c0-.042.015-.078.046-.106h-.002zm4.202 6.015a2.738 2.738 0 01-1.067-1.382c-.145-.42-.217-.914-.217-1.484s.072-1.048.217-1.458a2.614 2.614 0 011.059-1.345c.502-.327 1.094-.489 1.777-.489.683 0 1.279.169 1.795.504.514.334.857.757 1.029 1.27.067.202.101.352.101.454v.026c0 .076-.044.121-.128.138l-1.47.213h-.026c-.078 0-.128-.042-.155-.125l-.038-.202a.962.962 0 00-.396-.542 1.247 1.247 0 00-.729-.214c-.283 0-.502.067-.69.202a1.055 1.055 0 00-.396.554c-.094.251-.14.596-.14 1.03 0 .435.043.779.128 1.031.077.252.21.449.403.592.19.142.424.213.695.213.27 0 .497-.069.697-.206.201-.138.338-.328.415-.573a.179.179 0 00.013-.076c.007-.007.012-.021.012-.038.007-.099.067-.142.178-.126l1.47.226c.085.017.128.062.128.138 0 .066-.027.192-.077.377a2.353 2.353 0 01-1.041 1.321c-.516.318-1.11.477-1.783.477-.674 0-1.272-.168-1.769-.503l.005-.003zm9.468-4.683a.153.153 0 01-.109.045h-1.226c-.043 0-.063.021-.063.062v2.665c0 .275.058.482.172.615.113.133.299.202.555.202h.422a.15.15 0 01.155.149v1.195c0 .092-.051.147-.155.164-.357.016-.613.026-.767.026-.707 0-1.236-.114-1.583-.347-.35-.23-.529-.665-.536-1.301v-3.371c0-.042-.022-.061-.065-.061h-.729a.145.145 0 01-.109-.045.15.15 0 01-.046-.107v-1.119a.14.14 0 01.046-.107.138.138 0 01.05-.032.15.15 0 01.059-.011h.729c.043 0 .065-.021.065-.061v-1.497c0-.042.014-.078.046-.106a.15.15 0 01.108-.043h1.431c.044 0 .08.014.109.043a.144.144 0 01.046.106v1.497c0 .042.022.061.063.061h1.226a.15.15 0 01.108.043.147.147 0 01.046.107v1.119a.137.137 0 01-.046.107l-.002.002zm2.254 4.935c-.427-.159-.755-.382-.989-.667a1.483 1.483 0 01-.353-.969v-.126a.14.14 0 01.046-.107.156.156 0 01.109-.045h1.419a.14.14 0 01.108.045.147.147 0 01.046.107v.012c0 .185.104.342.314.47.208.131.471.195.787.195.289 0 .524-.057.702-.171.179-.114.268-.254.268-.421 0-.152-.077-.263-.229-.339-.152-.076-.406-.155-.753-.24a7.456 7.456 0 01-.946-.29c-.546-.185-.98-.411-1.304-.679-.323-.268-.485-.653-.485-1.157 0-.62.244-1.111.734-1.477.49-.363 1.139-.546 1.948-.546.545 0 1.021.085 1.431.256.408.171.726.414.951.722.224.311.338.663.338 1.057a.138.138 0 01-.046.107.149.149 0 01-.109.045h-1.366a.14.14 0 01-.108-.045.128.128 0 01-.034-.049.143.143 0 01-.012-.058c0-.185-.097-.339-.287-.465-.191-.126-.445-.19-.761-.19-.28 0-.511.05-.69.152-.179.099-.268.24-.268.415 0 .176.087.295.263.378.174.083.466.171.876.264.094.026.201.052.319.08.118.029.246.064.384.107.605.176 1.081.402 1.431.679.35.276.524.68.524 1.207 0 .62-.249 1.104-.749 1.451-.497.347-1.168.523-2.012.523-.57 0-1.07-.081-1.494-.24l-.003.009z" fill="#fff"/><path d="M69.591 157.337c.012.023.036.035.075.035h4.702a.22.22 0 01.222.219v2.14a.207.207 0 01-.066.154.212.212 0 01-.156.064H65.72a.212.212 0 01-.157-.064.207.207 0 01-.065-.154v-2.014c0-.11.036-.2.11-.274.74-.676 1.714-1.65 2.933-2.921l1.106-1.142c1.117-1.138 1.677-1.967 1.677-2.487 0-.351-.133-.641-.396-.871-.265-.231-.606-.345-1.023-.345-.418 0-.756.114-1.014.345-.258.23-.386.532-.386.907v.434a.208.208 0 01-.065.155.212.212 0 01-.157.064h-2.655a.212.212 0 01-.157-.064.207.207 0 01-.065-.155v-.907c.048-.677.278-1.27.683-1.779.406-.508.941-.897 1.605-1.171.664-.273 1.402-.408 2.213-.408.91 0 1.707.166 2.387.499.683.332 1.205.783 1.567 1.351.362.568.543 1.197.543 1.886 0 .496-.123.997-.37 1.506-.246.508-.615 1.047-1.105 1.615a18.03 18.03 0 01-1.16 1.251c-.43.423-1.027.993-1.79 1.705l-.369.345c-.024.024-.03.047-.019.073v.008zm7.56 1.66c-.812-.779-1.217-1.841-1.217-3.185v-4.427c0-1.33.405-2.378 1.216-3.14.811-.762 1.924-1.142 3.338-1.142 1.415 0 2.532.384 3.355 1.152.823.767 1.236 1.812 1.236 3.13v4.427c0 1.342-.413 2.403-1.236 3.185-.823.779-1.943 1.171-3.355 1.171s-2.524-.39-3.338-1.171zm4.452-1.85c.278-.285.415-.675.415-1.171v-4.698c0-.496-.137-.886-.415-1.171-.277-.285-.649-.427-1.115-.427-.466 0-.818.142-1.088.427-.27.285-.406.675-.406 1.171v4.698c0 .496.133.886.396 1.171.263.285.63.427 1.096.427.466 0 .84-.142 1.115-.427h.002zm8.986.19c.012.023.036.035.075.035h4.701a.22.22 0 01.222.219v2.14a.207.207 0 01-.065.154.212.212 0 01-.157.064h-8.647a.212.212 0 01-.157-.064.207.207 0 01-.066-.154v-2.014c0-.11.037-.2.112-.274.738-.676 1.713-1.65 2.932-2.921l1.105-1.142c1.118-1.138 1.678-1.967 1.678-2.487 0-.351-.133-.641-.396-.871-.266-.231-.606-.345-1.023-.345-.418 0-.756.114-1.014.345-.258.23-.386.532-.386.907v.434a.208.208 0 01-.065.155.212.212 0 01-.157.064h-2.655a.212.212 0 01-.157-.064.209.209 0 01-.065-.155v-.907c.048-.677.277-1.27.683-1.779.405-.508.941-.897 1.605-1.171.664-.273 1.402-.408 2.213-.408.91 0 1.707.166 2.387.499.683.332 1.204.783 1.567 1.351.362.568.543 1.197.543 1.886 0 .496-.124.997-.37 1.506-.246.508-.615 1.047-1.105 1.615a18.03 18.03 0 01-1.161 1.251c-.43.423-1.026.993-1.788 1.705l-.37.345c-.024.024-.031.047-.02.073v.008zm14.805-1.615c0 .653-.124 1.263-.37 1.833a3.856 3.856 0 01-1.566 1.86c-.727.453-1.579.679-2.563.679-.985 0-1.808-.233-2.544-.698a4.024 4.024 0 01-1.605-1.896 5.015 5.015 0 01-.35-1.596c0-.144.075-.218.222-.218h2.655c.147 0 .227.074.239.218.024.302.099.594.222.872.099.242.246.428.441.553.196.126.43.19.7.19.517 0 .903-.23 1.161-.688.172-.302.259-.701.259-1.197 0-.497-.087-.908-.259-1.271-.258-.446-.651-.672-1.18-.672a.963.963 0 00-.451.135 6.71 6.71 0 00-.637.409.34.34 0 01-.148.054c-.072 0-.127-.035-.166-.109l-1.308-1.814a.318.318 0 01-.056-.145.18.18 0 01.092-.164l2.838-2.123c.024-.024.034-.048.027-.074-.007-.024-.027-.036-.065-.036h-4.038a.212.212 0 01-.157-.064.206.206 0 01-.065-.154v-2.14c0-.059.021-.112.065-.154a.212.212 0 01.157-.064h8.039c.061 0 .114.021.157.064a.206.206 0 01.065.154v2.413c0 .109-.043.2-.13.273l-2.23 1.724c-.024.024-.034.048-.027.074.005.024.027.043.065.055.983.254 1.697.871 2.139 1.85.246.579.369 1.204.369 1.869l.003-.002z" fill="#252530"/></g><defs><clipPath id="a"><path fill="#fff" transform="translate(.4)" d="M0 0H170V190H0z"/></clipPath></defs></svg>