<svg width="170" height="190" fill="none" xmlns="http://www.w3.org/2000/svg"><g clip-path="url(#a)"><path d="M14.649 148.2l71.436 36.371 68.723-36.371V5.971H14.648V148.2z" fill="#fff"/><path d="M156.255 6.514L13.202 150.733l74.15 36.734 68.903-35.286V6.514z" fill="#F2F3F2"/><path d="M9.947 53.38v97.896l2.532 1.267 71.436 36.371 2.17 1.086 2.17-1.086 68.905-36.371 2.531-1.267V1.266H9.947v52.115zm4.702 95.182V5.972h140.34v142.59l-68.904 36.371-71.436-36.371z" fill="#DCDEDC"/><path d="M84.82 8.324c.723 0 1.446 0 2.17.18l-2.17 4.163c-3.256-.181-6.15 2.352-6.33 5.61-.181 3.256 2.35 6.151 5.606 6.332h.723a6.318 6.318 0 003.979-1.447l2.351 3.98a10.958 10.958 0 01-6.33 1.991c-5.787.181-10.67-4.162-10.85-9.952-.182-5.79 4.159-10.676 9.946-10.857h.904zm7.414 8.866l2.713 4.524-2.713 4.343-2.532-4.343h-5.245l2.713-4.524h5.064zm-4.34-1.628c0-.724.18-1.448.542-1.99.362-.543 1.085-1.086 1.628-1.448l.362-.181c.723-.362.904-.543.904-.905s-.543-.724-.904-.724c-.724 0-1.266.362-1.628 1.086l-.904-.905c.18-.362.542-.724.904-1.086.543-.361 1.085-.361 1.628-.361.542 0 1.266.18 1.627.542.362.362.724.905.724 1.448 0 .905-.543 1.629-1.628 1.99l-.543.362c-.542.362-.904.543-1.085 1.086h3.256v1.267l-4.883-.181zM84.819 38.18L102 28.41V1.267H67.457v26.962L84.82 38.18z" fill="#FF492C"/><path d="M163.128 102.238H6.511L.723 114.905l5.788 12.666h156.617l5.606-12.666-5.606-12.667z" fill="#5A39A2"/><path d="M37.816 94.095c-.12 0-.211-.06-.271-.18l-2.478-5.52c-.036-.048-.078-.072-.127-.072h-1.844c-.073 0-.109.036-.109.108v5.429c0 .06-.024.115-.072.163-.036.048-.09.072-.163.072H30.42a.225.225 0 01-.163-.072.225.225 0 01-.072-.163V80.397c0-.06.024-.115.072-.163a.225.225 0 01.163-.072h5.697c.844 0 1.592.175 2.242.525.64.337 1.134.826 1.484 1.465.35.64.524 1.376.524 2.208 0 .905-.223 1.677-.67 2.316-.457.651-1.09 1.11-1.898 1.375-.06.025-.079.067-.054.127l2.712 5.646a.279.279 0 01.037.108c0 .109-.073.163-.217.163h-2.46zm-4.72-11.526c-.073 0-.109.036-.109.108v3.402c0 .06.036.09.109.09H35.7c.555 0 1.007-.162 1.356-.488.35-.338.525-.772.525-1.303 0-.53-.175-.965-.525-1.303-.35-.338-.801-.507-1.356-.507h-2.604zm18.03 5.356c.085.506.115 1.073.091 1.7-.012.157-.102.236-.271.236h-6.131c-.084 0-.115.03-.09.09.036.266.108.531.216.797.35.748 1.055 1.121 2.116 1.121.844-.012 1.514-.355 2.008-1.031.048-.084.108-.127.18-.127.037 0 .085.025.146.073l1.428 1.43c.06.06.09.114.09.162 0 .036-.023.09-.072.163-.434.543-1 .965-1.7 1.267a5.564 5.564 0 01-2.26.452c-1.146 0-2.11-.26-2.894-.778-.796-.519-1.362-1.243-1.7-2.172-.277-.663-.416-1.532-.416-2.605 0-.736.097-1.382.29-1.936.313-.941.85-1.69 1.609-2.244.76-.555 1.664-.833 2.713-.833 1.326 0 2.393.386 3.2 1.159.797.76 1.279 1.785 1.448 3.076zm-4.63-1.81c-.831 0-1.38.392-1.645 1.176-.06.17-.108.38-.145.634 0 .072.037.108.109.108h3.436c.072 0 .097-.036.072-.108-.06-.386-.09-.573-.09-.561-.12-.398-.331-.706-.633-.923-.301-.217-.67-.326-1.103-.326zm10.942 8.143c-1.06 0-1.977-.265-2.749-.796-.783-.531-1.338-1.26-1.663-2.19-.23-.663-.344-1.447-.344-2.352 0-.893.114-1.665.344-2.316a4.102 4.102 0 011.645-2.117c.784-.52 1.706-.778 2.767-.778s1.996.265 2.803.796c.796.53 1.327 1.2 1.592 2.008.108.314.163.555.163.724v.036c0 .12-.067.193-.2.217l-2.296.344h-.036c-.12 0-.2-.066-.235-.199l-.054-.326a1.494 1.494 0 00-.615-.85 1.929 1.929 0 00-1.14-.344c-.422 0-.777.109-1.067.326a1.613 1.613 0 00-.633.868c-.144.398-.217.941-.217 1.629 0 .688.066 1.23.2 1.629.12.398.33.711.632.94.302.23.663.344 1.085.344.41 0 .772-.108 1.085-.325.314-.23.53-.531.651-.905a.4.4 0 00.019-.127c.012-.012.018-.03.018-.054.012-.169.102-.235.27-.2l2.298.345c.132.036.199.114.199.235 0 .096-.043.296-.127.597-.277.88-.814 1.574-1.61 2.081-.807.507-1.736.76-2.785.76zm10.58 0c-1.11 0-2.062-.295-2.857-.887-.796-.579-1.339-1.375-1.628-2.388a6.748 6.748 0 01-.29-2.027c0-.784.097-1.484.29-2.099.301-.99.85-1.761 1.646-2.316.796-.555 1.748-.832 2.857-.832 1.097 0 2.026.27 2.785.814.772.555 1.32 1.327 1.646 2.316.205.663.308 1.357.308 2.08 0 .713-.09 1.382-.272 2.01-.29 1.037-.832 1.851-1.627 2.442-.784.592-1.737.887-2.858.887zm0-2.407c.446 0 .82-.132 1.121-.398.302-.265.519-.633.651-1.104.109-.422.163-.886.163-1.393 0-.555-.054-1.025-.163-1.411-.144-.447-.367-.796-.669-1.05-.301-.253-.675-.38-1.121-.38-.446 0-.82.127-1.121.38-.302.254-.519.603-.651 1.05-.097.325-.145.796-.145 1.411 0 .603.042 1.068.127 1.393.132.47.355.839.669 1.104.313.266.693.398 1.14.398zm17.904-8.142c1.037 0 1.851.313 2.442.94.579.616.868 1.49.868 2.624v6.587c0 .06-.024.115-.072.163a.225.225 0 01-.163.072h-2.333c-.073 0-.127-.024-.163-.072a.225.225 0 01-.072-.163v-5.972c0-.542-.139-.977-.416-1.302-.278-.314-.651-.47-1.122-.47-.458 0-.837.156-1.139.47-.29.325-.434.754-.434 1.284v5.99c0 .06-.024.115-.072.163-.036.048-.09.072-.163.072h-2.315a.225.225 0 01-.163-.072.225.225 0 01-.072-.163v-5.972c0-.53-.145-.959-.434-1.284-.29-.326-.67-.489-1.14-.489-.421 0-.777.127-1.066.38-.278.254-.447.603-.507 1.05v6.315c0 .06-.018.115-.054.163a.245.245 0 01-.18.072h-2.316a.245.245 0 01-.18-.072.225.225 0 01-.073-.163v-9.753c0-.073.024-.133.072-.181a.293.293 0 01.181-.055h2.315c.072 0 .133.018.18.055a.293.293 0 01.055.18v.779c0 .036.018.06.055.072.024.012.048 0 .072-.036.542-.808 1.386-1.213 2.532-1.213.663 0 1.242.14 1.736.417.494.277.874.675 1.14 1.194.035.072.084.072.144 0 .29-.543.681-.947 1.175-1.212a3.567 3.567 0 011.682-.398zm16.621 0c1.036 0 1.844.313 2.423.94.579.616.868 1.49.868 2.624v6.587c0 .06-.018.115-.054.163a.246.246 0 01-.181.072h-2.315a.246.246 0 01-.181-.072.226.226 0 01-.072-.163v-5.972c0-.542-.139-.977-.416-1.302-.277-.314-.645-.47-1.103-.47-.47 0-.85.156-1.14.47-.289.325-.434.754-.434 1.284v5.99c0 .06-.024.115-.072.163a.246.246 0 01-.18.072h-2.298c-.072 0-.126-.024-.162-.072a.225.225 0 01-.073-.163v-5.972c0-.53-.15-.959-.452-1.284-.29-.326-.663-.489-1.121-.489-.422 0-.778.127-1.067.38-.29.254-.458.603-.507 1.05v6.315c0 .06-.024.115-.072.163a.225.225 0 01-.163.072h-2.333c-.072 0-.126-.024-.162-.072a.225.225 0 01-.073-.163v-9.753c0-.073.024-.133.073-.181.036-.037.09-.055.162-.055h2.333c.06 0 .115.018.163.055a.246.246 0 01.072.18v.779c0 .036.013.06.037.072.024.012.048 0 .072-.036.555-.808 1.398-1.213 2.532-1.213.663 0 1.242.14 1.736.417.506.277.892.675 1.157 1.194.037.072.079.072.127 0 .302-.543.699-.947 1.194-1.212.494-.266 1.055-.398 1.682-.398zm14.251 4.216c.084.506.114 1.073.09 1.7-.012.157-.096.236-.253.236h-6.149c-.084 0-.115.03-.09.09.048.266.12.531.217.797.349.748 1.055 1.121 2.116 1.121.843-.012 1.513-.355 2.007-1.031.048-.084.108-.127.181-.127.036 0 .084.025.144.073l1.429 1.43c.06.06.091.114.091.162 0 .036-.024.09-.073.163-.434.543-1 .965-1.7 1.267a5.56 5.56 0 01-2.26.452c-1.134 0-2.098-.26-2.894-.778-.784-.519-1.35-1.243-1.7-2.172-.277-.663-.416-1.532-.416-2.605 0-.736.097-1.382.289-1.936.314-.941.85-1.69 1.61-2.244.76-.555 1.664-.833 2.713-.833 1.326 0 2.393.386 3.201 1.159.796.76 1.278 1.785 1.447 3.076zm-4.63-1.81c-.832 0-1.381.392-1.646 1.176-.048.17-.096.38-.145.634 0 .072.037.108.109.108h3.436c.085 0 .109-.036.072-.108-.06-.386-.09-.573-.09-.561-.121-.398-.332-.706-.633-.923-.289-.217-.657-.326-1.103-.326zm11.773-2.406c1.061 0 1.917.325 2.568.977.651.651.977 1.532.977 2.641v6.533c0 .06-.024.115-.072.163a.227.227 0 01-.163.072h-2.333a.226.226 0 01-.163-.072.226.226 0 01-.072-.163v-5.953c0-.531-.151-.965-.452-1.303-.29-.326-.682-.489-1.176-.489-.494 0-.892.163-1.194.489-.289.338-.434.772-.434 1.303v5.953c0 .06-.024.115-.072.163a.244.244 0 01-.181.072h-2.315a.244.244 0 01-.18-.072.26.26 0 01-.055-.163v-9.753c0-.073.018-.133.055-.181a.29.29 0 01.18-.055h2.315c.073 0 .133.018.181.055a.246.246 0 01.072.18v.688c0 .049.013.079.037.09.024.013.042.007.054-.017.542-.773 1.35-1.159 2.423-1.159zm11.846-3.312c0-.06.024-.115.072-.163a.227.227 0 01.163-.072h2.333c.06 0 .115.024.163.072a.226.226 0 01.072.163V93.86c0 .06-.024.115-.072.163a.226.226 0 01-.163.072h-2.333a.227.227 0 01-.163-.072.226.226 0 01-.072-.163v-.651c0-.049-.012-.073-.036-.073-.036-.012-.066-.006-.091.018-.554.736-1.314 1.104-2.278 1.104-.929 0-1.73-.26-2.406-.778-.663-.519-1.145-1.23-1.446-2.135-.217-.688-.326-1.49-.326-2.407 0-.94.121-1.761.362-2.46.301-.857.777-1.533 1.428-2.028.664-.494 1.477-.742 2.442-.742.952 0 1.694.332 2.224.996.025.036.055.048.091.036.024-.012.036-.036.036-.072v-4.27zm-.416 10.586c.265-.483.398-1.152.398-2.009 0-.88-.145-1.574-.434-2.08-.314-.52-.76-.779-1.338-.779-.627 0-1.098.26-1.411.778-.338.519-.506 1.219-.506 2.1 0 .796.138 1.459.416 1.99.337.579.831.868 1.483.868.59 0 1.054-.29 1.392-.868zM47.166 74.19a.225.225 0 01-.163-.072.225.225 0 01-.072-.163V60.492c0-.06.024-.114.072-.163a.225.225 0 01.163-.072h2.333c.072 0 .127.024.163.072a.225.225 0 01.072.163v11.183c0 .073.036.109.109.109h6.492c.072 0 .133.024.181.072a.225.225 0 01.072.163v1.936c0 .06-.024.115-.072.163a.245.245 0 01-.18.072h-9.17zM59.645 62.81c-.446 0-.82-.151-1.122-.453a1.524 1.524 0 01-.452-1.122c0-.47.145-.85.434-1.14.29-.29.67-.434 1.14-.434.458 0 .838.145 1.14.434.288.29.433.67.433 1.14 0 .447-.15.82-.452 1.122a1.522 1.522 0 01-1.121.453zM58.45 74.19c-.072 0-.127-.024-.163-.072a.225.225 0 01-.072-.163v-9.771c0-.073.024-.133.072-.181.037-.048.09-.073.163-.073h2.333c.06 0 .115.025.163.073a.245.245 0 01.072.18v9.772c0 .06-.024.115-.072.163a.224.224 0 01-.163.072h-2.333zm4.992 0a.225.225 0 01-.163-.072.225.225 0 01-.072-.163V60.492c0-.06.024-.114.072-.163a.225.225 0 01.163-.072h2.333c.06 0 .114.024.162.072a.225.225 0 01.073.163v6.714c0 .036.012.06.036.072a.176.176 0 00.09-.036l2.695-3.149a.46.46 0 01.307-.126h2.64c.133 0 .2.042.2.126a.324.324 0 01-.055.163l-2.531 3.203c-.025.06-.03.108-.019.145l2.967 6.315a.277.277 0 01.036.109c0 .108-.073.162-.217.162h-2.442a.302.302 0 01-.29-.18l-1.97-4.651c-.013-.024-.037-.042-.073-.054-.024-.012-.042 0-.054.036l-1.284 1.592a.277.277 0 00-.036.109v2.913c0 .06-.024.115-.073.163a.225.225 0 01-.162.072h-2.333zm18.5-6.17c.085.507.11 1.074.073 1.7-.012.158-.097.236-.253.236h-6.15c-.072 0-.096.03-.072.09.037.266.109.531.218.797.35.748 1.055 1.122 2.115 1.122.845-.012 1.514-.356 2.008-1.032.048-.084.108-.126.18-.126.037 0 .08.024.127.072l1.43 1.43c.072.06.108.114.108.162 0 .036-.025.09-.073.163a4.5 4.5 0 01-1.7 1.267 5.564 5.564 0 01-2.26.452c-1.146 0-2.11-.26-2.894-.778-.796-.519-1.362-1.242-1.7-2.171-.29-.664-.434-1.532-.434-2.606 0-.736.103-1.381.307-1.936.302-.941.838-1.69 1.61-2.244.76-.555 1.664-.832 2.713-.832 1.326 0 2.387.386 3.183 1.158.808.76 1.296 1.785 1.465 3.076zm-4.63-1.81c-.843 0-1.398.393-1.663 1.177-.048.168-.09.38-.127.633 0 .072.03.109.09.109h3.455c.073 0 .097-.037.073-.11a17.264 17.264 0 00-.109-.56c-.109-.398-.313-.706-.615-.923-.301-.217-.67-.326-1.103-.326zm6.674 7.98a.225.225 0 01-.162-.072.225.225 0 01-.073-.163V60.492c0-.06.024-.114.073-.163a.225.225 0 01.162-.072h2.333c.073 0 .127.024.163.072a.225.225 0 01.072.163v13.463c0 .06-.024.115-.072.163-.036.048-.09.072-.163.072h-2.333zm4.558 3.963c-.037 0-.067-.024-.09-.072a.36.36 0 01-.037-.163v-1.846c0-.06.018-.114.054-.163a.245.245 0 01.181-.072c.555-.012.995-.054 1.32-.127.326-.084.585-.24.778-.47.193-.217.344-.549.452-.995.012-.025.012-.06 0-.109L87.93 64.22a.253.253 0 01-.018-.109c0-.12.072-.18.217-.18h2.495c.145 0 .236.072.272.216l1.664 6.442c.024.037.048.055.072.055.024 0 .042-.018.054-.055l1.664-6.442c.048-.144.145-.217.29-.217h2.423c.084 0 .138.025.163.073.036.048.042.12.018.217l-3.436 10.35c-.338.966-.676 1.69-1.013 2.172-.35.482-.838.838-1.465 1.067-.615.23-1.495.344-2.64.344h-.145zm23.854-17.896c.072 0 .133.024.181.072a.266.266 0 01.054.163v1.955c0 .072-.018.126-.054.162a.246.246 0 01-.181.073h-3.563c-.06 0-.09.036-.09.108v11.165c0 .06-.024.115-.073.163a.223.223 0 01-.162.072h-2.333c-.073 0-.127-.024-.163-.072a.225.225 0 01-.072-.163V62.79c0-.072-.037-.108-.109-.108h-3.454a.244.244 0 01-.181-.073c-.036-.036-.054-.09-.054-.162v-1.955c0-.06.018-.114.054-.163a.244.244 0 01.181-.072h10.019zm4.702 14.096c-1.121 0-2.08-.295-2.875-.886-.796-.58-1.339-1.376-1.628-2.389a7.16 7.16 0 01-.271-2.027c0-.784.09-1.484.271-2.099.301-.989.856-1.761 1.664-2.316.783-.555 1.736-.832 2.857-.832 1.085 0 2.014.271 2.785.814.772.555 1.314 1.327 1.628 2.316.217.664.325 1.357.325 2.081 0 .712-.096 1.381-.289 2.009-.289 1.037-.826 1.852-1.609 2.443-.796.59-1.749.886-2.858.886zm0-2.406c.434 0 .802-.133 1.103-.398.314-.266.537-.634.669-1.104a5.57 5.57 0 00.163-1.394c0-.555-.054-1.025-.163-1.411-.144-.446-.373-.796-.687-1.05-.301-.253-.669-.38-1.103-.38-.458 0-.832.127-1.121.38-.302.254-.519.604-.651 1.05-.109.326-.163.796-.163 1.411 0 .603.048 1.068.145 1.394.132.47.355.838.669 1.104.301.265.681.398 1.139.398zM41.668 54.449c-1.013 0-1.91-.2-2.695-.598a4.43 4.43 0 01-1.808-1.682c-.422-.724-.633-1.557-.633-2.498v-9.084c0-.06.018-.114.054-.162a.245.245 0 01.181-.073h2.315c.072 0 .133.024.18.073a.225.225 0 01.073.163v9.101c0 .7.211 1.267.633 1.701.434.435 1 .652 1.7.652.712 0 1.284-.217 1.718-.652.422-.434.633-1 .633-1.7v-9.102c0-.06.024-.115.073-.163a.225.225 0 01.162-.073h2.333c.073 0 .133.024.181.073a.264.264 0 01.054.163v9.083c0 .941-.21 1.774-.633 2.498a4.43 4.43 0 01-1.808 1.682c-.784.398-1.688.598-2.713.598zm11.376-.019c-.892 0-1.67-.126-2.333-.38-.663-.253-1.176-.603-1.538-1.05a2.373 2.373 0 01-.56-1.537v-.2c0-.072.024-.132.072-.18a.293.293 0 01.181-.054h2.206c.06 0 .115.018.163.054a.245.245 0 01.072.18v.019c0 .29.163.537.489.742.325.205.73.307 1.212.307.458 0 .825-.09 1.103-.271.277-.181.416-.398.416-.652 0-.24-.12-.422-.362-.542-.241-.121-.633-.248-1.176-.38a12.243 12.243 0 01-1.464-.453c-.844-.301-1.52-.663-2.026-1.086-.506-.422-.76-1.03-.76-1.827 0-.977.38-1.755 1.14-2.334.76-.58 1.772-.869 3.038-.869.844 0 1.585.133 2.224.398.64.278 1.134.664 1.483 1.158.35.483.525 1.038.525 1.665 0 .072-.024.127-.072.163-.036.048-.09.072-.163.072H54.78a.225.225 0 01-.163-.072c-.048-.036-.072-.09-.072-.163 0-.29-.151-.537-.452-.742-.29-.193-.682-.29-1.176-.29-.434 0-.79.079-1.067.236-.277.157-.416.374-.416.651 0 .266.133.465.398.597.277.133.73.278 1.356.435.157.036.326.078.507.126l.596.163c.941.278 1.682.633 2.225 1.068.543.446.814 1.086.814 1.918 0 .977-.386 1.743-1.158 2.298-.783.555-1.826.832-3.128.832zM68 48.115c.072.507.097 1.074.072 1.701-.012.157-.096.235-.253.235H61.67c-.084 0-.108.03-.072.09.036.266.108.532.217.797.338.748 1.037 1.122 2.098 1.122.856-.012 1.525-.356 2.007-1.032.06-.084.12-.126.181-.126.048 0 .097.024.145.072l1.428 1.43c.073.06.109.114.109.163 0 .036-.03.09-.09.162a4.346 4.346 0 01-1.682 1.267c-.688.302-1.447.453-2.279.453-1.133 0-2.098-.26-2.894-.779-.783-.518-1.35-1.242-1.7-2.171-.277-.663-.416-1.532-.416-2.606 0-.736.103-1.381.308-1.936.301-.94.832-1.689 1.591-2.244.76-.555 1.664-.832 2.713-.832 1.326 0 2.393.386 3.201 1.158.808.76 1.296 1.785 1.465 3.076zm-4.648-1.81c-.832 0-1.38.393-1.646 1.177-.048.169-.096.38-.144.633 0 .072.036.109.108.109h3.436c.085 0 .115-.036.09-.109a16.882 16.882 0 00-.108-.56c-.12-.399-.325-.706-.615-.924-.301-.217-.675-.325-1.12-.325zm11.557-2.388c.47 0 .843.09 1.12.271.11.06.151.163.127.308l-.416 2.262c-.012.157-.108.205-.289.145a1.956 1.956 0 00-.687-.109c-.109 0-.253.018-.434.055a1.969 1.969 0 00-1.23.524c-.325.314-.488.73-.488 1.249v5.428c0 .06-.024.115-.073.163a.225.225 0 01-.162.073h-2.333a.225.225 0 01-.163-.073.225.225 0 01-.073-.163v-9.753c0-.072.025-.133.073-.18a.264.264 0 01.163-.055h2.333c.06 0 .114.018.162.054a.246.246 0 01.073.181v.76c0 .036.012.06.036.072.024.013.048.007.072-.018.543-.796 1.272-1.194 2.189-1.194zm6.438 10.513c-.892 0-1.67-.126-2.333-.38-.663-.253-1.176-.603-1.537-1.05a2.421 2.421 0 01-.543-1.537v-.2c0-.072.024-.132.072-.18.037-.036.09-.054.163-.054h2.207c.06 0 .114.018.162.054a.245.245 0 01.073.18v.019c0 .29.162.537.488.742.325.205.735.307 1.23.307.446 0 .808-.09 1.085-.271.277-.181.416-.398.416-.652 0-.24-.115-.422-.344-.542-.24-.121-.633-.248-1.175-.38a11.998 11.998 0 01-1.483-.453c-.844-.301-1.52-.663-2.026-1.086-.506-.422-.76-1.03-.76-1.827 0-.977.386-1.755 1.158-2.334.76-.58 1.766-.869 3.02-.869.856 0 1.598.133 2.225.398.639.278 1.133.664 1.483 1.158.361.483.542 1.038.542 1.665 0 .072-.024.127-.072.163a.245.245 0 01-.18.072H83.1a.246.246 0 01-.18-.072c-.049-.036-.073-.09-.073-.163 0-.29-.145-.537-.434-.742-.302-.193-.7-.29-1.194-.29-.434 0-.79.079-1.067.236-.277.157-.416.374-.416.651 0 .266.133.465.398.597.277.133.736.278 1.375.435.144.036.307.078.488.126.193.049.392.103.597.163.94.278 1.682.633 2.224 1.068.543.446.814 1.086.814 1.918 0 .977-.386 1.743-1.157 2.298-.772.555-1.815.832-3.13.832zm19.007-13.915a.334.334 0 01.29-.163h2.333c.06 0 .114.024.162.073a.223.223 0 01.073.163V54.05c0 .06-.024.115-.073.163a.223.223 0 01-.162.073h-2.333c-.073 0-.127-.025-.163-.073a.225.225 0 01-.072-.163v-8.776c0-.06-.019-.09-.055-.09-.024 0-.048.024-.072.072l-2.116 3.293a.292.292 0 01-.271.163h-1.176a.292.292 0 01-.271-.163l-2.116-3.293c-.024-.048-.048-.066-.072-.054-.025 0-.037.03-.037.09v8.758c0 .06-.024.115-.072.163a.245.245 0 01-.18.073h-2.316a.245.245 0 01-.18-.073.225.225 0 01-.073-.163V40.588c0-.06.024-.115.073-.163a.245.245 0 01.18-.073h2.315c.12 0 .217.055.29.163l2.984 4.633c.036.084.072.084.108 0l3.002-4.633zm9.622 13.934c-1.122 0-2.08-.296-2.876-.887-.796-.58-1.338-1.375-1.628-2.389a7.196 7.196 0 01-.271-2.026c0-.785.091-1.484.271-2.1.302-.989.856-1.76 1.664-2.316.784-.555 1.736-.832 2.858-.832 1.085 0 2.013.271 2.785.814.771.555 1.314 1.327 1.627 2.316.217.664.326 1.358.326 2.081 0 .712-.097 1.382-.289 2.009-.29 1.037-.826 1.852-1.61 2.443-.796.59-1.748.887-2.857.887zm0-2.407c.434 0 .801-.133 1.103-.398.313-.266.536-.634.669-1.104.108-.422.163-.887.163-1.393 0-.555-.055-1.026-.163-1.412-.145-.446-.374-.796-.687-1.05-.302-.253-.669-.38-1.104-.38-.458 0-.831.127-1.121.38-.301.254-.518.604-.651 1.05-.108.326-.163.796-.163 1.412 0 .603.049 1.067.145 1.393.133.47.356.838.669 1.104.302.265.681.398 1.14.398zm10.634 2.388c-.881 0-1.652-.126-2.315-.38-.663-.253-1.182-.603-1.556-1.05a2.425 2.425 0 01-.542-1.537v-.2c0-.072.024-.132.072-.18a.265.265 0 01.163-.054h2.206c.073 0 .133.018.181.054a.247.247 0 01.073.18v.019c0 .29.162.537.488.742.325.205.729.307 1.212.307.458 0 .825-.09 1.103-.271.277-.181.416-.398.416-.652 0-.24-.121-.422-.362-.542-.241-.121-.633-.248-1.176-.38-.627-.157-1.115-.308-1.464-.453-.856-.301-1.532-.663-2.026-1.086-.506-.422-.76-1.03-.76-1.827 0-.977.38-1.755 1.14-2.334.759-.58 1.772-.869 3.038-.869.844 0 1.586.133 2.225.398.639.278 1.133.664 1.483 1.158.349.483.524 1.038.524 1.665 0 .072-.024.127-.072.163a.227.227 0 01-.163.072h-2.134a.226.226 0 01-.163-.072c-.048-.036-.072-.09-.072-.163 0-.29-.151-.537-.452-.742-.302-.193-.694-.29-1.176-.29-.446 0-.808.079-1.085.236-.277.157-.416.374-.416.651 0 .266.139.465.416.597.265.133.717.278 1.356.435l.507.126.597.163c.94.278 1.681.633 2.224 1.068.543.446.814 1.086.814 1.918 0 .977-.386 1.743-1.158 2.298-.783.555-1.832.832-3.146.832zm11.755-8.36c0 .06-.018.115-.054.163a.247.247 0 01-.181.073h-1.899c-.072 0-.109.03-.109.09v4.234c0 .435.091.76.272.977.18.206.47.308.868.308h.651c.072 0 .126.024.163.072a.226.226 0 01.072.163v1.9c0 .145-.078.23-.235.254-.555.024-.953.036-1.194.036-1.097 0-1.917-.181-2.459-.543-.543-.362-.82-1.05-.832-2.063v-5.338c0-.06-.036-.09-.109-.09h-1.139a.225.225 0 01-.163-.073.225.225 0 01-.072-.163v-1.773c0-.072.024-.133.072-.18a.265.265 0 01.163-.055h1.139c.073 0 .109-.036.109-.109v-2.37c0-.06.018-.115.054-.163a.244.244 0 01.181-.073h2.224c.061 0 .115.025.163.073a.226.226 0 01.072.163v2.37c0 .073.037.109.109.109h1.899c.072 0 .132.018.181.054a.294.294 0 01.054.181v1.773z" fill="#252530"/><path d="M48.884 109.44a.285.285 0 01.253-.145h1.664a.17.17 0 01.145.073.17.17 0 01.072.144v12.233c0 .06-.024.108-.072.145a.172.172 0 01-.145.072h-1.664a.225.225 0 01-.162-.072.198.198 0 01-.055-.145v-8.632c0-.036-.012-.06-.036-.072-.036-.012-.06 0-.072.036l-2.26 3.475a.284.284 0 01-.254.144h-.832a.284.284 0 01-.253-.144l-2.279-3.457c-.012-.036-.03-.048-.054-.036-.036.012-.054.036-.054.073v8.613c0 .06-.025.108-.073.145a.172.172 0 01-.144.072h-1.664a.172.172 0 01-.145-.072.174.174 0 01-.072-.145v-12.233a.17.17 0 01.072-.144.17.17 0 01.145-.073h1.664c.108 0 .192.049.253.145l2.948 4.47c.024.024.048.036.072.036.024 0 .042-.012.054-.036l2.948-4.47zm5.77 2.009c-.374 0-.682-.121-.923-.362s-.362-.549-.362-.923.12-.682.362-.923c.241-.241.549-.362.922-.362.374 0 .681.121.923.362.24.241.361.549.361.923s-.12.682-.361.923c-.242.241-.549.362-.923.362zm-.869 10.513a.172.172 0 01-.144-.072.174.174 0 01-.073-.145v-8.831a.17.17 0 01.073-.144.17.17 0 01.144-.073h1.664c.06 0 .115.024.163.073a.194.194 0 01.054.144v8.831c0 .06-.018.108-.054.145a.225.225 0 01-.163.072h-1.664zm10.02-12.45a.17.17 0 01.072-.144.17.17 0 01.144-.073h1.664c.06 0 .115.024.163.073a.194.194 0 01.054.144v12.233c0 .06-.018.108-.054.145a.225.225 0 01-.163.072h-1.664a.172.172 0 01-.144-.072.174.174 0 01-.073-.145v-.543c0-.036-.012-.06-.036-.072-.024-.012-.048 0-.072.036-.53.627-1.224.941-2.08.941-.856 0-1.58-.223-2.17-.67-.59-.446-1.019-1.067-1.284-1.864-.217-.675-.326-1.429-.326-2.261 0-.857.103-1.593.308-2.208.265-.796.693-1.418 1.284-1.864.59-.446 1.332-.669 2.224-.669.832 0 1.513.301 2.044.904.024.024.048.037.072.037.024-.013.036-.037.036-.073v-3.927zm-.435 9.917c.278-.495.416-1.195.416-2.099 0-.941-.15-1.659-.452-2.154-.325-.53-.784-.796-1.374-.796-.615 0-1.098.253-1.447.76-.362.531-.543 1.267-.543 2.208 0 .844.145 1.538.434 2.081.338.579.85.868 1.538.868.614 0 1.09-.289 1.428-.868zm4.485-2.009a.196.196 0 01-.144-.054.225.225 0 01-.073-.163v-1.375c0-.061.024-.115.073-.163a.196.196 0 01.144-.054h5.697c.06 0 .109.018.145.054a.224.224 0 01.072.163v1.375c0 .06-.024.115-.072.163a.196.196 0 01-.145.054h-5.697zm15.988-7.98a.285.285 0 01.253-.145h1.664c.06 0 .114.024.162.073a.194.194 0 01.055.144v12.233c0 .06-.018.108-.055.145a.226.226 0 01-.162.072h-1.664a.172.172 0 01-.145-.072.174.174 0 01-.072-.145v-8.632c0-.036-.012-.06-.036-.072-.037-.012-.06 0-.073.036l-2.26 3.475a.284.284 0 01-.254.144h-.831a.284.284 0 01-.254-.144l-2.278-3.457c-.012-.036-.03-.048-.055-.036-.036.012-.054.036-.054.073v8.613c0 .06-.018.108-.054.145a.225.225 0 01-.163.072h-1.664a.172.172 0 01-.144-.072.174.174 0 01-.073-.145v-12.233a.17.17 0 01.073-.144.17.17 0 01.144-.073h1.664c.109 0 .193.049.253.145l2.948 4.47c.024.024.048.036.073.036.024 0 .042-.012.054-.036l2.948-4.47zm8.102 3.131c.76 0 1.429.132 2.007.398.579.265 1.025.627 1.339 1.085.313.471.47 1.002.47 1.593v6.098c0 .06-.018.108-.054.145a.225.225 0 01-.163.072H93.88a.172.172 0 01-.145-.072.174.174 0 01-.072-.145v-.579c0-.036-.012-.061-.036-.073-.024 0-.048.013-.073.037-.59.651-1.446.977-2.568.977-.904 0-1.645-.229-2.224-.688-.59-.458-.886-1.14-.886-2.045 0-.941.331-1.676.994-2.207.651-.519 1.574-.778 2.767-.778h1.936c.06 0 .09-.03.09-.091v-.434c0-.471-.139-.839-.416-1.104-.277-.253-.693-.38-1.248-.38-.458 0-.826.085-1.103.253-.29.157-.47.38-.543.67-.036.145-.12.205-.253.181l-1.754-.217a.387.387 0 01-.145-.055c-.048-.036-.066-.078-.054-.126.096-.736.494-1.339 1.194-1.81.687-.47 1.555-.705 2.604-.705zm-.434 7.871c.59 0 1.097-.157 1.519-.47.422-.314.633-.712.633-1.195v-.85c0-.061-.03-.091-.09-.091h-1.52c-.639 0-1.139.121-1.5.362-.374.241-.561.585-.561 1.032 0 .386.144.681.434.886.277.217.639.326 1.085.326zm10.652-7.835c.386 0 .723.078 1.013.235.096.048.132.139.108.271l-.307 1.629c-.012.145-.097.187-.253.127a1.984 1.984 0 00-.633-.091c-.157 0-.278.006-.362.018-.507.024-.929.199-1.266.525-.338.338-.506.772-.506 1.303v5.121c0 .06-.019.108-.055.145a.226.226 0 01-.162.072h-1.664a.172.172 0 01-.145-.072.174.174 0 01-.072-.145v-8.813c0-.06.024-.114.072-.162a.193.193 0 01.145-.055h1.664a.26.26 0 01.162.055.263.263 0 01.055.162v.815c0 .048.012.072.036.072.012.012.03 0 .054-.036.506-.784 1.212-1.176 2.116-1.176zm2.713 9.355a.172.172 0 01-.145-.072.174.174 0 01-.072-.145v-12.233c0-.06.024-.108.072-.144a.17.17 0 01.145-.073h1.663a.17.17 0 01.145.073.172.172 0 01.073.144v6.533c0 .036.012.06.036.072.024.012.048 0 .072-.036l2.93-3.239a.382.382 0 01.271-.127h1.917c.121 0 .181.043.181.127a.314.314 0 01-.054.145l-2.297 2.75c-.036.036-.042.079-.018.127l2.713 5.845a.276.276 0 01.036.108c0 .097-.067.145-.199.145h-1.754a.257.257 0 01-.254-.163l-1.971-4.596c-.012-.024-.036-.042-.072-.054-.024 0-.042.012-.055.036l-1.446 1.665a.29.29 0 00-.036.126v2.769c0 .06-.025.108-.073.145a.172.172 0 01-.145.072h-1.663zm16.367-5.664c.048.302.072.64.072 1.014l-.018.56c0 .145-.072.218-.217.218h-5.661c-.06 0-.09.03-.09.09.036.398.09.67.163.814.289.869.994 1.309 2.116 1.321.819 0 1.471-.337 1.953-1.013.048-.072.108-.109.181-.109.048 0 .09.019.126.055l1.122.923c.108.084.126.181.054.289a3.686 3.686 0 01-1.501 1.231c-.615.289-1.302.434-2.062.434-.94 0-1.742-.211-2.405-.633-.651-.423-1.128-1.014-1.429-1.774-.277-.651-.416-1.556-.416-2.714 0-.7.072-1.267.217-1.701.241-.844.699-1.514 1.374-2.009.664-.482 1.465-.723 2.406-.723 2.375 0 3.713 1.242 4.015 3.727zm-4.015-1.918c-.446 0-.82.115-1.121.344-.29.217-.495.525-.615.923-.073.205-.121.47-.145.796-.024.06 0 .09.072.09h3.672c.06 0 .09-.03.09-.09a3.346 3.346 0 00-.109-.688c-.108-.434-.319-.772-.633-1.013-.325-.241-.729-.362-1.211-.362zm10.724-.181c0 .06-.018.109-.054.145a.224.224 0 01-.163.072h-1.844c-.061 0-.091.03-.091.091v4.361c0 .458.103.79.308.995.192.205.506.308.94.308h.543c.06 0 .108.018.144.054a.225.225 0 01.073.163v1.357c0 .133-.073.211-.217.235l-.941.018c-.952 0-1.664-.163-2.134-.488-.47-.326-.711-.941-.723-1.846v-5.157c0-.061-.03-.091-.091-.091h-1.031a.171.171 0 01-.144-.072.174.174 0 01-.073-.145v-1.267c0-.06.025-.114.073-.162a.191.191 0 01.144-.055h1.031c.061 0 .091-.03.091-.09v-2.117c0-.061.024-.115.072-.163a.195.195 0 01.145-.054h1.573c.06 0 .109.018.145.054a.224.224 0 01.072.163v2.117c0 .06.03.09.091.09h1.844c.061 0 .115.018.163.055a.263.263 0 01.054.162v1.267z" fill="#fff"/><path d="M73.227 136.782c0 .06-.025.109-.073.145a.172.172 0 01-.144.072h-5.914c-.06 0-.09.03-.09.091v2.804c0 .061.03.091.09.091h3.888c.06 0 .109.018.145.054a.225.225 0 01.072.163v1.755a.224.224 0 01-.072.163.196.196 0 01-.145.054h-3.888c-.06 0-.09.03-.09.091v4.994c0 .06-.019.109-.055.145a.226.226 0 01-.163.072h-2.116a.172.172 0 01-.144-.072.172.172 0 01-.073-.145v-12.232c0-.061.024-.109.073-.145a.172.172 0 01.144-.072h8.338c.06 0 .108.024.144.072a.171.171 0 01.073.145v1.755zm7.993 10.694c-.12 0-.199-.06-.235-.181l-.542-1.773c-.025-.048-.055-.072-.09-.072h-4.45c-.036 0-.066.024-.09.072l-.525 1.773c-.036.121-.114.181-.235.181h-2.297c-.072 0-.126-.024-.162-.072-.037-.036-.043-.097-.018-.181l3.906-12.232c.036-.121.115-.181.235-.181h2.84c.12 0 .198.06.234.181l3.907 12.232a.2.2 0 01.018.09c0 .109-.066.163-.199.163H81.22zm-4.756-4.107c-.012.072.012.108.072.108h3.183c.073 0 .097-.036.073-.108l-1.628-5.375c-.012-.048-.03-.072-.054-.072-.025.012-.043.036-.055.072l-1.591 5.375zm9.06 4.107a.172.172 0 01-.144-.072.173.173 0 01-.073-.145v-12.232c0-.061.025-.109.073-.145a.172.172 0 01.145-.072h2.115c.06 0 .115.024.163.072a.195.195 0 01.055.145v10.169c0 .061.03.091.09.091h5.914c.06 0 .114.018.163.054a.266.266 0 01.054.163v1.755c0 .06-.018.109-.054.145a.226.226 0 01-.163.072h-8.337zm10.345 0a.225.225 0 01-.163-.072.196.196 0 01-.054-.145v-12.232c0-.061.018-.109.054-.145a.225.225 0 01.163-.072h2.116c.06 0 .109.024.145.072a.171.171 0 01.072.145v10.169c0 .061.03.091.09.091h5.914c.061 0 .115.018.163.054a.266.266 0 01.054.163v1.755c0 .06-.018.109-.054.145a.224.224 0 01-.163.072h-8.337zm-27.037 14.712c-.024.024-.03.048-.018.072.012.024.036.036.072.036h4.901a.26.26 0 01.163.055.262.262 0 01.054.162v1.756c0 .06-.018.108-.054.144a.223.223 0 01-.163.073H65.65a.223.223 0 01-.163-.073.194.194 0 01-.054-.144v-1.665a.37.37 0 01.108-.272 46.146 46.146 0 001.809-1.881c.615-.688 1-1.116 1.157-1.285.338-.398.682-.778 1.031-1.14 1.097-1.219 1.646-2.123 1.646-2.715 0-.422-.15-.772-.452-1.049-.302-.265-.693-.398-1.176-.398-.482 0-.874.133-1.175.398-.302.277-.452.639-.452 1.086v.452c0 .06-.024.115-.073.163a.196.196 0 01-.144.054h-2.134a.196.196 0 01-.145-.054.226.226 0 01-.072-.163v-.85a3.158 3.158 0 01.615-1.738 3.619 3.619 0 011.482-1.14c.627-.265 1.327-.398 2.098-.398.856 0 1.604.157 2.243.471.627.326 1.115.76 1.465 1.303.337.543.506 1.146.506 1.809 0 .507-.126 1.026-.38 1.556-.253.531-.633 1.104-1.139 1.719-.374.471-.778.935-1.212 1.394-.434.458-1.079 1.122-1.935 1.99l-.271.272zm11.05 2.497c-1.326 0-2.375-.374-3.147-1.122-.772-.736-1.157-1.743-1.157-3.022v-4.777c0-1.255.385-2.25 1.157-2.986.772-.736 1.82-1.104 3.147-1.104 1.326 0 2.381.368 3.165 1.104.771.736 1.157 1.731 1.157 2.986v4.777c0 1.279-.386 2.286-1.157 3.022-.784.748-1.839 1.122-3.165 1.122zm0-2.19c.542 0 .977-.169 1.302-.506.314-.326.47-.766.47-1.321v-4.977c0-.554-.156-.995-.47-1.32-.325-.338-.76-.507-1.302-.507-.53 0-.953.169-1.266.507-.326.325-.488.766-.488 1.32v4.977c0 .555.162.995.488 1.321.313.337.735.506 1.266.506zm9.386-.307c-.024.024-.03.048-.018.072.012.024.036.036.072.036h4.901a.26.26 0 01.163.055.263.263 0 01.054.162v1.756c0 .06-.018.108-.054.144a.223.223 0 01-.163.073h-8.138a.17.17 0 01-.145-.073.17.17 0 01-.072-.144v-1.665a.37.37 0 01.109-.272 46.146 46.146 0 001.808-1.881c.615-.688 1-1.116 1.158-1.285.337-.398.68-.778 1.03-1.14 1.098-1.219 1.646-2.123 1.646-2.715 0-.422-.15-.772-.452-1.049-.301-.265-.693-.398-1.175-.398-.483 0-.875.133-1.176.398-.302.277-.452.639-.452 1.086v.452c0 .06-.018.115-.054.163a.265.265 0 01-.163.054h-2.134a.196.196 0 01-.145-.054.226.226 0 01-.072-.163v-.85a3.16 3.16 0 01.615-1.738c.373-.494.874-.874 1.5-1.14.616-.265 1.309-.398 2.08-.398.856 0 1.604.157 2.243.471.627.326 1.115.76 1.465 1.303.338.543.506 1.146.506 1.809 0 .507-.126 1.026-.38 1.556-.253.531-.632 1.104-1.139 1.719-.374.471-.778.935-1.212 1.394-.434.458-1.079 1.122-1.935 1.99l-.27.272zm14.287-3.746c.241.555.362 1.194.362 1.918a4.91 4.91 0 01-.326 1.81 3.584 3.584 0 01-1.446 1.809c-.688.434-1.495.652-2.424.652-.916 0-1.718-.23-2.405-.688-.7-.459-1.2-1.08-1.501-1.864a5.15 5.15 0 01-.29-1.52c0-.145.073-.217.218-.217h2.134c.144 0 .217.072.217.217.048.398.114.694.199.887.108.313.289.555.542.724.241.181.53.271.868.271.675 0 1.14-.296 1.393-.887.169-.362.253-.784.253-1.266 0-.567-.09-1.032-.271-1.394-.278-.567-.742-.85-1.393-.85a.934.934 0 00-.416.108c-.145.085-.32.199-.524.344a.243.243 0 01-.145.055c-.072 0-.127-.037-.163-.109l-1.067-1.502a.222.222 0 01-.036-.127c0-.072.024-.132.072-.181l2.876-2.515c.024-.024.036-.048.036-.072-.012-.024-.036-.036-.072-.036h-4.25a.173.173 0 01-.145-.073.171.171 0 01-.072-.145v-1.755c0-.06.024-.108.072-.145a.172.172 0 01.145-.072h7.541c.061 0 .115.024.163.072a.199.199 0 01.054.145v1.991a.38.38 0 01-.126.271l-2.369 2.172c-.025.024-.031.048-.019.072 0 .024.025.036.073.036 1.049.205 1.796.826 2.242 1.864z" fill="#252530"/></g><defs><clipPath id="a"><path fill="#fff" d="M0 0H170V190H0z"/></clipPath></defs></svg>