<svg width="64" height="64" viewBox="0 0 64 64" fill="none" xmlns="http://www.w3.org/2000/svg">
<path d="M19 3H7C4.79086 3 3 4.79086 3 7V19" stroke="#415465"/>
<path d="M3 45V57C3 59.2091 4.79086 61 7 61H19" stroke="#415465"/>
<path d="M45 3H57C59.2091 3 61 4.79086 61 7V19" stroke="#415465"/>
<path d="M61 45V57C61 59.2091 59.2091 61 57 61H45" stroke="#415465"/>
<rect x="14.5" y="15.5" width="13" height="13" rx="3.5" fill="#CDD2D8" stroke="#415465"/>
<rect x="35.5" y="15.5" width="13" height="13" rx="3.5" fill="black" fill-opacity="0.04" stroke="#415465"/>
<line x1="31.5" y1="29" x2="31.5" y2="15" stroke="#415465"/>
<rect x="14.5" y="36.5" width="13" height="13" rx="3.5" fill="black" fill-opacity="0.04" stroke="#415465"/>
<path d="M48 46V40C48 37.7909 46.2091 36 44 36H40C37.7909 36 36 37.7909 36 40V46" stroke="#FD6219"/>
<path d="M14 32.5L27.5 32.5C29.7091 32.5 31.5 34.2909 31.5 36.5L31.5 46C31.5 48.2091 33.2909 50 35.5 50L49 50" stroke="#FD6219"/>
</svg>
