<svg width="64" height="64" fill="none" xmlns="http://www.w3.org/2000/svg"><path fill-rule="evenodd" clip-rule="evenodd" d="M48 54.006a15.06 15.06 0 01-9.5-13.993v-8.6a15.206 15.206 0 009.499-3.34 15.18 15.18 0 009.501 3.343v8.597A15.062 15.062 0 0148 54.006zm9.5-25.09c.837 0 1.674-.083 2.5-.25v11.347a17.56 17.56 0 01-12 16.654 17.559 17.559 0 01-12-16.654V28.667a12.703 12.703 0 0011.47-3.47l.01-.01.52-.52.52.52.03.03a12.68 12.68 0 008.95 3.699z" fill="#fff"/><path fill-rule="evenodd" clip-rule="evenodd" d="M55.5 20.95a26.661 26.661 0 00-5.268-8.403 28.944 28.944 0 01-5.485 3.866l-2.52 1.267A29.039 29.039 0 0132 20v39.97a29.14 29.14 0 01-.936.027 9.035 9.035 0 01-.836 0 29.334 29.334 0 01-19.94-8.233 1.342 1.342 0 01-.317-.31 29.332 29.332 0 0120.3-50.118c.277-.013.556-.012.834 0A29.333 29.333 0 0151.046 9.57a1.335 1.335 0 01.317.31 29.328 29.328 0 016.98 11.07H55.5zM17.48 47.506c1.378 3.653 3.116 6.505 5.054 8.556a26.667 26.667 0 01-9.509-5.4 26.276 26.276 0 014.455-3.156zm-.893-2.587a28.951 28.951 0 00-5.485 3.866A26.667 26.667 0 014.034 32h10.633a49.24 49.24 0 001.92 12.92zm-1.92-15.587H4.034a26.665 26.665 0 017.08-16.799 28.942 28.942 0 005.5 3.88 49.242 49.242 0 00-1.947 12.92zm2.84-15.506a26.286 26.286 0 01-4.48-3.16 26.665 26.665 0 019.546-5.41c-1.945 2.054-3.686 4.91-5.066 8.57zm26.346 0c-1.378-3.654-3.115-6.505-5.054-8.557a26.666 26.666 0 019.51 5.4 26.282 26.282 0 01-4.456 3.157zm-2.52 1.24A26.493 26.493 0 0132 17.333v-13.2c3.8.8 7.187 4.974 9.334 10.934zm-12-10.934v13.2a26.492 26.492 0 01-9.333-2.2c2.147-6.026 5.534-10.2 9.334-11zm-10.226 13.48A29.04 29.04 0 0029.334 20v9.333h-12a47 47 0 011.773-11.72zM17.334 32h12v9.4a29.04 29.04 0 00-10.227 2.32A47 47 0 0117.334 32zM20 46.267a26.492 26.492 0 019.334-2.2V57.2c-3.8-.8-7.187-4.973-9.334-10.933z" fill="#fff"/></svg>