<svg width="64" height="64" fill="none" xmlns="http://www.w3.org/2000/svg"><path fill-rule="evenodd" clip-rule="evenodd" d="M46.667 21.333C46.667 29.433 40.1 36 32 36s-14.667-6.566-14.667-14.667c0-8.1 6.567-14.666 14.667-14.666s14.667 6.566 14.667 14.666zM36 16c-.001-.81-.248-1.6-.707-2.267l.56-1.133a1.334 1.334 0 10-2.373-1.2l-.387.773a3.6 3.6 0 00-2.187 0l-.386-.773a1.333 1.333 0 00-2.374 1.2l.56 1.133A4 4 0 0028 16c-.157 0-.313.014-.466.04L25.04 14.6a1.332 1.332 0 00-.882-.17.924.924 0 00-.658.436.924.924 0 00-.049.788c.101.275.313.519.589.678l1.668.963c-.214.351-.254.612-.254.612l4.76 2.373a4 4 0 003.573 0l4.76-2.373s-.068-.314-.31-.69l1.534-.885c.276-.16.488-.403.589-.678a.924.924 0 00-.05-.788.924.924 0 00-.657-.437 1.332 1.332 0 00-.882.171l-2.457 1.418A2.658 2.658 0 0036 16zm-10.667 4.827V22h-3.134c-.318 0-.623.105-.848.293a.924.924 0 00-.352.707c0 .265.127.52.352.707.225.188.53.293.848.293h3.134v1.333c0 1.025.236 2.025.678 2.929L24.038 29.4c-.276.16-.488.403-.589.678a.924.924 0 00.05.788c.132.23.369.387.657.437.289.05.606-.012.882-.171l2.114-1.22.133.135a6.667 6.667 0 003.38 1.818v-8.638c-.98-.205-1.299-.366-3.45-1.453a468.15 468.15 0 00-1.883-.947zM38.666 24h2.944c.318 0 .623-.105.848-.293A.924.924 0 0042.81 23a.924.924 0 00-.352-.707A1.332 1.332 0 0041.61 22h-2.944v-1.174c-.667.335-1.226.618-1.702.859l-.068.035c-2.245 1.136-2.567 1.299-3.563 1.507v8.638a6.667 6.667 0 003.445-1.883l1.992 1.15c.276.16.593.22.882.17a.924.924 0 00.658-.436.924.924 0 00.049-.788 1.331 1.331 0 00-.589-.678l-1.824-1.053c.47-.926.72-1.957.72-3.014V24z" fill="#F2F5F8"/><path d="M32 57.333a1.333 1.333 0 100-2.666 1.333 1.333 0 000 2.666z" fill="#F2F5F8"/><path d="M20 41.334a1.333 1.333 0 00-1.333 1.333v4H9.093a4 4 0 100 2.666H20A1.334 1.334 0 0021.333 48v-5.333A1.334 1.334 0 0020 41.333zm-14.667 8a1.333 1.333 0 110-2.667 1.333 1.333 0 010 2.666z" fill="#fff"/><path d="M5.333 33.093V36a1.333 1.333 0 00.84 1.24L12 39.574v3.093a1.333 1.333 0 102.667 0v-4a1.333 1.333 0 00-.84-1.24L8 35.093v-2a4 4 0 10-2.667 0zM6.667 28a1.333 1.333 0 110 2.667 1.333 1.333 0 010-2.667zM20 52c-2.92 0-3.12-.106-3.613.387l-2.667 2.666a4 4 0 101.88 1.88l2.28-2.266H20A1.333 1.333 0 0020 52zm-8 8a1.334 1.334 0 11-.01-2.668A1.334 1.334 0 0112 60zM50.28 55.067C47.453 52.24 47.4 52 46.667 52H44a1.334 1.334 0 000 2.667h2.12l2.28 2.28a4 4 0 101.88-1.88zM52 60a1.334 1.334 0 11.011-2.668A1.334 1.334 0 0152 60zM58.667 44a4 4 0 00-3.76 2.667h-9.574v-4a1.334 1.334 0 00-2.666 0V48A1.334 1.334 0 0044 49.334h10.907A4 4 0 1058.667 44zm0 5.334a1.333 1.333 0 110-2.667 1.333 1.333 0 010 2.666z" fill="#fff"/><path d="M56 33.093v2l-5.827 2.334a1.333 1.333 0 00-.84 1.24v4a1.333 1.333 0 102.667 0v-3.093l5.827-2.334a1.334 1.334 0 00.84-1.24v-2.907a4 4 0 10-2.667 0zM57.333 28a1.334 1.334 0 110 2.667 1.334 1.334 0 010-2.667z" fill="#fff"/><path fill-rule="evenodd" clip-rule="evenodd" d="M38.24 44.352c.248.228.4.54.427.875l.773 9.333a7.466 7.466 0 11-14.88 0l.773-9.333A1.334 1.334 0 0126.667 44v-3.413a20 20 0 1110.666 0V44c.336 0 .66.125.907.352zM17.588 11.704a17.333 17.333 0 1028.824 19.26 17.333 17.333 0 00-28.824-19.26zm15.397 48.195a4.814 4.814 0 002.548-1.432v-.014a4.774 4.774 0 001.254-3.64c-.652-7.484-.654-8.15-.726-8.158-.015-.002-.033.025-.061.025h-8.107l-.68 8.133a4.813 4.813 0 005.772 5.086zm-3.651-18.766c1.767.267 3.565.267 5.333 0V44h-5.334v-2.867z" fill="#fff"/></svg>