<svg width="64" height="64" fill="none" xmlns="http://www.w3.org/2000/svg"><path d="M37.334 22.667A1.333 1.333 0 0136 21.333V16a4 4 0 00-8 0v5.333a1.333 1.333 0 01-2.666 0V16a6.667 6.667 0 0113.333 0v5.333a1.333 1.333 0 01-1.334 1.334zM33.333 50.907v-4.24a1.333 1.333 0 10-2.666 0v4.24a4 4 0 102.666 0zM32 56a1.334 1.334 0 110-2.667A1.334 1.334 0 0132 56zM14.667 53.333h-3.454l-2.28-2.28a4 4 0 10-1.88 1.88L9.72 55.6c.52.52.693.387 4.947.387a1.334 1.334 0 000-2.667v.013zM4 49.333a1.333 1.333 0 112.666-.01 1.333 1.333 0 01-2.666.01zM58.667 45.333a4 4 0 00-3.6 5.72l-2.28 2.28h-3.454a1.333 1.333 0 100 2.667c4.347 0 4.427.12 4.947-.387l2.667-2.666a4 4 0 101.72-7.614zm-.934 4.947a1.333 1.333 0 111.878-1.894 1.333 1.333 0 01-1.878 1.894z" fill="#fff"/><path d="M48 44h1.333a12 12 0 003.907-23.347 21.334 21.334 0 00-41.413-4.906A14.667 14.667 0 0016 44v5.333a1.333 1.333 0 00.6 1.107l3.4 2.28v2.187a4 4 0 102.667 0V52a1.334 1.334 0 00-.6-1.107l-3.4-2.28V44h26.666v4.613l-3.4 2.28a1.334 1.334 0 00-.6 1.107v2.907a4 4 0 102.667 0V52.72l3.4-2.28a1.333 1.333 0 00.6-1.107V44zM21.333 60a1.333 1.333 0 110-2.666 1.333 1.333 0 010 2.666zm-16-30.667a12 12 0 018-11.32 1.333 1.333 0 00.827-.853 18.666 18.666 0 0136.507 4.573 1.333 1.333 0 001 1.227 9.333 9.333 0 01-2.334 18.373h-32a12 12 0 01-12-12zM42.667 60a1.334 1.334 0 110-2.667 1.334 1.334 0 010 2.667z" fill="#fff"/><path fill-rule="evenodd" clip-rule="evenodd" d="M25.333 20h13.334a2.667 2.667 0 012.666 2.667v10.666A2.667 2.667 0 0138.667 36H25.332a2.667 2.667 0 01-2.666-2.667V22.667A2.667 2.667 0 0125.332 20zm5.06 4.559A2.666 2.666 0 0132 24a2.666 2.666 0 011.333 4.96v1.707a1.333 1.333 0 11-2.666 0V28.96a2.667 2.667 0 01-.273-4.401z" fill="#fff"/></svg>