<svg width="213" height="59" viewBox="0 0 213 59" fill="none" xmlns="http://www.w3.org/2000/svg">
<path d="M57.8698 30.9014L50.2749 8.26106C49.65 6.43445 48.1118 5.08853 46.2371 4.75205L22.4431 0.0893847C20.6165 -0.247096 18.6938 0.377797 17.444 1.77179L1.34099 19.8937C0.0912001 21.3357 -0.341418 23.3066 0.283475 25.1332L7.87833 47.7735C8.50322 49.6001 10.0414 50.946 11.9161 51.2825L35.7101 55.8971C36.0466 55.9452 36.3831 55.9933 36.7195 55.9933C38.2577 55.9933 39.6998 55.3684 40.7092 54.2147L56.8603 36.1409C58.062 34.6988 58.4946 32.728 57.8698 30.9014ZM54.7934 34.3624L38.6423 52.4362C38.0174 53.1091 37.1041 53.4456 36.1908 53.2533L12.3968 48.5907C11.4835 48.3984 10.7144 47.7735 10.426 46.8602L2.78305 24.2679C2.49463 23.3546 2.68691 22.3932 3.3118 21.6722L19.4629 3.5984C19.9436 3.02157 20.6646 2.73316 21.4337 2.73316C21.5779 2.73316 21.7702 2.73316 21.9144 2.78123L45.7084 7.39582C46.6217 7.5881 47.3908 8.26106 47.6792 9.1263L55.3221 31.7666C55.6105 32.6799 55.4182 33.6413 54.7934 34.3624Z" fill="#041E42"/>
<path d="M86.0352 12.2302C87.6695 13.8645 88.4867 16.0757 88.4867 18.9117V35.5916C88.4867 35.928 88.1983 36.2165 87.9099 36.2165H83.2472C82.9107 36.2165 82.6223 35.928 82.6223 35.6396V20.1135C82.6704 18.7195 82.1897 17.3735 81.3245 16.316C80.4112 15.3547 79.1133 14.8259 77.8155 14.874C76.4695 14.8259 75.2198 15.3547 74.2584 16.316C73.3451 17.3255 72.8644 18.6714 72.9125 20.0654V35.5916C72.9125 35.928 72.624 36.2165 72.3356 36.2165H67.6249C67.2884 36.2165 67 35.928 67 35.6396V10.7881C67 10.4516 67.2884 10.1632 67.5768 10.1632H72.2395C72.576 10.1632 72.8644 10.4516 72.8644 10.7881V12.4225C72.8644 12.5186 72.9125 12.5667 72.9605 12.6147C73.0086 12.6628 73.0567 12.6147 73.1047 12.5186C74.4987 10.692 76.6137 9.77869 79.4017 9.77869C82.2378 9.77869 84.4009 10.5959 86.0352 12.2302Z" fill="#041E42"/>
<path d="M73.678 47.868C73.762 48.144 73.816 48.456 73.84 48.804C73.864 49.14 73.876 49.584 73.876 50.136C73.876 50.688 73.864 51.138 73.84 51.486C73.816 51.822 73.768 52.128 73.696 52.404C73.516 53.148 73.138 53.742 72.562 54.186C71.998 54.618 71.296 54.834 70.456 54.834C69.928 54.834 69.454 54.732 69.034 54.528C68.626 54.312 68.296 54.006 68.044 53.61C68.02 53.586 67.996 53.58 67.972 53.592C67.96 53.592 67.954 53.61 67.954 53.646V58.038C67.954 58.158 67.894 58.218 67.774 58.218H67.18C67.06 58.218 67 58.158 67 58.038V45.798C67 45.678 67.06 45.618 67.18 45.618H67.774C67.894 45.618 67.954 45.678 67.954 45.798V46.662C67.954 46.698 67.96 46.722 67.972 46.734C67.996 46.734 68.02 46.722 68.044 46.698C68.296 46.302 68.626 46.002 69.034 45.798C69.454 45.582 69.928 45.474 70.456 45.474C71.272 45.474 71.962 45.69 72.526 46.122C73.09 46.554 73.474 47.136 73.678 47.868ZM72.67 52.26C72.766 52.044 72.832 51.792 72.868 51.504C72.904 51.216 72.922 50.766 72.922 50.154C72.922 49.53 72.904 49.08 72.868 48.804C72.832 48.516 72.772 48.252 72.688 48.012C72.568 47.508 72.298 47.1 71.878 46.788C71.458 46.476 70.954 46.32 70.366 46.32C69.802 46.32 69.328 46.482 68.944 46.806C68.572 47.118 68.32 47.52 68.188 48.012C68.104 48.228 68.044 48.48 68.008 48.768C67.972 49.056 67.954 49.518 67.954 50.154C67.954 50.79 67.972 51.252 68.008 51.54C68.044 51.828 68.104 52.092 68.188 52.332C68.32 52.824 68.572 53.226 68.944 53.538C69.328 53.838 69.802 53.988 70.366 53.988C70.918 53.988 71.392 53.85 71.788 53.574C72.184 53.286 72.454 52.914 72.598 52.458L72.67 52.26Z" fill="#041E42"/>
<path d="M79.4173 45.546C79.8253 45.546 80.1733 45.618 80.4613 45.762C80.5573 45.798 80.5933 45.876 80.5693 45.996L80.4073 46.572C80.3713 46.692 80.2933 46.728 80.1733 46.68C79.9333 46.584 79.6333 46.542 79.2733 46.554C78.6013 46.566 78.0433 46.824 77.5993 47.328C77.1673 47.82 76.9513 48.426 76.9513 49.146V54.51C76.9513 54.63 76.8913 54.69 76.7713 54.69H76.1773C76.0573 54.69 75.9973 54.63 75.9973 54.51V45.798C75.9973 45.678 76.0573 45.618 76.1773 45.618H76.7713C76.8913 45.618 76.9513 45.678 76.9513 45.798V47.022C76.9513 47.058 76.9573 47.082 76.9693 47.094C76.9933 47.094 77.0113 47.076 77.0233 47.04C77.2753 46.572 77.5993 46.206 77.9953 45.942C78.4033 45.678 78.8773 45.546 79.4173 45.546Z" fill="#041E42"/>
<path d="M84.9693 54.834C84.1293 54.834 83.4093 54.612 82.8093 54.168C82.2093 53.724 81.8013 53.13 81.5853 52.386C81.4533 51.906 81.3873 51.156 81.3873 50.136C81.3873 49.116 81.4533 48.372 81.5853 47.904C81.8013 47.16 82.2033 46.572 82.7913 46.14C83.3913 45.696 84.1233 45.474 84.9873 45.474C85.8273 45.474 86.5473 45.696 87.1473 46.14C87.7593 46.584 88.1673 47.172 88.3713 47.904C88.4433 48.18 88.4913 48.492 88.5153 48.84C88.5393 49.176 88.5513 49.608 88.5513 50.136C88.5513 50.688 88.5393 51.132 88.5153 51.468C88.4913 51.804 88.4433 52.11 88.3713 52.386C88.1673 53.13 87.7593 53.724 87.1473 54.168C86.5473 54.612 85.8213 54.834 84.9693 54.834ZM84.9693 53.988C85.6053 53.988 86.1453 53.814 86.5893 53.466C87.0453 53.106 87.3393 52.638 87.4713 52.062C87.5553 51.738 87.5973 51.102 87.5973 50.154C87.5973 49.194 87.5613 48.558 87.4893 48.246C87.3573 47.658 87.0633 47.19 86.6073 46.842C86.1633 46.494 85.6173 46.32 84.9693 46.32C84.3213 46.32 83.7753 46.494 83.3313 46.842C82.8873 47.19 82.5993 47.658 82.4673 48.246C82.3833 48.618 82.3413 49.254 82.3413 50.154C82.3413 51.054 82.3833 51.69 82.4673 52.062C82.5993 52.65 82.8873 53.118 83.3313 53.466C83.7753 53.814 84.3213 53.988 84.9693 53.988Z" fill="#041E42"/>
<path d="M93.9182 42.936C93.2102 42.936 92.7242 43.104 92.4602 43.44C92.2082 43.776 92.0822 44.322 92.0822 45.078V45.546C92.0822 45.594 92.1062 45.618 92.1542 45.618H94.2602C94.3802 45.618 94.4402 45.678 94.4402 45.798V46.32C94.4402 46.44 94.3802 46.5 94.2602 46.5H92.1542C92.1062 46.5 92.0822 46.524 92.0822 46.572V54.51C92.0822 54.63 92.0222 54.69 91.9022 54.69H91.3082C91.1882 54.69 91.1282 54.63 91.1282 54.51V46.572C91.1282 46.524 91.1042 46.5 91.0562 46.5H89.8682C89.7482 46.5 89.6882 46.44 89.6882 46.32V45.798C89.6882 45.678 89.7482 45.618 89.8682 45.618H91.0562C91.1042 45.618 91.1282 45.594 91.1282 45.546V45.042C91.1282 44.334 91.2062 43.77 91.3622 43.35C91.5302 42.93 91.8062 42.618 92.1902 42.414C92.5862 42.198 93.1382 42.09 93.8462 42.09H94.3142C94.4342 42.09 94.4942 42.15 94.4942 42.27V42.756C94.4942 42.876 94.4342 42.936 94.3142 42.936H93.9182Z" fill="#041E42"/>
<path d="M98.6315 53.988C99.1955 53.988 99.6755 53.862 100.071 53.61C100.479 53.346 100.797 52.986 101.025 52.53C101.085 52.422 101.163 52.392 101.259 52.44L101.727 52.674C101.835 52.734 101.865 52.812 101.817 52.908C101.553 53.496 101.133 53.964 100.557 54.312C99.9935 54.66 99.3275 54.834 98.5595 54.834C97.7195 54.834 97.0055 54.63 96.4175 54.222C95.8295 53.814 95.4275 53.256 95.2115 52.548C95.1155 52.248 95.0495 51.912 95.0135 51.54C94.9775 51.168 94.9595 50.7 94.9595 50.136C94.9595 49.548 94.9655 49.104 94.9775 48.804C95.0015 48.504 95.0435 48.228 95.1035 47.976C95.2955 47.22 95.6855 46.614 96.2735 46.158C96.8735 45.702 97.6055 45.474 98.4695 45.474C99.4535 45.474 100.239 45.732 100.827 46.248C101.415 46.752 101.781 47.454 101.925 48.354C101.961 48.582 101.985 48.852 101.997 49.164C102.009 49.464 102.015 49.842 102.015 50.298C102.015 50.418 101.955 50.478 101.835 50.478H95.9675C95.9195 50.478 95.8955 50.502 95.8955 50.55C95.8955 51.318 95.9255 51.828 95.9855 52.08C96.1175 52.668 96.4115 53.136 96.8675 53.484C97.3355 53.82 97.9235 53.988 98.6315 53.988ZM96.0215 48.192C95.9615 48.42 95.9195 48.888 95.8955 49.596C95.8955 49.644 95.9195 49.668 95.9675 49.668H100.989C101.037 49.668 101.061 49.644 101.061 49.596C101.061 48.996 101.031 48.546 100.971 48.246C100.839 47.67 100.551 47.208 100.107 46.86C99.6635 46.5 99.1175 46.32 98.4695 46.32C97.8215 46.32 97.2815 46.494 96.8495 46.842C96.4175 47.178 96.1415 47.628 96.0215 48.192Z" fill="#041E42"/>
<path d="M106.723 54.78C106.075 54.78 105.499 54.678 104.995 54.474C104.503 54.258 104.119 53.97 103.843 53.61C103.567 53.25 103.429 52.854 103.429 52.422V52.188C103.429 52.068 103.489 52.008 103.609 52.008H104.167C104.287 52.008 104.347 52.068 104.347 52.188V52.386C104.347 52.83 104.569 53.214 105.013 53.538C105.457 53.85 106.021 54.006 106.705 54.006C107.377 54.006 107.923 53.844 108.343 53.52C108.763 53.196 108.973 52.794 108.973 52.314C108.973 51.978 108.865 51.702 108.649 51.486C108.433 51.27 108.175 51.108 107.875 51C107.587 50.88 107.149 50.73 106.561 50.55C105.889 50.346 105.349 50.154 104.941 49.974C104.533 49.794 104.185 49.542 103.897 49.218C103.621 48.882 103.483 48.462 103.483 47.958C103.483 47.226 103.771 46.644 104.347 46.212C104.935 45.768 105.703 45.546 106.651 45.546C107.287 45.546 107.845 45.654 108.325 45.87C108.817 46.074 109.195 46.356 109.459 46.716C109.735 47.076 109.873 47.484 109.873 47.94V47.994C109.873 48.114 109.813 48.174 109.693 48.174H109.135C109.015 48.174 108.955 48.114 108.955 47.994V47.94C108.955 47.484 108.739 47.106 108.307 46.806C107.887 46.494 107.329 46.338 106.633 46.338C105.961 46.338 105.421 46.482 105.013 46.77C104.605 47.046 104.401 47.424 104.401 47.904C104.401 48.36 104.587 48.702 104.959 48.93C105.343 49.158 105.937 49.392 106.741 49.632C107.437 49.836 107.989 50.028 108.397 50.208C108.817 50.388 109.177 50.646 109.477 50.982C109.777 51.306 109.927 51.732 109.927 52.26C109.927 53.016 109.633 53.628 109.045 54.096C108.469 54.552 107.695 54.78 106.723 54.78Z" fill="#041E42"/>
<path d="M114.282 54.78C113.634 54.78 113.058 54.678 112.554 54.474C112.062 54.258 111.678 53.97 111.402 53.61C111.126 53.25 110.988 52.854 110.988 52.422V52.188C110.988 52.068 111.048 52.008 111.168 52.008H111.726C111.846 52.008 111.906 52.068 111.906 52.188V52.386C111.906 52.83 112.128 53.214 112.572 53.538C113.016 53.85 113.58 54.006 114.264 54.006C114.936 54.006 115.482 53.844 115.902 53.52C116.322 53.196 116.532 52.794 116.532 52.314C116.532 51.978 116.424 51.702 116.208 51.486C115.992 51.27 115.734 51.108 115.434 51C115.146 50.88 114.708 50.73 114.12 50.55C113.448 50.346 112.908 50.154 112.5 49.974C112.092 49.794 111.744 49.542 111.456 49.218C111.18 48.882 111.042 48.462 111.042 47.958C111.042 47.226 111.33 46.644 111.906 46.212C112.494 45.768 113.262 45.546 114.21 45.546C114.846 45.546 115.404 45.654 115.884 45.87C116.376 46.074 116.754 46.356 117.018 46.716C117.294 47.076 117.432 47.484 117.432 47.94V47.994C117.432 48.114 117.372 48.174 117.252 48.174H116.694C116.574 48.174 116.514 48.114 116.514 47.994V47.94C116.514 47.484 116.298 47.106 115.866 46.806C115.446 46.494 114.888 46.338 114.192 46.338C113.52 46.338 112.98 46.482 112.572 46.77C112.164 47.046 111.96 47.424 111.96 47.904C111.96 48.36 112.146 48.702 112.518 48.93C112.902 49.158 113.496 49.392 114.3 49.632C114.996 49.836 115.548 50.028 115.956 50.208C116.376 50.388 116.736 50.646 117.036 50.982C117.336 51.306 117.486 51.732 117.486 52.26C117.486 53.016 117.192 53.628 116.604 54.096C116.028 54.552 115.254 54.78 114.282 54.78Z" fill="#041E42"/>
<path d="M120.052 43.8C119.788 43.8 119.572 43.716 119.404 43.548C119.236 43.38 119.152 43.164 119.152 42.9C119.152 42.636 119.236 42.42 119.404 42.252C119.572 42.084 119.788 42 120.052 42C120.316 42 120.532 42.084 120.7 42.252C120.868 42.42 120.952 42.636 120.952 42.9C120.952 43.164 120.868 43.38 120.7 43.548C120.532 43.716 120.316 43.8 120.052 43.8ZM119.71 54.672C119.59 54.672 119.53 54.612 119.53 54.492V45.78C119.53 45.66 119.59 45.6 119.71 45.6H120.304C120.424 45.6 120.484 45.66 120.484 45.78V54.492C120.484 54.612 120.424 54.672 120.304 54.672H119.71Z" fill="#041E42"/>
<path d="M126.476 54.834C125.636 54.834 124.916 54.612 124.316 54.168C123.716 53.724 123.308 53.13 123.092 52.386C122.96 51.906 122.894 51.156 122.894 50.136C122.894 49.116 122.96 48.372 123.092 47.904C123.308 47.16 123.71 46.572 124.298 46.14C124.898 45.696 125.63 45.474 126.494 45.474C127.334 45.474 128.054 45.696 128.654 46.14C129.266 46.584 129.674 47.172 129.878 47.904C129.95 48.18 129.998 48.492 130.022 48.84C130.046 49.176 130.058 49.608 130.058 50.136C130.058 50.688 130.046 51.132 130.022 51.468C129.998 51.804 129.95 52.11 129.878 52.386C129.674 53.13 129.266 53.724 128.654 54.168C128.054 54.612 127.328 54.834 126.476 54.834ZM126.476 53.988C127.112 53.988 127.652 53.814 128.096 53.466C128.552 53.106 128.846 52.638 128.978 52.062C129.062 51.738 129.104 51.102 129.104 50.154C129.104 49.194 129.068 48.558 128.996 48.246C128.864 47.658 128.57 47.19 128.114 46.842C127.67 46.494 127.124 46.32 126.476 46.32C125.828 46.32 125.282 46.494 124.838 46.842C124.394 47.19 124.106 47.658 123.974 48.246C123.89 48.618 123.848 49.254 123.848 50.154C123.848 51.054 123.89 51.69 123.974 52.062C124.106 52.65 124.394 53.118 124.838 53.466C125.282 53.814 125.828 53.988 126.476 53.988Z" fill="#041E42"/>
<path d="M135.747 45.492C136.671 45.492 137.415 45.774 137.979 46.338C138.555 46.902 138.843 47.646 138.843 48.57V54.51C138.843 54.63 138.783 54.69 138.663 54.69H138.069C137.949 54.69 137.889 54.63 137.889 54.51V48.75C137.889 48.042 137.673 47.466 137.241 47.022C136.809 46.566 136.245 46.338 135.549 46.338C134.829 46.338 134.247 46.56 133.803 47.004C133.359 47.436 133.137 48.006 133.137 48.714V54.51C133.137 54.63 133.077 54.69 132.957 54.69H132.363C132.243 54.69 132.183 54.63 132.183 54.51V45.798C132.183 45.678 132.243 45.618 132.363 45.618H132.957C133.077 45.618 133.137 45.678 133.137 45.798V46.68C133.137 46.716 133.143 46.74 133.155 46.752C133.179 46.752 133.197 46.74 133.209 46.716C133.473 46.32 133.821 46.02 134.253 45.816C134.685 45.6 135.183 45.492 135.747 45.492Z" fill="#041E42"/>
<path d="M144.137 45.474C145.193 45.474 145.997 45.75 146.549 46.302C147.101 46.842 147.377 47.574 147.377 48.498V54.51C147.377 54.63 147.317 54.69 147.197 54.69H146.603C146.483 54.69 146.423 54.63 146.423 54.51V53.664C146.423 53.64 146.411 53.622 146.387 53.61C146.375 53.598 146.357 53.604 146.333 53.628C146.021 54.024 145.613 54.324 145.109 54.528C144.617 54.732 144.065 54.834 143.453 54.834C142.625 54.834 141.923 54.624 141.347 54.204C140.771 53.784 140.483 53.142 140.483 52.278C140.483 51.39 140.813 50.688 141.473 50.172C142.133 49.656 143.039 49.398 144.191 49.398H146.351C146.399 49.398 146.423 49.374 146.423 49.326V48.516C146.423 47.844 146.231 47.31 145.847 46.914C145.475 46.518 144.899 46.32 144.119 46.32C143.507 46.32 143.003 46.446 142.607 46.698C142.211 46.95 141.965 47.286 141.869 47.706C141.833 47.826 141.761 47.88 141.653 47.868L141.023 47.778C140.891 47.754 140.837 47.706 140.861 47.634C140.969 46.986 141.317 46.464 141.905 46.068C142.505 45.672 143.249 45.474 144.137 45.474ZM143.615 54.006C144.371 54.006 145.025 53.82 145.577 53.448C146.141 53.076 146.423 52.56 146.423 51.9V50.262C146.423 50.214 146.399 50.19 146.351 50.19H144.281C143.429 50.19 142.739 50.37 142.211 50.73C141.695 51.09 141.437 51.588 141.437 52.224C141.437 52.812 141.641 53.256 142.049 53.556C142.457 53.856 142.979 54.006 143.615 54.006Z" fill="#041E42"/>
<path d="M149.696 54.69C149.576 54.69 149.516 54.63 149.516 54.51V42.27C149.516 42.15 149.576 42.09 149.696 42.09H150.29C150.41 42.09 150.47 42.15 150.47 42.27V54.51C150.47 54.63 150.41 54.69 150.29 54.69H149.696Z" fill="#041E42"/>
<path d="M114.302 23.0937L114.254 24.68C114.302 24.9684 114.11 25.2568 113.822 25.3049C113.774 25.3049 113.725 25.3049 113.677 25.3049H97.7667C97.6225 25.3049 97.5263 25.3529 97.5263 25.4971V25.5452C97.5744 26.3143 97.7186 27.0834 98.007 27.8525C98.8242 30.304 100.795 31.5538 103.968 31.5538C106.179 31.6019 108.246 30.5443 109.447 28.7177C109.544 28.5255 109.736 28.4293 109.976 28.4293C110.12 28.4293 110.216 28.4774 110.313 28.5735L113.485 31.1692C113.725 31.3134 113.822 31.6499 113.677 31.8903C113.677 31.9383 113.629 31.9383 113.629 31.9383C112.572 33.4285 111.13 34.6302 109.447 35.3993C107.621 36.2165 105.65 36.6491 103.631 36.601C101.276 36.6491 98.9203 36.0722 96.9015 34.8225C95.0748 33.6207 93.6328 31.8903 92.8637 29.8233C92.0946 27.9967 91.71 25.4491 91.71 22.1804C91.662 20.5461 91.8543 18.9117 92.3349 17.3735C92.9118 15.1143 94.3058 13.1435 96.1804 11.7495C98.1512 10.3555 100.555 9.63449 102.958 9.68255C109.64 9.68255 113.437 13.1916 114.254 20.1615C114.254 21.171 114.302 22.1323 114.302 23.0937ZM99.6894 15.8353C98.8242 16.5083 98.1993 17.4216 97.959 18.431C97.7186 19.1521 97.5744 19.9212 97.5263 20.6903C97.4783 20.8826 97.5263 20.9306 97.7186 20.9306H108.053C108.198 20.9306 108.294 20.8826 108.294 20.7383V20.6903C108.246 20.0173 108.15 19.3924 108.005 18.7675C107.765 17.6139 107.14 16.6044 106.179 15.9315C105.217 15.2104 104.016 14.874 102.814 14.922C101.708 14.874 100.603 15.1624 99.6894 15.8353Z" fill="#041E42"/>
<path d="M121.561 35.5435C120.119 35.0148 118.821 34.1495 117.811 32.9478C116.946 31.9384 116.514 30.6405 116.465 29.2946V28.8139C116.465 28.4774 116.754 28.189 117.042 28.189H121.513C121.849 28.189 122.138 28.4774 122.138 28.7658V28.862C122.138 29.7272 122.618 30.4482 123.532 31.0731C124.589 31.7461 125.839 32.0826 127.089 32.0345C128.242 32.0826 129.396 31.7942 130.405 31.1693C131.174 30.7366 131.655 29.9675 131.655 29.0542C131.655 28.3332 131.271 27.6602 130.598 27.3238C129.54 26.795 128.386 26.3624 127.233 26.074L125.31 25.4491C123.82 25.0165 122.33 24.4877 120.936 23.8148C119.782 23.2379 118.773 22.4688 117.956 21.4594C117.09 20.3538 116.658 19.0079 116.754 17.6139C116.658 15.3547 117.715 13.2396 119.542 11.9418C121.417 10.5478 123.868 9.82677 126.944 9.82677C128.819 9.7787 130.646 10.1152 132.376 10.8362C133.818 11.413 135.068 12.3744 135.981 13.5761C136.847 14.7298 137.279 16.1238 137.231 17.5658C137.231 17.9023 136.991 18.1907 136.654 18.1907C136.654 18.1907 136.654 18.1907 136.606 18.1907H132.28C131.944 18.1907 131.655 17.9504 131.655 17.6139C131.655 17.6139 131.655 17.6139 131.655 17.5658C131.655 16.6525 131.126 15.8354 130.357 15.3547C129.3 14.7298 128.098 14.3933 126.848 14.4894C125.743 14.4414 124.589 14.6817 123.628 15.2105C122.859 15.595 122.378 16.4122 122.378 17.2774C122.378 18.0946 122.859 18.8156 123.58 19.1521C124.877 19.7289 126.223 20.2096 127.569 20.5461L128.675 20.8345C130.213 21.2671 131.751 21.8439 133.193 22.4688C134.395 22.9976 135.453 23.8148 136.318 24.8242C137.183 25.9298 137.664 27.3238 137.568 28.7178C137.664 30.977 136.558 33.092 134.732 34.3899C132.809 35.7838 130.261 36.4568 127.137 36.4568C125.262 36.5529 123.339 36.2165 121.561 35.5435Z" fill="#041E42"/>
<path d="M144.441 35.5435C142.999 35.0148 141.701 34.1495 140.692 32.9478C139.827 31.9384 139.394 30.6405 139.346 29.2946V28.8139C139.346 28.4774 139.634 28.189 139.923 28.189H144.393C144.73 28.189 145.018 28.4774 145.018 28.7658V28.862C145.018 29.7272 145.499 30.4482 146.412 31.0731C147.47 31.7461 148.719 32.0826 149.969 32.0345C151.123 32.0826 152.277 31.7942 153.286 31.1693C154.055 30.7366 154.536 29.9195 154.536 29.0542C154.536 28.3332 154.151 27.6602 153.478 27.3238C152.421 26.795 151.267 26.3624 150.113 26.074L148.191 25.4491C146.701 25.0165 145.21 24.4877 143.816 23.8148C142.663 23.2379 141.605 22.4688 140.836 21.4594C139.971 20.3538 139.538 19.0079 139.634 17.6139C139.538 15.3547 140.596 13.2396 142.422 11.9418C144.297 10.5478 146.749 9.82677 149.825 9.82677C151.7 9.7787 153.526 10.1152 155.257 10.8362C156.699 11.413 157.949 12.3744 158.862 13.5761C159.727 14.7298 160.16 16.1238 160.112 17.5658C160.112 17.9023 159.871 18.1907 159.535 18.1907H155.209C154.872 18.1907 154.584 17.9023 154.584 17.6139C154.584 16.7006 154.103 15.8354 153.286 15.4027C152.228 14.7778 150.979 14.4414 149.729 14.5375C148.623 14.4894 147.47 14.7298 146.508 15.2585C145.739 15.6431 145.259 16.4602 145.259 17.3255C145.259 18.1427 145.739 18.8637 146.46 19.2002C147.758 19.777 149.104 20.2577 150.45 20.5942L151.556 20.8826C153.094 21.3152 154.632 21.892 156.074 22.5169C157.276 23.0457 158.333 23.8628 159.198 24.8723C160.064 25.9778 160.544 27.3718 160.448 28.7658C160.544 31.0251 159.439 33.1881 157.564 34.4379C155.689 35.8319 153.142 36.5049 149.969 36.5049C148.143 36.553 146.268 36.2165 144.441 35.5435Z" fill="#041E42"/>
<path d="M178.859 10.3555C178.955 10.2593 179.147 10.1632 179.291 10.1632H183.906C184.05 10.1632 184.242 10.2113 184.338 10.3555C184.434 10.4516 184.531 10.6439 184.531 10.7881V35.5915C184.531 35.7357 184.483 35.928 184.338 36.0242C184.242 36.1203 184.05 36.2164 183.906 36.2164H179.291C179.147 36.2164 178.955 36.1684 178.859 36.0242C178.762 35.928 178.666 35.7357 178.666 35.5915V33.9572C178.666 33.8611 178.618 33.813 178.57 33.7649C178.522 33.7169 178.426 33.7649 178.378 33.8611C176.984 35.6396 174.917 36.5529 172.129 36.5529C169.774 36.649 167.466 35.8319 165.64 34.2937C163.909 32.8036 162.996 30.6885 162.996 27.9486V10.7881C162.996 10.4516 163.284 10.1632 163.573 10.1632H168.235C168.38 10.1632 168.572 10.2113 168.668 10.3555C168.764 10.4516 168.86 10.6439 168.86 10.7881V26.2662C168.764 27.6602 169.245 29.0061 170.11 30.0636C170.975 31.025 172.273 31.5538 173.571 31.5057C174.965 31.5538 176.263 31.025 177.224 30.0636C178.186 29.0061 178.666 27.6602 178.618 26.2662V10.7881C178.666 10.6439 178.762 10.4997 178.859 10.3555Z" fill="#041E42"/>
<path d="M192.702 35.5434C191.26 35.0147 189.962 34.1494 188.953 32.9477C188.088 31.9383 187.655 30.6404 187.607 29.2945V28.8138C187.607 28.4773 187.895 28.1889 188.184 28.1889H192.702C192.847 28.1889 193.039 28.237 193.135 28.3812C193.231 28.4773 193.327 28.6696 193.327 28.8138V28.9099C193.327 29.7752 193.808 30.4962 194.721 31.1211C195.779 31.7941 197.029 32.1305 198.278 32.0825C199.432 32.1305 200.586 31.7941 201.595 31.2172C202.364 30.7846 202.845 29.9674 202.845 29.1022C202.893 28.3812 202.46 27.7082 201.835 27.3717C200.778 26.843 199.624 26.4104 198.471 26.122L196.548 25.4971C195.058 25.0644 193.568 24.5357 192.174 23.8627C191.02 23.2859 189.962 22.5168 189.193 21.5074C188.328 20.4018 187.895 19.0559 187.992 17.6619C187.895 15.4026 188.953 13.2876 190.78 11.9898C192.654 10.5958 195.106 9.87475 198.182 9.87475C200.057 9.82668 201.883 10.1632 203.614 10.8842C205.056 11.461 206.306 12.4224 207.219 13.6241C208.084 14.7777 208.517 16.1717 208.469 17.6138C208.469 17.758 208.421 17.9503 208.277 18.0464C208.18 18.1426 207.988 18.2387 207.844 18.2387H203.518C203.374 18.2387 203.181 18.1906 203.085 18.0464C202.989 17.9503 202.893 17.758 202.893 17.6138C202.893 16.7005 202.364 15.8833 201.595 15.4026C200.538 14.7778 199.288 14.4413 198.086 14.5374C196.98 14.4893 195.827 14.7297 194.865 15.2584C194.096 15.643 193.616 16.4602 193.616 17.3254C193.616 18.1426 194.096 18.8636 194.817 19.2001C196.115 19.7769 197.461 20.2576 198.807 20.5941L199.913 20.8825C201.451 21.3151 202.989 21.8919 204.431 22.5168C205.633 23.0456 206.69 23.8627 207.556 24.8722C208.421 25.9778 208.901 27.3717 208.805 28.7657C208.901 31.025 207.796 33.14 205.969 34.4378C204.047 35.8318 201.547 36.5048 198.374 36.5048C196.404 36.5529 194.529 36.2164 192.702 35.5434Z" fill="#041E42"/>
<path d="M211.689 7.13488C211.978 7.27909 212.17 7.51943 212.362 7.80784C212.507 8.09626 212.603 8.38467 212.603 8.72115C212.603 9.05763 212.507 9.34604 212.362 9.63445C212.218 9.92286 211.978 10.1632 211.689 10.3074C211.113 10.6439 210.44 10.6439 209.863 10.3074C209.574 10.1632 209.334 9.92286 209.19 9.63445C209.046 9.34604 208.95 9.05763 208.95 8.72115C208.95 8.38467 209.046 8.09626 209.19 7.80784C209.719 6.94261 210.824 6.6542 211.689 7.13488ZM211.497 9.97093C211.738 9.82673 211.93 9.68252 212.026 9.44218C212.17 9.20183 212.218 8.96149 212.218 8.67308C212.218 8.14433 211.93 7.66364 211.497 7.42329C211.017 7.18295 210.488 7.18295 210.007 7.42329C209.767 7.5675 209.574 7.71171 209.478 7.95205C209.334 8.19239 209.286 8.43274 209.286 8.67308C209.286 8.91342 209.334 9.20183 209.478 9.44218C209.623 9.68252 209.815 9.8748 210.007 9.97093C210.488 10.2593 211.017 10.2593 211.497 9.97093ZM211.305 8.62501C211.257 8.67308 211.209 8.76922 211.113 8.76922L211.065 8.81729L211.305 9.39411V9.44218C211.305 9.49025 211.257 9.53832 211.209 9.53832H211.113C211.065 9.53832 211.017 9.49025 211.017 9.44218L210.776 8.86535C210.776 8.86535 210.776 8.81729 210.728 8.81729H210.584C210.584 8.81729 210.536 8.81728 210.536 8.86535V9.44218C210.536 9.49025 210.488 9.53832 210.44 9.53832H210.344C210.296 9.53832 210.247 9.49025 210.247 9.49025V8.00012C210.247 7.95205 210.296 7.90398 210.344 7.90398H210.824C210.968 7.90398 211.065 7.95205 211.161 8.04819C211.257 8.14433 211.305 8.28853 211.305 8.38467C211.353 8.4808 211.305 8.52887 211.305 8.62501ZM210.584 8.14432V8.57694C210.584 8.62501 210.584 8.62501 210.632 8.62501H210.872C210.92 8.62501 211.017 8.62501 211.065 8.57694C211.113 8.52887 211.113 8.4808 211.113 8.38467C211.113 8.3366 211.113 8.24046 211.065 8.19239C211.017 8.14433 210.968 8.14432 210.872 8.14432H210.584Z" fill="#041E42"/>
</svg>
