<svg width="176" height="48" fill="none" xmlns="http://www.w3.org/2000/svg"><g clip-path="url(#a)"><path d="M50.227 26.49L43.701 7.107c-.54-1.545-1.854-2.704-3.437-3.013L19.836.077a4.665 4.665 0 00-4.248 1.468L1.764 17.03a4.627 4.627 0 00-.927 4.48l6.526 19.423c.54 1.545 1.854 2.703 3.437 3.012l20.39 3.978c1.582.309 3.204-.27 4.286-1.429L49.3 31.01a4.679 4.679 0 00.927-4.518zm-2.626 2.974L33.777 44.95c-.541.58-1.352.85-2.124.696l-20.39-3.978A2.336 2.336 0 019.564 40.2L3.038 20.776c-.27-.773-.077-1.622.463-2.24L17.326 3.05a2.304 2.304 0 011.7-.734c.154 0 .27 0 .424.039l20.39 3.977c.81.155 1.428.734 1.698 1.506l6.488 19.386c.27.772.077 1.621-.425 2.24M169.932 7.839c.232.116.387.309.541.54.116.232.193.464.193.734 0 .54-.27 1.004-.734 1.274-.463.27-1.004.27-1.467 0a1.22 1.22 0 01-.541-.54 1.595 1.595 0 01-.193-.734c0-.27.077-.502.193-.734.116-.231.309-.386.541-.54.425-.27 1.004-.27 1.467 0zm-.154 2.278c.193-.116.347-.27.425-.425.116-.193.154-.386.154-.579 0-.193-.038-.425-.154-.58a1.23 1.23 0 00-1.622-.424c-.348.193-.579.58-.579 1.004 0 .193.038.425.154.58.116.192.232.347.425.424.386.232.811.232 1.197 0zm-.193-1.081c-.039.038-.077.116-.155.116-.038 0-.038.038-.038.038l.193.464v.038c0 .039 0 .078-.077.078h-.078c-.038 0-.077-.04-.077-.078l-.193-.463s0-.039-.039 0h-.115s-.039 0-.039.039v.463c0 .039-.039.077-.077.077h-.078c-.038 0-.077-.038-.077-.077V8.534c0-.039.039-.077.077-.077h.387a.35.35 0 01.27.115.419.419 0 01.116.27c.038.078.038.155 0 .194zm-.579-.386v.347c0 .039 0 .039.038.039h.193c.116 0 .193-.077.193-.155v-.038c0-.039 0-.116-.038-.155-.039-.038-.078-.038-.155-.038h-.231zM159.394 29.634c-1.624 0-3.054-.232-4.292-.696-1.211-.49-2.152-1.148-2.822-1.972-.67-.851-1.006-1.792-1.006-2.823v-.348a.42.42 0 01.116-.31.483.483 0 01.348-.154h3.403c.129 0 .232.051.309.155.104.077.155.18.155.309v.077c0 .645.348 1.212 1.044 1.702.722.464 1.624.696 2.707.696 1.031 0 1.869-.207 2.513-.62.645-.437.967-.979.967-1.623 0-.593-.271-1.031-.812-1.315-.516-.31-1.366-.631-2.552-.966l-1.47-.464c-1.314-.387-2.423-.8-3.325-1.238a6.741 6.741 0 01-2.281-1.778c-.619-.774-.928-1.753-.928-2.94 0-1.804.709-3.234 2.126-4.291 1.418-1.083 3.287-1.624 5.607-1.624 1.573 0 2.952.258 4.137.773 1.186.49 2.101 1.186 2.746 2.088.644.877.966 1.882.966 3.016a.48.48 0 01-.154.348.42.42 0 01-.31.116H163.3a.565.565 0 01-.348-.116.561.561 0 01-.116-.348c0-.67-.335-1.224-1.006-1.662-.644-.464-1.533-.696-2.668-.696-1.005 0-1.83.193-2.474.58-.619.36-.928.876-.928 1.546 0 .619.296 1.096.889 1.43.619.31 1.637.658 3.055 1.045l.85.232c1.367.412 2.514.838 3.442 1.276a6.418 6.418 0 012.358 1.779c.645.747.967 1.727.967 2.938 0 1.83-.722 3.274-2.165 4.33-1.444 1.032-3.364 1.548-5.762 1.548zM143.965 10.107a.42.42 0 01.116-.31.48.48 0 01.348-.154h3.519c.129 0 .232.051.309.154.103.078.155.18.155.31v18.83a.482.482 0 01-.155.348.416.416 0 01-.309.116h-3.519a.565.565 0 01-.348-.116.568.568 0 01-.116-.348V27.7c0-.077-.026-.129-.077-.155-.052-.026-.103 0-.155.078-1.057 1.366-2.642 2.049-4.756 2.049-1.959 0-3.609-.567-4.949-1.701-1.315-1.135-1.972-2.746-1.972-4.834v-13.03c0-.13.038-.232.116-.31a.48.48 0 01.348-.154h3.557c.129 0 .232.051.309.154.103.078.155.18.155.31V21.86c0 1.212.309 2.178.928 2.9.644.722 1.534 1.083 2.668 1.083 1.16 0 2.088-.361 2.784-1.083.696-.721 1.044-1.688 1.044-2.9V10.107zM121.725 29.634c-1.624 0-3.055-.232-4.292-.696-1.212-.49-2.152-1.148-2.823-1.972-.67-.851-1.005-1.792-1.005-2.823v-.348a.42.42 0 01.116-.31.48.48 0 01.348-.154h3.403c.129 0 .232.051.309.155.103.077.155.18.155.309v.077c0 .645.348 1.212 1.044 1.702.721.464 1.624.696 2.706.696 1.031 0 1.869-.207 2.514-.62.644-.437.966-.979.966-1.623 0-.593-.27-1.031-.812-1.315-.515-.31-1.366-.631-2.552-.966l-1.469-.464c-1.315-.387-2.423-.8-3.325-1.238a6.745 6.745 0 01-2.282-1.778c-.618-.774-.928-1.753-.928-2.94 0-1.804.709-3.234 2.127-4.291 1.418-1.083 3.287-1.624 5.607-1.624 1.572 0 2.951.258 4.137.773 1.186.49 2.101 1.186 2.745 2.088.645.877.967 1.882.967 3.016a.482.482 0 01-.155.348.416.416 0 01-.309.116h-3.287a.565.565 0 01-.348-.116.568.568 0 01-.116-.348c0-.67-.335-1.224-1.005-1.662-.644-.464-1.534-.696-2.668-.696-1.005 0-1.83.193-2.475.58-.618.36-.928.876-.928 1.546 0 .619.297 1.096.89 1.43.618.31 1.637.658 3.054 1.045l.851.232c1.366.412 2.513.838 3.441 1.276a6.422 6.422 0 012.359 1.779c.644.747.967 1.727.967 2.938 0 1.83-.722 3.274-2.166 4.33-1.443 1.032-3.364 1.548-5.761 1.548zM104.194 29.634c-1.624 0-3.055-.232-4.292-.696-1.212-.49-2.153-1.148-2.823-1.972-.67-.851-1.005-1.792-1.005-2.823v-.348c0-.129.038-.232.116-.31a.48.48 0 01.348-.154h3.402c.129 0 .232.051.31.155.103.077.154.18.154.309v.077c0 .645.348 1.212 1.044 1.702.722.464 1.624.696 2.707.696 1.031 0 1.869-.207 2.513-.62.645-.437.967-.979.967-1.623 0-.593-.271-1.031-.812-1.315-.515-.31-1.366-.631-2.552-.966l-1.469-.464c-1.315-.387-2.423-.8-3.326-1.238a6.746 6.746 0 01-2.28-1.778c-.62-.774-.929-1.753-.929-2.94 0-1.804.709-3.234 2.127-4.291C99.81 9.952 101.68 9.41 104 9.41c1.573 0 2.952.258 4.138.773 1.186.49 2.101 1.186 2.745 2.088.645.877.967 1.882.967 3.016a.482.482 0 01-.155.348.416.416 0 01-.309.116h-3.287a.565.565 0 01-.348-.116.568.568 0 01-.116-.348c0-.67-.335-1.224-1.005-1.662-.645-.464-1.534-.696-2.668-.696-1.006 0-1.83.193-2.475.58-.619.36-.928.876-.928 1.546 0 .619.297 1.096.889 1.43.619.31 1.637.658 3.055 1.045l.851.232c1.366.412 2.513.838 3.441 1.276a6.43 6.43 0 012.359 1.779c.644.747.966 1.727.966 2.938 0 1.83-.721 3.274-2.165 4.33-1.443 1.032-3.364 1.548-5.761 1.548zM94.056 17.299c.103.644.155 1.366.155 2.165l-.039 1.199c0 .309-.155.464-.464.464H81.605c-.129 0-.193.064-.193.193.077.85.193 1.43.348 1.74.619 1.856 2.127 2.797 4.524 2.823 1.753 0 3.145-.722 4.176-2.166.103-.154.232-.232.387-.232a.37.37 0 01.27.116l2.398 1.972c.232.18.27.387.116.619-.8 1.134-1.87 2.01-3.21 2.63-1.314.618-2.784.927-4.408.927-2.01 0-3.725-.45-5.142-1.353-1.392-.902-2.41-2.165-3.055-3.79-.593-1.391-.89-3.325-.89-5.8 0-1.495.155-2.706.465-3.634.515-1.805 1.482-3.222 2.9-4.253 1.443-1.057 3.17-1.586 5.181-1.586 5.078 0 7.94 2.655 8.584 7.966zm-8.584-4.1c-.954 0-1.753.246-2.397.736-.619.464-1.057 1.12-1.315 1.972-.155.438-.258 1.005-.31 1.7-.05.13 0 .194.155.194h7.85c.129 0 .193-.064.193-.193-.051-.645-.129-1.134-.232-1.47-.232-.927-.696-1.65-1.392-2.165-.67-.515-1.52-.773-2.552-.773zM67.142 9.333c2.088 0 3.75.619 4.988 1.856 1.263 1.238 1.895 2.926 1.895 5.066v12.682a.481.481 0 01-.155.348.418.418 0 01-.31.116h-3.557a.566.566 0 01-.348-.116.565.565 0 01-.116-.348V17.183c0-1.186-.335-2.14-1.005-2.862-.67-.747-1.56-1.121-2.668-1.121s-2.01.36-2.707 1.083c-.67.721-1.005 1.675-1.005 2.86v11.794a.481.481 0 01-.155.348.418.418 0 01-.309.116h-3.557a.566.566 0 01-.348-.116.566.566 0 01-.116-.348v-18.83c0-.13.038-.232.116-.31a.48.48 0 01.348-.154h3.557c.129 0 .232.051.31.154.102.078.154.18.154.31v1.237c0 .077.026.129.077.155.052.025.09 0 .116-.078 1.057-1.392 2.655-2.088 4.795-2.088zM113 45.08c-.528 0-.998-.083-1.408-.25-.401-.175-.714-.41-.939-.703a1.554 1.554 0 01-.337-.968v-.191c0-.098.049-.147.146-.147h.455c.098 0 .147.05.147.147v.161c0 .362.181.675.542.939.362.254.822.381 1.379.381.548 0 .992-.132 1.335-.396.342-.264.513-.591.513-.982a.914.914 0 00-.264-.675 1.684 1.684 0 00-.631-.396c-.234-.098-.591-.22-1.07-.367a11.976 11.976 0 01-1.32-.47 2.441 2.441 0 01-.851-.615c-.225-.274-.337-.616-.337-1.027 0-.596.234-1.07.704-1.422.479-.362 1.105-.543 1.877-.543.518 0 .973.088 1.364.264.401.166.709.396.924.69.225.293.337.625.337.997v.044c0 .097-.049.146-.146.146h-.455c-.098 0-.147-.049-.147-.146v-.044c0-.372-.176-.68-.528-.924-.342-.255-.797-.382-1.364-.382-.547 0-.987.118-1.32.352a1.06 1.06 0 00-.498.924c0 .372.151.65.454.836.313.186.797.377 1.452.572.567.166 1.017.323 1.35.47.342.146.635.357.88.63.244.264.366.611.366 1.042a1.82 1.82 0 01-.718 1.496c-.47.371-1.1.557-1.892.557zM107.976 45.007c-.098 0-.147-.05-.147-.147v-9.973c0-.098.049-.147.147-.147h.484c.097 0 .146.049.146.147v9.973c0 .098-.049.147-.146.147h-.484zM103.298 37.497c.861 0 1.516.225 1.966.675.449.44.674 1.036.674 1.79v4.898c0 .098-.049.147-.146.147h-.484c-.098 0-.147-.05-.147-.147v-.69c0-.019-.01-.034-.029-.043-.01-.01-.025-.005-.044.014a2.38 2.38 0 01-.998.734c-.401.166-.85.249-1.349.249-.675 0-1.247-.171-1.716-.513-.469-.343-.704-.866-.704-1.57 0-.723.269-1.295.807-1.716.537-.42 1.276-.63 2.214-.63h1.76c.039 0 .059-.02.059-.059v-.66c0-.548-.156-.983-.469-1.305-.303-.323-.773-.484-1.408-.484-.499 0-.91.102-1.232.308-.323.205-.523.479-.602.821-.029.098-.088.142-.176.132l-.513-.073c-.108-.02-.152-.059-.132-.118.088-.528.372-.953.851-1.276.489-.322 1.095-.484 1.818-.484zm-.425 6.952c.616 0 1.149-.151 1.599-.454.459-.303.689-.724.689-1.262V41.4c0-.04-.02-.059-.059-.059h-1.686c-.695 0-1.257.147-1.687.44-.42.293-.631.7-.631 1.217 0 .48.167.841.499 1.086.332.244.758.366 1.276.366zM98.138 36.133a.715.715 0 01-.528-.205.715.715 0 01-.206-.528c0-.215.069-.391.206-.528a.715.715 0 01.528-.205c.215 0 .39.068.528.205a.715.715 0 01.205.528.715.715 0 01-.205.528.715.715 0 01-.528.205zm-.279 8.86c-.098 0-.147-.05-.147-.148v-7.098c0-.098.05-.147.147-.147h.484c.098 0 .147.049.147.147v7.098c0 .098-.05.147-.147.147h-.484zM95.786 38.128c0 .098-.05.147-.147.147h-1.716c-.04 0-.059.02-.059.058v4.635c0 .499.113.85.338 1.056.225.195.586.293 1.085.293h.337c.098 0 .147.05.147.147v.396c0 .098-.049.147-.147.147l-.44.014c-.684 0-1.202-.132-1.554-.396-.343-.264-.518-.748-.528-1.452v-4.84c0-.039-.02-.058-.059-.058h-.88c-.098 0-.147-.05-.147-.147v-.367c0-.098.05-.146.147-.146h.88c.04 0 .059-.02.059-.059v-1.672c0-.098.049-.147.146-.147h.47c.097 0 .146.05.146.147v1.672c0 .04.02.059.059.059h1.716c.098 0 .147.048.147.146v.367zM88.173 37.512c.753 0 1.359.23 1.819.69.469.459.703 1.065.703 1.818v4.84c0 .098-.048.147-.146.147h-.484c-.098 0-.147-.05-.147-.147v-4.693c0-.577-.176-1.047-.528-1.408-.352-.372-.811-.558-1.379-.558-.586 0-1.06.181-1.422.543-.362.352-.543.816-.543 1.393v4.723c0 .098-.049.147-.147.147h-.484c-.097 0-.146-.05-.146-.147v-7.099c0-.098.049-.146.146-.146h.484c.098 0 .147.048.147.146v.719c0 .03.005.049.015.059.02 0 .034-.01.044-.03.215-.322.498-.567.85-.733a2.687 2.687 0 011.218-.264zM80.688 44.435c.46 0 .85-.103 1.173-.308.333-.216.592-.509.778-.88.049-.088.112-.113.19-.074l.382.191c.088.049.112.112.073.19-.215.48-.557.861-1.027 1.145-.46.283-1.002.425-1.628.425-.684 0-1.266-.166-1.745-.499a2.495 2.495 0 01-.983-1.364 3.948 3.948 0 01-.161-.821 12.26 12.26 0 01-.044-1.144c0-.48.005-.84.015-1.085.02-.245.053-.47.102-.675.157-.616.475-1.11.954-1.481.489-.372 1.085-.558 1.789-.558.802 0 1.442.21 1.921.631.48.41.778.983.895 1.716.03.186.049.406.059.66.01.244.014.552.014.924 0 .098-.048.147-.146.147h-4.782c-.039 0-.058.02-.058.058 0 .626.024 1.042.073 1.247.108.48.347.86.719 1.144.381.274.86.41 1.437.41zm-2.127-4.723c-.049.186-.083.567-.102 1.144 0 .04.02.059.058.059h4.092c.04 0 .059-.02.059-.059 0-.489-.024-.856-.073-1.1a1.938 1.938 0 00-.704-1.13c-.362-.293-.807-.44-1.335-.44-.528 0-.968.142-1.32.426-.352.274-.577.64-.675 1.1zM73.685 45.08c-.528 0-.998-.083-1.408-.25-.401-.175-.714-.41-.939-.703a1.555 1.555 0 01-.337-.968v-.191c0-.098.049-.147.146-.147h.455c.098 0 .147.05.147.147v.161c0 .362.18.675.542.939.362.254.822.381 1.38.381.547 0 .991-.132 1.334-.396.342-.264.513-.591.513-.982a.914.914 0 00-.264-.675 1.688 1.688 0 00-.63-.396c-.235-.098-.592-.22-1.071-.367a12.052 12.052 0 01-1.32-.47 2.441 2.441 0 01-.85-.615c-.226-.274-.338-.616-.338-1.027 0-.596.234-1.07.704-1.422.479-.362 1.105-.543 1.877-.543.518 0 .973.088 1.364.264.401.166.709.396.924.69.225.293.337.625.337.997v.044c0 .097-.049.146-.146.146h-.455c-.098 0-.147-.049-.147-.146v-.044c0-.372-.176-.68-.528-.924-.342-.255-.796-.382-1.364-.382-.547 0-.987.118-1.32.352-.332.225-.498.533-.498.924 0 .372.151.65.454.836.313.186.797.377 1.452.572.567.166 1.017.323 1.35.47.342.146.635.357.88.63.244.264.366.611.366 1.042 0 .616-.24 1.114-.718 1.496-.47.371-1.1.557-1.892.557zM67.377 45.08c-.528 0-.997-.083-1.408-.25-.4-.175-.713-.41-.938-.703a1.555 1.555 0 01-.338-.968v-.191c0-.098.05-.147.147-.147h.455c.097 0 .146.05.146.147v.161c0 .362.181.675.543.939.362.254.821.381 1.379.381.547 0 .992-.132 1.334-.396.343-.264.514-.591.514-.982a.914.914 0 00-.264-.675 1.687 1.687 0 00-.631-.396c-.235-.098-.591-.22-1.07-.367a12.037 12.037 0 01-1.32-.47 2.442 2.442 0 01-.851-.615c-.225-.274-.338-.616-.338-1.027 0-.596.235-1.07.704-1.422.48-.362 1.105-.543 1.878-.543.518 0 .973.088 1.364.264.4.166.709.396.924.69.225.293.337.625.337.997v.044c0 .097-.049.146-.147.146h-.454c-.098 0-.147-.049-.147-.146v-.044c0-.372-.176-.68-.528-.924-.342-.255-.797-.382-1.364-.382-.547 0-.987.118-1.32.352-.332.225-.499.533-.499.924 0 .372.152.65.455.836.313.186.797.377 1.452.572.567.166 1.017.323 1.35.47.342.146.635.357.88.63.244.264.366.611.366 1.042 0 .616-.24 1.114-.719 1.496-.469.371-1.1.557-1.892.557zM60.639 44.435c.459 0 .85-.103 1.173-.308.332-.216.591-.509.777-.88.049-.088.113-.113.19-.074l.382.191c.088.049.113.112.073.19-.215.48-.557.861-1.026 1.145-.46.283-1.002.425-1.628.425-.685 0-1.266-.166-1.745-.499a2.495 2.495 0 01-.983-1.364 3.942 3.942 0 01-.161-.821 12.26 12.26 0 01-.044-1.144c0-.48.004-.84.014-1.085.02-.245.054-.47.103-.675.156-.616.474-1.11.953-1.481.489-.372 1.086-.558 1.79-.558.801 0 1.442.21 1.92.631.48.41.778.983.895 1.716.03.186.05.406.06.66.009.244.014.552.014.924 0 .098-.05.147-.147.147h-4.781c-.04 0-.059.02-.059.058 0 .626.025 1.042.074 1.247.107.48.347.86.718 1.144.382.274.86.41 1.438.41zm-2.127-4.723c-.05.186-.083.567-.103 1.144 0 .04.02.059.059.059h4.092c.039 0 .058-.02.058-.059 0-.489-.024-.856-.073-1.1a1.94 1.94 0 00-.704-1.13c-.362-.293-.806-.44-1.334-.44-.529 0-.968.142-1.32.426-.352.274-.577.64-.675 1.1z" fill="#fff"/></g><defs><clipPath id="a"><path fill="#fff" d="M0 0H175.395V48H0z"/></clipPath></defs></svg>