<svg width="64" height="64" fill="none" xmlns="http://www.w3.org/2000/svg"><path d="M5.5 52.177c0-8.106 6.571-14.677 14.677-14.677h9.646c8.106 0 14.677 6.571 14.677 14.677a3.294 3.294 0 01-2.347 3.155l-16.147 4.844a3.5 3.5 0 01-2.012 0L7.848 55.332A3.294 3.294 0 015.5 52.177z" fill="#415465" fill-opacity=".2" stroke="#415465"/><rect x="15.5" y="4.5" width="19" height="27" rx="7.5" fill="#415465" fill-opacity=".2" stroke="#415465"/><g filter="url(#a)"><path d="M37 36.679c0-2.13 1.79-3.858 4-3.858h14c2.21 0 4 1.727 4 3.858v19.285c0 2.13-1.79 3.858-4 3.858H41c-2.21 0-4-1.727-4-3.858V36.68z" fill="#fff" fill-opacity=".9"/><path d="M41 38.607c0-1.065.895-1.928 2-1.928h10c1.105 0 2 .863 2 1.928v5.786c0 1.065-.895 1.928-2 1.928H43c-1.105 0-2-.863-2-1.928v-5.786zM52 53.072c0 2.13-1.79 3.857-4 3.857s-4-1.727-4-3.858c0-2.13 1.79-3.857 4-3.857s4 1.727 4 3.858z" fill="#fff" fill-opacity=".9"/><path d="M48 46.322h5c1.105 0 2-.864 2-1.929v-5.786c0-1.065-.895-1.928-2-1.928H43c-1.105 0-2 .863-2 1.928v5.786c0 1.065.895 1.928 2 1.928h5zm0 0l3.5-5.224m-2 11.01l-2.5 2.41m-6 5.303h14c2.21 0 4-1.726 4-3.857V36.68c0-2.13-1.79-3.858-4-3.858H41c-2.21 0-4 1.727-4 3.858v19.285c0 2.13 1.79 3.858 4 3.858zm11-6.75c0 2.13-1.79 3.858-4 3.858s-4-1.727-4-3.858c0-2.13 1.79-3.857 4-3.857s4 1.727 4 3.858z" stroke="#0079DD"/></g><defs><filter id="a" x="32.5" y="28.322" width="31" height="36" filterUnits="userSpaceOnUse" color-interpolation-filters="sRGB"><feFlood flood-opacity="0" result="BackgroundImageFix"/><feGaussianBlur in="BackgroundImageFix" stdDeviation="2"/><feComposite in2="SourceAlpha" operator="in" result="effect1_backgroundBlur_4536_6579"/><feBlend in="SourceGraphic" in2="effect1_backgroundBlur_4536_6579" result="shape"/></filter></defs></svg>