<svg width="118" height="20" viewBox="0 0 118 20" fill="none" xmlns="http://www.w3.org/2000/svg">
<path d="M22 7.69784H13.6296L11.1111 0L8.51852 7.69784H0L6.88889 12.3741L4.2963 20L11.037 15.2518L17.8519 20L15.2593 12.446L22 7.69784Z" fill="#FCAF1A"/>
<path d="M46 7.69784H37.6296L35.1111 0L32.5185 7.69784H24L30.8889 12.3741L28.2963 20L35.037 15.2518L41.8519 20L39.2593 12.446L46 7.69784Z" fill="#FCAF1A"/>
<path d="M70 7.69784H61.6296L59.037 0L56.3704 7.69784H48L54.8148 12.3741L52.2222 20L58.963 15.2518L65.7778 20L63.2593 12.3741L70 7.69784Z" fill="#FCAF1A"/>
<path d="M94 7.69784H85.6296L83.037 0L80.4444 7.69784H72L78.8148 12.3741L76.2222 20L82.963 15.2518L89.7778 20L87.1852 12.446L94 7.69784Z" fill="#FCAF1A"/>
<path d="M118 7.69784H109.63L107.037 0L104.444 7.69784H96L102.815 12.3741L100.222 20L106.963 15.2518L113.778 20L111.185 12.446L118 7.69784Z" fill="url(#paint0_linear_4681_387)"/>
<defs>
<linearGradient id="paint0_linear_4681_387" x1="95.968" y1="9.99319" x2="117.829" y2="10.0416" gradientUnits="userSpaceOnUse">
<stop stop-color="#FCAF1A"/>
<stop offset="0.487" stop-color="#FCAF1A"/>
<stop offset="0.4871" stop-color="#E0E0E0"/>
<stop offset="1" stop-color="#E0E0E0"/>
</linearGradient>
</defs>
</svg>
