<svg width="390" height="580" viewBox="0 0 390 580" fill="none" xmlns="http://www.w3.org/2000/svg">
<g clip-path="url(#clip0_4645_697)">
<rect width="390" height="580" rx="8" fill="#0079DD" fill-opacity="0.07"/>
<g filter="url(#filter0_f_4645_697)">
<ellipse cx="195.5" cy="507" rx="134.5" ry="43" fill="#008AFF" fill-opacity="0.2"/>
</g>
<path d="M56.6537 -306.843C59.317 -311.632 60.6487 -314.026 62.5418 -315.769C64.2166 -317.312 66.2013 -318.479 68.3633 -319.193C70.8071 -320 73.5468 -320 79.0263 -320H311.974C317.453 -320 320.193 -320 322.637 -319.193C324.799 -318.479 326.783 -317.312 328.458 -315.769C330.351 -314.026 331.683 -311.632 334.346 -306.843L446.08 -105.943C448.605 -101.402 449.868 -99.131 450.363 -96.7261C450.801 -94.5977 450.801 -92.4023 450.363 -90.2739C449.868 -87.869 448.605 -85.5984 446.08 -81.0571L334.346 119.843C331.683 124.632 330.351 127.026 328.458 128.769C326.783 130.312 324.799 131.479 322.637 132.193C320.193 133 317.453 133 311.974 133H79.0263C73.5468 133 70.8071 133 68.3633 132.193C66.2013 131.479 64.2166 130.312 62.5418 128.769C60.6487 127.026 59.317 124.632 56.6537 119.843L-55.0797 -81.0571C-57.6054 -85.5984 -58.8682 -87.869 -59.3633 -90.2739C-59.8015 -92.4023 -59.8015 -94.5977 -59.3633 -96.7261C-58.8682 -99.131 -57.6054 -101.402 -55.0797 -105.943L56.6537 -306.843Z" fill="url(#paint0_radial_4645_697)"/>
<path d="M56.6537 -306.843C59.317 -311.632 60.6487 -314.026 62.5418 -315.769C64.2166 -317.312 66.2013 -318.479 68.3633 -319.193C70.8071 -320 73.5468 -320 79.0263 -320H311.974C317.453 -320 320.193 -320 322.637 -319.193C324.799 -318.479 326.783 -317.312 328.458 -315.769C330.351 -314.026 331.683 -311.632 334.346 -306.843L446.08 -105.943C448.605 -101.402 449.868 -99.131 450.363 -96.7261C450.801 -94.5977 450.801 -92.4023 450.363 -90.2739C449.868 -87.869 448.605 -85.5984 446.08 -81.0571L334.346 119.843C331.683 124.632 330.351 127.026 328.458 128.769C326.783 130.312 324.799 131.479 322.637 132.193C320.193 133 317.453 133 311.974 133H79.0263C73.5468 133 70.8071 133 68.3633 132.193C66.2013 131.479 64.2166 130.312 62.5418 128.769C60.6487 127.026 59.317 124.632 56.6537 119.843L-55.0797 -81.0571C-57.6054 -85.5984 -58.8682 -87.869 -59.3633 -90.2739C-59.8015 -92.4023 -59.8015 -94.5977 -59.3633 -96.7261C-58.8682 -99.131 -57.6054 -101.402 -55.0797 -105.943L56.6537 -306.843Z" fill="url(#paint1_linear_4645_697)"/>
<path d="M57.0907 -306.6C59.7707 -311.419 61.0606 -313.726 62.8805 -315.402C64.503 -316.896 66.4256 -318.026 68.5201 -318.718C70.8693 -319.494 73.5124 -319.5 79.0263 -319.5H311.974C317.488 -319.5 320.131 -319.494 322.48 -318.718C324.574 -318.026 326.497 -316.896 328.119 -315.402C329.939 -313.726 331.229 -311.419 333.909 -306.6L445.643 -105.7C448.184 -101.13 449.398 -98.9373 449.874 -96.6253C450.298 -94.5634 450.298 -92.4366 449.874 -90.3747C449.398 -88.0627 448.184 -85.8697 445.643 -81.3002L333.909 119.6C331.229 124.419 329.939 126.726 328.119 128.402C326.497 129.896 324.574 131.027 322.48 131.718C320.131 132.494 317.488 132.5 311.974 132.5H79.0263C73.5124 132.5 70.8693 132.494 68.52 131.718C66.4256 131.027 64.503 129.896 62.8805 128.402C61.0606 126.726 59.7707 124.419 57.0907 119.6L-54.6428 -81.3002C-57.1842 -85.8697 -58.3976 -88.0627 -58.8736 -90.3747C-59.298 -92.4366 -59.298 -94.5634 -58.8736 -96.6253C-58.3976 -98.9373 -57.1842 -101.13 -54.6428 -105.7L57.0907 -306.6Z" stroke="url(#paint2_linear_4645_697)" stroke-opacity="0.2"/>
<path d="M57.0907 -306.6C59.7707 -311.419 61.0606 -313.726 62.8805 -315.402C64.503 -316.896 66.4256 -318.026 68.5201 -318.718C70.8693 -319.494 73.5124 -319.5 79.0263 -319.5H311.974C317.488 -319.5 320.131 -319.494 322.48 -318.718C324.574 -318.026 326.497 -316.896 328.119 -315.402C329.939 -313.726 331.229 -311.419 333.909 -306.6L445.643 -105.7C448.184 -101.13 449.398 -98.9373 449.874 -96.6253C450.298 -94.5634 450.298 -92.4366 449.874 -90.3747C449.398 -88.0627 448.184 -85.8697 445.643 -81.3002L333.909 119.6C331.229 124.419 329.939 126.726 328.119 128.402C326.497 129.896 324.574 131.027 322.48 131.718C320.131 132.494 317.488 132.5 311.974 132.5H79.0263C73.5124 132.5 70.8693 132.494 68.52 131.718C66.4256 131.027 64.503 129.896 62.8805 128.402C61.0606 126.726 59.7707 124.419 57.0907 119.6L-54.6428 -81.3002C-57.1842 -85.8697 -58.3976 -88.0627 -58.8736 -90.3747C-59.298 -92.4366 -59.298 -94.5634 -58.8736 -96.6253C-58.3976 -98.9373 -57.1842 -101.13 -54.6428 -105.7L57.0907 -306.6Z" stroke="url(#paint3_linear_4645_697)" stroke-opacity="0.2"/>
</g>
<rect x="0.5" y="0.5" width="389" height="579" rx="7.5" stroke="#0079DD"/>
<defs>
<filter id="filter0_f_4645_697" x="-103" y="300" width="597" height="414" filterUnits="userSpaceOnUse" color-interpolation-filters="sRGB">
<feFlood flood-opacity="0" result="BackgroundImageFix"/>
<feBlend mode="normal" in="SourceGraphic" in2="BackgroundImageFix" result="shape"/>
<feGaussianBlur stdDeviation="82" result="effect1_foregroundBlur_4645_697"/>
</filter>
<radialGradient id="paint0_radial_4645_697" cx="0" cy="0" r="1" gradientUnits="userSpaceOnUse" gradientTransform="translate(781.279 -400.893) rotate(158.283) scale(949.786 1417.72)">
<stop stop-color="#3B96E1"/>
<stop offset="0.379628" stop-color="#006DC7"/>
<stop offset="0.703893" stop-color="#0E50AB"/>
<stop offset="1" stop-color="#003175"/>
</radialGradient>
<linearGradient id="paint1_linear_4645_697" x1="-62" y1="-320" x2="466.408" y2="230.794" gradientUnits="userSpaceOnUse">
<stop stop-color="#032469" stop-opacity="0.62"/>
<stop offset="0.134789" stop-color="#032265" stop-opacity="0.16"/>
<stop offset="0.215402" stop-color="#032263" stop-opacity="0"/>
<stop offset="0.718692" stop-color="#041C4F" stop-opacity="0"/>
<stop offset="0.797654" stop-color="#041B4D" stop-opacity="0.15"/>
<stop offset="1" stop-color="#041947" stop-opacity="0.55"/>
</linearGradient>
<linearGradient id="paint2_linear_4645_697" x1="-86.1406" y1="-171.802" x2="27.5892" y2="-168.423" gradientUnits="userSpaceOnUse">
<stop stop-color="#A8D1F0"/>
<stop offset="1" stop-color="#004375" stop-opacity="0"/>
</linearGradient>
<linearGradient id="paint3_linear_4645_697" x1="459.035" y1="75.9326" x2="334.234" y2="1.26295" gradientUnits="userSpaceOnUse">
<stop stop-color="#A8D1F0"/>
<stop offset="1" stop-color="#004375" stop-opacity="0"/>
</linearGradient>
<clipPath id="clip0_4645_697">
<rect width="390" height="580" rx="8" fill="white"/>
</clipPath>
</defs>
</svg>
