<svg width="191" height="36" viewBox="0 0 191 36" fill="none" xmlns="http://www.w3.org/2000/svg">
<g clip-path="url(#clip0_4645_848)">
<path d="M50.4061 14.4367C50.3449 14.4978 50.2226 14.559 50.1308 14.559H46.7358C46.6134 14.559 46.5828 14.6202 46.5828 14.712V22.695C46.5828 23.5514 46.7663 24.1325 47.1334 24.5301C47.5004 24.8972 48.0815 25.0807 48.8768 25.0807H49.8861C50.0085 25.0807 50.1002 25.1113 50.1614 25.203C50.2226 25.2948 50.2838 25.3865 50.2838 25.4783V27.9558C50.2838 28.2005 50.1614 28.3534 49.8861 28.384L48.1733 28.4146C46.4299 28.4146 45.1147 28.1087 44.2583 27.5276C43.4019 26.9159 42.9431 25.8148 42.9125 24.1325V14.712C42.9125 14.5896 42.8513 14.559 42.7595 14.559H40.8632C40.7409 14.559 40.6491 14.5284 40.5879 14.4367C40.5267 14.3449 40.4656 14.2532 40.4656 14.1614V11.8368C40.4656 11.7145 40.4962 11.6227 40.5879 11.5616C40.6797 11.5004 40.7714 11.4392 40.8632 11.4392H42.7595C42.8819 11.4392 42.9125 11.3781 42.9125 11.2863V7.37125C42.9125 7.24891 42.9431 7.15715 43.0348 7.09598C43.1266 7.03481 43.2183 6.97363 43.3101 6.97363H46.2158C46.3381 6.97363 46.4299 7.00422 46.4911 7.09598C46.5522 7.18774 46.6134 7.2795 46.6134 7.37125V11.2557C46.6134 11.3781 46.6746 11.4086 46.7663 11.4086H50.1614C50.2838 11.4086 50.3755 11.4392 50.4367 11.531C50.4979 11.6227 50.559 11.7145 50.559 11.8063V14.1308C50.5284 14.2532 50.4979 14.3449 50.4061 14.4367Z" fill="#041E42"/>
<path d="M66.3415 19.8504L66.3109 20.8904C66.3109 21.1657 66.1886 21.288 65.9133 21.288H55.514C55.3917 21.288 55.3611 21.3492 55.3611 21.4409C55.4222 22.175 55.514 22.6644 55.6669 22.9397C56.1869 24.5301 57.5021 25.3254 59.5514 25.356C61.0501 25.356 62.243 24.7442 63.13 23.4902C63.2217 23.3679 63.3135 23.2761 63.4664 23.2761C63.5582 23.2761 63.6194 23.3067 63.7111 23.3679L65.7604 25.0501C65.9439 25.203 66.0051 25.3866 65.8521 25.5701C65.1793 26.5488 64.2617 27.2829 63.0994 27.8335C61.9677 28.3534 60.6831 28.6287 59.3067 28.6287C57.5939 28.6287 56.1257 28.2311 54.9023 27.4664C53.7094 26.7018 52.8224 25.6007 52.2719 24.2243C51.7519 23.0314 51.5072 21.3798 51.5072 19.2387C51.5072 17.9541 51.6295 16.9142 51.9048 16.1189C52.333 14.559 53.1894 13.3356 54.4129 12.4486C55.6363 11.5616 57.1351 11.1028 58.8479 11.1028C63.2217 11.1028 65.6686 13.3968 66.2192 17.9235C66.2804 18.5658 66.3415 19.1776 66.3415 19.8504ZM56.768 15.1096C56.2175 15.5072 55.8505 16.0883 55.6058 16.8224C55.4834 17.1894 55.3917 17.6788 55.3305 18.2905C55.2999 18.4129 55.3305 18.4435 55.4528 18.4435H62.2124C62.3347 18.4435 62.3653 18.3823 62.3653 18.2905C62.3347 17.74 62.243 17.3118 62.1818 17.0365C61.9983 16.2413 61.6007 15.6295 60.9889 15.1708C60.4078 14.7425 59.6737 14.4979 58.7867 14.4979C57.9915 14.4673 57.3186 14.6814 56.768 15.1096Z" fill="#041E42"/>
<path d="M80.8394 12.7544C81.9099 13.8249 82.4605 15.2625 82.4605 17.0977V27.9864C82.4605 28.1087 82.4299 28.2005 82.3381 28.2616C82.2464 28.3228 82.1546 28.384 82.0629 28.384H79.0042C78.8819 28.384 78.7901 28.3534 78.729 28.2616C78.6678 28.2005 78.6066 28.0781 78.6066 27.9864V17.8929C78.6066 16.8836 78.3007 16.0577 77.7502 15.4154C77.1691 14.7731 76.4044 14.4673 75.4562 14.4673C74.5081 14.4673 73.7434 14.7731 73.1317 15.3848C72.5505 15.9966 72.2447 16.8224 72.2447 17.8317V27.9558C72.2447 28.0781 72.2141 28.1699 72.1223 28.2311C72.0306 28.2922 71.9388 28.3534 71.847 28.3534H68.7884C68.6661 28.3534 68.5743 28.3228 68.5132 28.2311C68.4214 28.1699 68.3908 28.0475 68.3908 27.9558V11.8368C68.3908 11.7145 68.4214 11.6227 68.5132 11.5616C68.5743 11.5004 68.6967 11.4392 68.7884 11.4392H71.847C71.9694 11.4392 72.0612 11.4698 72.1223 11.5616C72.1835 11.6533 72.2447 11.7451 72.2447 11.8368V12.9074C72.2447 12.9685 72.2753 13.0297 72.3058 13.0297C72.3364 13.0297 72.367 13.0297 72.3976 12.9685C73.3152 11.7757 74.6916 11.1639 76.5267 11.1639C78.3619 11.1639 79.7689 11.6839 80.8394 12.7544Z" fill="#041E42"/>
<path d="M95.3373 11.898C96.4078 12.3874 97.2337 13.0603 97.7842 13.9167C98.3654 14.7731 98.6406 15.7519 98.6406 16.8224V28.017C98.6406 28.1393 98.61 28.2311 98.5183 28.2922C98.4265 28.3534 98.3348 28.4146 98.243 28.4146H95.1844C95.062 28.4146 94.9703 28.384 94.9091 28.2922C94.8479 28.2005 94.7868 28.1087 94.7868 28.017V26.9159C94.7868 26.8547 94.7562 26.8241 94.7256 26.7935C94.695 26.7629 94.6338 26.7935 94.6032 26.8547C93.5327 28.0475 91.9422 28.6593 89.893 28.6593C88.2413 28.6593 86.8649 28.2311 85.7944 27.4052C84.7239 26.5488 84.1733 25.3254 84.1733 23.6431C84.1733 21.9609 84.7851 20.5845 85.9779 19.6057C87.2014 18.6576 88.8836 18.1682 91.0858 18.1682H94.6338C94.7562 18.1682 94.7868 18.107 94.7868 18.0153V17.22C94.7868 16.3636 94.5421 15.6907 94.0221 15.2013C93.5021 14.7119 92.7375 14.4978 91.7281 14.4978C90.8717 14.4978 90.1988 14.6508 89.6789 14.9566C89.1589 15.2625 88.8224 15.6601 88.7001 16.2107C88.6389 16.4859 88.486 16.5777 88.2413 16.5471L85.0298 16.1189C84.9074 16.0883 84.8156 16.0577 84.7545 15.9966C84.6933 15.9354 84.6627 15.8742 84.6627 15.7825C84.8462 14.4367 85.5803 13.3356 86.8343 12.4486C88.119 11.5921 89.7094 11.1639 91.6364 11.1639C93.0433 11.1639 94.2974 11.4086 95.3373 11.898ZM93.6551 24.7442C94.4197 24.1631 94.8173 23.429 94.8173 22.542V20.9821C94.8173 20.8598 94.7562 20.8292 94.6644 20.8292H91.8811C90.7188 20.8292 89.7706 21.0433 89.0977 21.5021C88.4248 21.9609 88.0884 22.5726 88.0884 23.3984C88.0884 24.1019 88.3637 24.6525 88.853 25.0501C89.373 25.4477 90.0459 25.6312 90.8717 25.6312C91.9422 25.6006 92.8598 25.2948 93.6551 24.7442Z" fill="#041E42"/>
<path d="M116.136 19.8505C116.136 21.4104 115.922 22.8173 115.494 24.0102C115.004 25.4783 114.209 26.61 113.139 27.4358C112.068 28.2617 110.722 28.6593 109.162 28.6593C107.602 28.6593 106.348 28.0782 105.339 26.8853C105.308 26.8241 105.247 26.7935 105.217 26.8241C105.186 26.8547 105.155 26.8853 105.155 26.9465V27.9864C105.155 28.1087 105.125 28.2005 105.033 28.2617C104.941 28.3228 104.85 28.384 104.758 28.384H101.699C101.577 28.384 101.485 28.3534 101.424 28.2617C101.363 28.1699 101.302 28.0782 101.302 27.9864V5.56669C101.302 5.44434 101.332 5.35258 101.424 5.29141C101.516 5.23024 101.607 5.16907 101.699 5.16907H104.758C104.88 5.16907 104.972 5.19965 105.033 5.29141C105.094 5.35258 105.155 5.47493 105.155 5.56669V12.7545C105.155 12.8156 105.186 12.8768 105.217 12.8768C105.247 12.9074 105.308 12.8768 105.339 12.8462C106.287 11.7145 107.541 11.164 109.132 11.164C110.722 11.164 112.129 11.5616 113.2 12.3874C114.27 13.2132 115.065 14.3449 115.585 15.8131C115.952 17.0365 116.136 18.3823 116.136 19.8505ZM112.19 19.9116C112.19 18.1988 111.854 16.853 111.181 15.8743C110.569 14.9567 109.682 14.4673 108.52 14.4673C107.449 14.4673 106.593 14.9567 106.043 15.9354C105.492 16.853 105.217 18.1682 105.217 19.881C105.217 21.5939 105.461 22.8785 105.981 23.7349C106.562 24.8054 107.419 25.3254 108.581 25.3254C109.193 25.3254 109.743 25.2031 110.233 24.8972C110.722 24.6219 111.12 24.2243 111.395 23.7349C111.915 22.8173 112.19 21.5327 112.19 19.9116Z" fill="#041E42"/>
<path d="M118.216 28.2617C118.155 28.2005 118.093 28.0782 118.093 27.9864V5.56669C118.093 5.44434 118.124 5.35258 118.216 5.29141C118.308 5.23024 118.399 5.16907 118.491 5.16907H121.55C121.672 5.16907 121.764 5.19965 121.825 5.29141C121.886 5.38317 121.947 5.47493 121.947 5.56669V27.9864C121.947 28.1087 121.917 28.2005 121.825 28.2617C121.733 28.3228 121.641 28.384 121.55 28.384H118.491C118.399 28.384 118.308 28.3534 118.216 28.2617Z" fill="#041E42"/>
<path d="M138.831 19.8504L138.8 20.8904C138.8 21.1657 138.678 21.288 138.403 21.288H128.003C127.881 21.288 127.85 21.3492 127.85 21.4409C127.912 22.175 128.003 22.6644 128.156 22.9397C128.676 24.5301 129.991 25.3254 132.041 25.356C133.539 25.356 134.732 24.7442 135.619 23.4902C135.711 23.3679 135.833 23.2761 135.956 23.2761C136.048 23.2761 136.109 23.3067 136.2 23.3679L138.25 25.0501C138.433 25.203 138.494 25.3866 138.342 25.5701C137.669 26.5488 136.751 27.2829 135.589 27.8335C134.457 28.3534 133.172 28.6287 131.796 28.6287C130.083 28.6287 128.585 28.2311 127.392 27.4664C126.168 26.7018 125.312 25.6007 124.761 24.2243C124.241 23.0314 123.997 21.3798 123.997 19.2387C123.997 17.9541 124.119 16.9142 124.394 16.1189C124.853 14.559 125.679 13.3356 126.902 12.4486C128.126 11.5616 129.624 11.1028 131.337 11.1028C135.711 11.1028 138.158 13.3968 138.709 17.9235C138.77 18.5658 138.831 19.1776 138.831 19.8504ZM129.257 15.1096C128.707 15.5072 128.34 16.0883 128.095 16.8224C127.973 17.1894 127.881 17.6788 127.82 18.2905C127.789 18.4129 127.82 18.4435 127.942 18.4435H134.702C134.824 18.4435 134.855 18.3823 134.855 18.2905C134.824 17.74 134.732 17.3118 134.671 17.0365C134.488 16.2413 134.09 15.6295 133.478 15.1708C132.897 14.7425 132.163 14.4979 131.276 14.4979C130.481 14.4673 129.808 14.6814 129.257 15.1096Z" fill="#041E42"/>
<path d="M146.325 27.4359C145.162 26.6101 144.367 25.4784 143.939 24.0408C143.633 23.0315 143.48 21.6551 143.48 19.9729C143.48 18.2906 143.633 16.9142 143.939 15.9355C144.367 14.5285 145.162 13.3968 146.294 12.571C147.456 11.7452 148.833 11.3475 150.484 11.3475C152.136 11.3475 153.421 11.7452 154.552 12.571C155.684 13.3968 156.479 14.4979 156.907 15.8743C157.213 16.8225 157.366 18.1989 157.366 19.9423C157.366 21.6857 157.213 23.1232 156.907 24.0408C156.479 25.4784 155.715 26.6101 154.552 27.4359C153.421 28.2617 152.044 28.6593 150.454 28.6593C148.863 28.6593 147.487 28.2311 146.325 27.4359ZM153.176 25.7231C153.941 25.1419 154.43 24.3467 154.705 23.3373C154.919 22.5421 155.011 21.441 155.011 19.9729C155.011 18.5047 154.919 17.4036 154.736 16.6084C154.46 15.6296 153.941 14.8344 153.206 14.2226C152.442 13.6415 151.524 13.3356 150.423 13.3356C149.322 13.3356 148.404 13.6415 147.67 14.2226C146.906 14.8038 146.416 15.599 146.141 16.6084C145.958 17.373 145.866 18.5047 145.866 19.9729C145.866 21.441 145.958 22.5421 146.141 23.3373C146.386 24.3467 146.875 25.1113 147.67 25.7231C148.435 26.3042 149.383 26.6101 150.484 26.6101C151.585 26.6101 152.442 26.3042 153.176 25.7231Z" fill="#041E42"/>
<path d="M170.732 12.9074C171.772 13.9473 172.323 15.3543 172.323 17.0977V28.0476C172.323 28.2617 172.2 28.384 171.986 28.384H170.304C170.09 28.384 169.968 28.2617 169.968 28.0476V17.5565C169.968 16.333 169.601 15.3543 168.867 14.559C168.133 13.7944 167.154 13.3967 165.991 13.3967C164.829 13.3967 163.789 13.7638 163.025 14.5284C162.26 15.2931 161.893 16.2718 161.893 17.4953V28.0476C161.893 28.2617 161.771 28.384 161.556 28.384H159.874C159.66 28.384 159.538 28.2617 159.538 28.0476V11.9286C159.538 11.7145 159.66 11.5922 159.874 11.5922H161.556C161.771 11.5922 161.893 11.7145 161.893 11.9286V13.3662C161.893 13.4273 161.924 13.4273 161.954 13.4579C161.985 13.4885 162.015 13.4579 162.046 13.4273C163.025 12.0509 164.523 11.3781 166.542 11.3781C168.255 11.3781 169.662 11.898 170.732 12.9074Z" fill="#041E42"/>
<path d="M187.861 19.4835V20.554C187.861 20.7681 187.738 20.8905 187.524 20.8905H176.788C176.697 20.8905 176.666 20.9516 176.666 21.0128C176.697 22.2362 176.788 23.0315 176.88 23.3679C177.125 24.3773 177.645 25.1419 178.44 25.7231C179.235 26.3042 180.245 26.5795 181.499 26.5795C182.416 26.5795 183.242 26.3654 183.946 25.9372C184.649 25.509 185.2 24.9278 185.597 24.1326C185.72 23.9185 185.873 23.8879 186.056 24.0103L187.341 24.7749C187.524 24.8973 187.555 25.0502 187.463 25.2337C186.913 26.3042 186.087 27.13 184.955 27.7418C183.854 28.3535 182.569 28.6594 181.132 28.6594C179.572 28.6288 178.226 28.2617 177.186 27.5277C176.116 26.7936 175.351 25.7843 174.892 24.469C174.494 23.3985 174.28 21.8692 174.28 19.8811C174.28 18.9635 174.28 18.1989 174.342 17.6177C174.372 17.0366 174.464 16.5166 174.586 16.0272C174.953 14.5897 175.718 13.4274 176.88 12.571C178.012 11.7146 179.388 11.2864 181.009 11.2864C183.028 11.2864 184.588 11.8063 185.658 12.8157C186.729 13.825 187.432 15.2626 187.677 17.1283C187.83 17.8012 187.861 18.5659 187.861 19.4835ZM178.348 14.2227C177.614 14.7732 177.156 15.5379 176.941 16.486C176.819 16.9448 176.727 17.7095 176.666 18.7494C176.666 18.8412 176.697 18.8718 176.788 18.8718H185.414C185.506 18.8718 185.536 18.8412 185.536 18.7494C185.475 17.7707 185.414 17.0366 185.322 16.639C185.077 15.6602 184.588 14.865 183.854 14.2532C183.12 13.6721 182.172 13.3662 181.04 13.3662C179.908 13.3662 179.082 13.6721 178.348 14.2227Z" fill="#041E42"/>
<path d="M188.962 8.25825V8.38059C188.962 8.40098 188.952 8.41118 188.931 8.41118H188.319V10.3993C188.319 10.4197 188.309 10.4299 188.289 10.4299H188.105C188.085 10.4299 188.075 10.4197 188.075 10.3993V8.44177H187.494C187.473 8.44177 187.463 8.43157 187.463 8.41118V8.25825C187.463 8.23786 187.473 8.22766 187.494 8.22766L188.962 8.25825C188.962 8.23786 188.962 8.23786 188.962 8.25825Z" fill="#041E42"/>
<path d="M190.736 8.22766H190.889C190.909 8.22766 190.919 8.23786 190.919 8.25825V10.3993C190.919 10.4197 190.909 10.4299 190.889 10.4299H190.736C190.715 10.4299 190.705 10.4197 190.705 10.3993V8.65587L190.185 9.45111L190.155 9.4817H190.063C190.063 9.4817 190.032 9.4817 190.032 9.45111L189.512 8.68645V10.3993C189.512 10.4197 189.502 10.4299 189.482 10.4299H189.329C189.308 10.4299 189.298 10.4197 189.298 10.3993V8.25825C189.298 8.23786 189.308 8.22766 189.329 8.22766H189.482C189.482 8.22766 189.512 8.22766 189.512 8.25825L190.093 9.14525H190.124L190.705 8.25825C190.675 8.22766 190.705 8.22766 190.736 8.22766Z" fill="#041E42"/>
<path d="M37.2846 20.0034L32.2991 5.19962C31.932 4.1291 31.0144 3.33386 29.9133 3.11976L14.3144 0.0611329C13.2132 -0.152971 12.1121 0.24465 11.3475 1.07048L0.795235 12.9074C0.0305789 13.7638 -0.183525 14.926 0.152924 16.0272L5.13848 30.8309C5.50552 31.9014 6.4231 32.6967 7.52421 32.9108L23.0926 35.9388C23.2761 35.9694 23.4902 36 23.6737 36C24.5607 36 25.4477 35.6329 26.0289 34.96L36.6117 23.1232C37.407 22.2667 37.6516 21.0739 37.2846 20.0034ZM31.2285 5.53607L34.5319 15.2931L27.5582 4.28203C27.4053 4.03734 27.2217 3.82324 27.0076 3.67031L29.6686 4.19028C30.4027 4.31262 31.0144 4.83259 31.2285 5.53607ZM26.0901 31.2285L20.0034 31.5344L29.8522 25.8453L29.8827 25.8147L27.5276 30.3109C27.2523 30.8615 26.7018 31.1979 26.0901 31.2285ZM10.7969 31.1368L7.37128 25.723C7.43245 25.7842 7.49362 25.8147 7.58538 25.8453L17.4953 31.5955C17.5565 31.6261 17.5871 31.6567 17.6483 31.6567L12.3568 31.932C11.7451 31.9626 11.1334 31.6567 10.7969 31.1368ZM11.3475 4.77141L17.4341 4.46555L7.58538 10.1546C7.58538 10.1546 7.55479 10.1546 7.55479 10.1852L9.90993 5.689C10.1852 5.13845 10.7358 4.802 11.3475 4.77141ZM26.61 4.86317L30.0357 10.2769C29.9745 10.2158 29.9133 10.1852 29.8216 10.1546L19.9422 4.40438C19.881 4.37379 19.8505 4.34321 19.7893 4.34321L25.0807 4.06793C25.6924 4.03734 26.2736 4.34321 26.61 4.86317ZM29.9745 23.7655C29.9745 24.2548 29.6992 24.6831 29.3016 24.9277L19.3917 30.6474C18.9635 30.8921 18.4741 30.8921 18.0459 30.6474L8.13593 24.8972C7.70772 24.6525 7.46303 24.2243 7.46303 23.7349V12.265C7.46303 11.7757 7.73831 11.3475 8.13593 11.1028L18.0459 5.35255C18.4741 5.10786 18.9635 5.10786 19.3917 5.35255L29.3016 11.1028C29.7298 11.3475 29.9745 11.7757 29.9745 12.265V23.7655ZM6.39252 24.1937L3.51741 19.6669C3.18096 19.1469 3.18096 18.5046 3.45624 17.9541L6.36193 12.418V23.7349C6.36193 23.8878 6.36193 24.0407 6.39252 24.1937ZM31.045 11.8062L33.9201 16.3636C34.2566 16.8836 34.2872 17.5259 33.9813 18.0764L31.0756 23.582V12.265C31.0756 12.1121 31.0756 11.9592 31.045 11.8062ZM12.1733 1.77396C12.5709 1.34575 13.1215 1.10107 13.7026 1.10107C13.825 1.10107 13.9473 1.10107 14.1002 1.13165L23.8267 3.028L11.2863 3.67031C10.9499 3.7009 10.6134 3.76207 10.3076 3.915L12.1733 1.77396ZM1.62106 13.6108L8.62531 5.78076L2.50806 17.4035C2.32455 17.74 2.23279 18.1376 2.2022 18.5046L1.22344 15.6295C0.948166 14.9566 1.13168 14.1614 1.62106 13.6108ZM6.17841 30.4639L2.90569 20.7068L9.87935 31.7179C10.0323 31.9626 10.2158 32.1461 10.4299 32.3296L7.73831 31.8097C7.03483 31.6873 6.4231 31.1673 6.17841 30.4639ZM25.2336 34.226C24.7443 34.7765 24.0102 35.0212 23.3067 34.8683L13.5803 32.9719L26.1206 32.3296C26.4571 32.299 26.7935 32.2379 27.0994 32.0849L25.2336 34.226ZM35.8165 22.3891L28.8122 30.2192L34.9295 18.5964C35.113 18.2599 35.2048 17.8623 35.2353 17.4953L36.2141 20.3704C36.4588 21.0739 36.3059 21.8385 35.8165 22.3891Z" fill="#041E42"/>
</g>
<defs>
<clipPath id="clip0_4645_848">
<rect width="190.919" height="36" fill="white"/>
</clipPath>
</defs>
</svg>
