<svg width="156" height="48" fill="none" xmlns="http://www.w3.org/2000/svg"><path d="M135.098 9.131v-.007a.27.27 0 00.09-.2c0-.23-.179-.345-.535-.345h-.344v1.147h.242v-.438h.104l.269.438h.293l-.324-.476a.47.47 0 00.206-.12h-.001v.001zm-.416-.026h-.131l.005-.338h.121c.065-.004.13.01.186.04a.137.137 0 01.061.124c0 .117-.085.174-.243.174h.001z" fill="#fff"/><path d="M135.67 8.631a1.07 1.07 0 00-.402-.385 1.17 1.17 0 00-.569-.14 1.14 1.14 0 00-.557.14 1.089 1.089 0 00-.402.385 1.014 1.014 0 00-.145.534c-.002.186.048.37.145.531.098.159.237.29.402.38.17.094.362.143.557.141a1.17 1.17 0 00.569-.14 1.07 1.07 0 00.402-.381.997.997 0 00.148-.53 1.017 1.017 0 00-.148-.535zm-.206.979a.793.793 0 01-.31.302v-.007a.95.95 0 01-.455.119.916.916 0 01-.443-.11.8.8 0 01-.308-.302.875.875 0 01-.114-.438.885.885 0 01.114-.44.821.821 0 01.308-.308.898.898 0 01.443-.11.921.921 0 01.455.11c.13.073.237.178.31.305a.87.87 0 01.111.44.852.852 0 01-.111.438zM56.302 9.06h-3.124c-.104 0-.155-.05-.155-.146v-3.39c0-.09-.04-.176-.107-.238a.36.36 0 00-.261-.102H49.99a.364.364 0 00-.261.102.33.33 0 00-.107.238v3.4a.163.163 0 010 .035.133.133 0 01-.152.11h-1.747a.369.369 0 00-.261.1.326.326 0 00-.107.238v2.036c0 .09.039.176.107.238.07.066.164.102.261.1h1.747a.11.11 0 01.036 0 .13.13 0 01.116.146v8.244c.021 1.448.429 2.434 1.225 2.954.797.52 2.002.78 3.616.78l1.594-.028c.245-.038.368-.164.368-.376v-2.174c0-.09-.04-.177-.108-.238a.367.367 0 00-.26-.102h-.92c-.734 0-1.271-.161-1.608-.49-.338-.328-.506-.86-.506-1.595v-6.975c0-.096.05-.146.155-.146h3.124a.372.372 0 00.262-.1.334.334 0 00.107-.257V9.398a.33.33 0 00-.107-.238.375.375 0 00-.262-.1zM63.692 8.827A7.028 7.028 0 0059.602 10a5.829 5.829 0 00-2.314 3.2 8.38 8.38 0 00-.368 2.723c0 1.854.235 3.302.704 4.344a5.918 5.918 0 002.437 2.84c1.114.674 2.467 1.012 4.06 1.012a8.6 8.6 0 003.508-.695 6.195 6.195 0 002.529-1.957.302.302 0 00-.092-.476l-1.902-1.476a.3.3 0 00-.213-.088.369.369 0 00-.307.174 3.926 3.926 0 01-3.309 1.623c-1.905-.018-3.1-.723-3.585-2.113a3.924 3.924 0 01-.276-1.34.134.134 0 01.152-.11h9.592c.244 0 .368-.11.368-.347l.032-.898a9.752 9.752 0 00-.123-1.62c-.51-3.98-2.779-5.969-6.804-5.969h.001zm3.158 6.344h-6.22c-.12 0-.162-.048-.12-.146a4.68 4.68 0 01.242-1.274 2.837 2.837 0 011.055-1.492 3.162 3.162 0 011.887-.536 3.431 3.431 0 012.04.58c.547.396.932.972 1.087 1.623.1.36.162.728.184 1.1 0 .097-.05.145-.155.145zM79.474 8.824c-1.697 0-2.963.521-3.797 1.564-.022.059-.054.078-.092.059a.118.118 0 01-.063-.116v-.924a.331.331 0 00-.107-.239.369.369 0 00-.26-.1h-2.819a.369.369 0 00-.261.1.326.326 0 00-.107.239V23.51c0 .09.038.177.107.238.069.068.163.104.261.102h2.812a.361.361 0 00.366-.34v-8.834a2.891 2.891 0 01.814-2.143 2.876 2.876 0 012.13-.811 2.81 2.81 0 012.114.825c.545.586.833 1.36.799 2.155v8.808c0 .09.038.177.106.238.07.068.164.106.262.102h2.824a.361.361 0 00.261-.102.327.327 0 00.107-.238v-9.5c0-1.602-.497-2.866-1.492-3.795-.992-.926-2.313-1.39-3.964-1.393zM96.576 9.464a8.49 8.49 0 00-3.41-.637c-1.775 0-3.25.376-4.427 1.13-1.177.754-1.847 1.718-2.008 2.895a.166.166 0 00.077.19.688.688 0 00.261.1l2.972.348a.34.34 0 00.429-.29c.13-.471.459-.866.904-1.085a3.951 3.951 0 011.884-.39c.94 0 1.644.208 2.114.623a2.21 2.21 0 01.705 1.753v.695c0 .095-.05.142-.153.142h-3.28c-2.022.004-3.59.424-4.702 1.262-1.113.838-1.67 2.01-1.67 3.518 0 1.45.493 2.54 1.485 3.273.992.734 2.254 1.1 3.786 1.1 1.907 0 3.36-.522 4.36-1.564a.135.135 0 01.123-.043c.041.01.06.043.06.102v.926c.001.09.04.177.107.238.07.068.165.105.262.103h2.82a.357.357 0 00.259-.103.322.322 0 00.108-.238v-9.76a4.256 4.256 0 00-.796-2.535 5.296 5.296 0 00-2.27-1.753zm-.605 9.306a2.255 2.255 0 01-1.073 1.904 4.36 4.36 0 01-2.565.748 3.153 3.153 0 01-1.856-.507 1.656 1.656 0 01-.726-1.429 1.836 1.836 0 01.934-1.652c.623-.385 1.477-.578 2.558-.578h2.575c.102 0 .152.047.152.145v1.369zM112.036 9.898c-.991-.714-2.243-1.071-3.754-1.071-1.512 0-2.614.492-3.493 1.478a.102.102 0 01-.121.028.118.118 0 01-.063-.116V3.932a.33.33 0 00-.107-.238.363.363 0 00-.261-.102h-2.819a.36.36 0 00-.26.102.324.324 0 00-.107.238V23.52c0 .09.039.177.107.238a.36.36 0 00.26.095h2.821a.363.363 0 00.261-.102.325.325 0 00.107-.238v-.898a.118.118 0 01.063-.116c.039-.02.08 0 .121.057a4.531 4.531 0 003.517 1.535c1.45 0 2.676-.357 3.677-1.07a5.998 5.998 0 002.18-2.984c.41-1.164.607-2.39.583-3.62a11.512 11.512 0 00-.533-3.533 6.22 6.22 0 00-2.18-2.985h.001zm-1.674 9.907a2.76 2.76 0 01-1.068 1.026 3.192 3.192 0 01-1.533.365 2.59 2.59 0 01-2.39-1.39c-.469-.737-.703-1.857-.703-3.362 0-1.504.255-2.653.766-3.447a2.55 2.55 0 012.298-1.274c1.082 0 1.899.404 2.451 1.217.612.85.918 2.028.918 3.533 0 1.41-.247 2.522-.739 3.332zM119.295 3.613h-2.82a.366.366 0 00-.259.102.321.321 0 00-.109.239v19.588c.001.091.041.177.109.239a.364.364 0 00.259.09h2.82a.373.373 0 00.261-.1.334.334 0 00.107-.239V3.954a.33.33 0 00-.107-.239.375.375 0 00-.261-.102zM127.801 8.805a7.023 7.023 0 00-4.084 1.183 5.81 5.81 0 00-2.313 3.2 8.374 8.374 0 00-.364 2.713c0 1.854.235 3.302.705 4.344a5.917 5.917 0 002.431 2.85c1.113.676 2.466 1.014 4.06 1.014a8.59 8.59 0 003.509-.695 6.217 6.217 0 002.529-1.969.303.303 0 00-.092-.476l-1.902-1.475a.291.291 0 00-.213-.088.363.363 0 00-.307.173 3.93 3.93 0 01-3.308 1.621c-1.906-.019-3.101-.723-3.585-2.113a3.913 3.913 0 01-.276-1.302c0-.098.051-.146.153-.146h9.592c.244 0 .367-.11.367-.348l.029-.897a10.036 10.036 0 00-.128-1.624c-.51-3.977-2.778-5.966-6.804-5.966h.001zm3.168 6.34h-6.22c-.123 0-.164-.049-.124-.143.022-.434.103-.864.242-1.276a2.831 2.831 0 011.056-1.49 3.172 3.172 0 011.877-.534 3.435 3.435 0 012.051.576c.548.395.933.97 1.087 1.62.1.36.162.73.185 1.103 0 .095-.054.143-.155.143h.001zM41.971 5.141a2.23 2.23 0 00-1.695-1.457l-11.052-2.12a2.272 2.272 0 00-2.097.695l-7.509 8.263a2.176 2.176 0 00-.45 2.166l3.544 10.34c.257.75.904 1.306 1.695 1.457l11.058 2.121a2.266 2.266 0 002.098-.695l7.508-8.263c.532-.592.7-1.418.443-2.167L41.97 5.141h.001zm-1.848-.707c.517.098.94.46 1.11.95l2.33 6.8-4.954-7.679a1.93 1.93 0 00-.385-.435l1.9.364zm.97 5.335l2.034 3.18c.231.36.25.813.048 1.19l-2.063 3.852v-7.915a1.84 1.84 0 00-.02-.307zm-3.15-4.855l.008.01 2.44 3.773a1.428 1.428 0 00-.144-.093L33.21 4.6a.934.934 0 00-.1-.052l3.752-.188c.436-.02.85.192 1.083.554zm2.398 5.162l-.01 8.026a.95.95 0 01-.484.81l-7.03 3.994a.983.983 0 01-.954 0L24.825 18.9a.95.95 0 01-.485-.81v-8.014a.95.95 0 01.485-.81l7.038-4.004a.965.965 0 01.955 0l7.038 4.004a.95.95 0 01.485.81zM27.703 2.766a1.466 1.466 0 011.366-.45l6.905 1.322-8.913.442a2.08 2.08 0 00-.705.167l1.347-1.48zM27.1 4.855l4.319-.214-6.983 3.964a.135.135 0 00-.032.018l1.672-3.137a1.23 1.23 0 011.024-.63zm-6.505 9.596l-.688-2.009a1.41 1.41 0 01.293-1.412h-.005l4.965-5.46-4.343 8.105c-.128.24-.204.505-.222.775v.001zm3.005 3.95l-2.044-3.17a1.174 1.174 0 01-.049-1.19l2.064-3.854v7.906c0 .103.01.206.028.307h.001zm.954 5.331a1.456 1.456 0 01-1.104-.947l-2.33-6.801 4.956 7.677c.105.163.235.31.384.435l-1.905-.364zm2.176-.478l-2.44-3.782c.047.033.095.064.145.092l7.039 4.005c.031.02.065.037.1.052l-3.753.189a1.216 1.216 0 01-1.091-.555v-.001zm10.25 2.15c-.344.377-.863.549-1.369.455l-6.903-1.327 8.913-.442c.243-.015.482-.07.705-.167l-1.346 1.48zm.603-2.08l-4.319.214 6.983-3.974.031-.018-1.68 3.137c-.2.376-.585.62-1.015.64zm6.9-6.185l-4.963 5.475 4.343-8.108c.129-.24.205-.504.225-.775l.688 2.009a1.409 1.409 0 01-.293 1.4v-.001zM8.77 32.165h1.047c.137 0 .206.067.206.202v13.726c0 .135-.069.202-.206.202H8.791c-.096 0-.178-.047-.247-.141L1.54 34.95c-.013-.04-.034-.057-.061-.05-.028.007-.041.03-.041.07l.02 11.123c0 .135-.068.202-.205.202H.205c-.137 0-.205-.067-.205-.202V32.367c0-.135.068-.202.205-.202h1.027c.096 0 .178.047.247.141L8.482 43.51c.014.04.035.057.062.05.027-.007.041-.03.041-.07l-.02-11.123c0-.135.068-.202.205-.202zM20.228 40.885v.646c0 .134-.069.201-.206.201H13.39c-.055 0-.083.027-.083.081.028.74.069 1.218.124 1.433.15.606.472 1.084.965 1.434.493.35 1.123.525 1.89.525.575 0 1.081-.128 1.52-.384.438-.256.78-.62 1.026-1.09.082-.121.178-.148.288-.08l.8.463c.11.068.138.162.083.283-.342.646-.856 1.154-1.54 1.524-.685.37-1.472.555-2.362.555-.973-.013-1.787-.242-2.445-.686-.657-.444-1.13-1.063-1.417-1.857-.246-.646-.37-1.575-.37-2.786 0-.565.01-1.026.031-1.383a4.33 4.33 0 01.155-.959c.232-.874.701-1.574 1.406-2.099.706-.525 1.558-.787 2.557-.787 1.247 0 2.205.31 2.876.928.67.62 1.088 1.494 1.253 2.624.055.377.082.848.082 1.414zm-5.884-3.2c-.445.343-.736.804-.873 1.383-.082.282-.137.74-.165 1.373 0 .053.028.08.083.08h5.319c.055 0 .082-.027.082-.08-.027-.606-.068-1.037-.123-1.293-.15-.605-.455-1.086-.914-1.443-.459-.356-1.037-.535-1.736-.535-.698 0-1.228.172-1.673.515zM23.236 46.032c-.595-.242-1.054-.565-1.376-.969a2.116 2.116 0 01-.482-1.352v-.243c0-.134.068-.201.205-.201h.986c.137 0 .205.067.205.201v.162c0 .444.236.83.709 1.16.472.33 1.064.495 1.776.495s1.288-.158 1.726-.474c.438-.316.657-.717.657-1.201 0-.337-.113-.613-.339-.828a2.441 2.441 0 00-.8-.505 18.349 18.349 0 00-1.428-.464c-.767-.215-1.397-.43-1.89-.646a3.473 3.473 0 01-1.242-.898c-.336-.384-.504-.871-.504-1.464 0-.86.343-1.547 1.027-2.059.685-.511 1.589-.767 2.711-.767.753 0 1.42.121 2.003.364.582.242 1.03.575 1.345.999.315.424.473.898.473 1.423v.06c0 .135-.069.202-.206.202h-.965c-.137 0-.206-.067-.206-.202v-.06c0-.458-.222-.841-.667-1.15-.445-.31-1.044-.465-1.797-.465-.698 0-1.26.138-1.684.414-.425.276-.637.656-.637 1.14 0 .458.205.808.616 1.05.41.242 1.048.485 1.91.727.794.229 1.438.444 1.93.646.494.202.918.494 1.274.878.356.383.534.885.534 1.504 0 .874-.349 1.574-1.047 2.1-.699.524-1.623.786-2.773.786-.767 0-1.448-.12-2.044-.363zM32.066 46.032c-.595-.242-1.054-.565-1.376-.969a2.116 2.116 0 01-.483-1.352v-.243c0-.134.069-.201.206-.201h.986c.137 0 .205.067.205.201v.162c0 .444.236.83.709 1.16.472.33 1.064.495 1.776.495s1.287-.158 1.726-.474c.438-.316.657-.717.657-1.201 0-.337-.113-.613-.34-.828a2.441 2.441 0 00-.8-.505 18.358 18.358 0 00-1.428-.464c-.766-.215-1.396-.43-1.89-.646a3.473 3.473 0 01-1.242-.898c-.335-.384-.503-.871-.503-1.464 0-.86.342-1.547 1.027-2.059.685-.511 1.588-.767 2.711-.767.753 0 1.42.121 2.003.364.582.242 1.03.575 1.345.999.315.424.472.898.472 1.423v.06c0 .135-.068.202-.205.202h-.965c-.137 0-.206-.067-.206-.202v-.06c0-.458-.222-.841-.667-1.15-.445-.31-1.044-.465-1.797-.465-.699 0-1.26.138-1.684.414-.425.276-.637.656-.637 1.14 0 .458.205.808.616 1.05.41.242 1.047.485 1.91.727a19.49 19.49 0 011.93.646c.494.202.918.494 1.274.878.356.383.534.885.534 1.504 0 .874-.35 1.574-1.047 2.1-.699.524-1.623.786-2.773.786-.767 0-1.448-.12-2.044-.363zM45.92 36.081h1.048c.137 0 .206.067.206.202v9.81c0 .135-.069.202-.206.202h-1.047c-.137 0-.206-.067-.206-.202v-.868c0-.026-.013-.047-.04-.06-.028-.014-.048-.007-.062.02-.575.834-1.486 1.252-2.732 1.252a4.195 4.195 0 01-1.818-.394 3.117 3.117 0 01-1.314-1.14c-.322-.498-.483-1.097-.483-1.797v-6.823c0-.135.069-.202.206-.202h1.047c.137 0 .206.067.206.202v6.399c0 .767.219 1.376.657 1.827.438.45 1.034.676 1.787.676.753 0 1.4-.229 1.859-.686.458-.458.688-1.063.688-1.817v-6.4c0-.134.068-.2.205-.2zM50.614 46.032c-.596-.242-1.054-.565-1.376-.969a2.116 2.116 0 01-.483-1.352v-.243c0-.134.069-.201.206-.201h.985c.137 0 .206.067.206.201v.162c0 .444.236.83.708 1.16.473.33 1.065.495 1.777.495s1.287-.158 1.725-.474c.438-.316.657-.717.657-1.201 0-.337-.112-.613-.338-.828a2.441 2.441 0 00-.801-.505 18.358 18.358 0 00-1.428-.464c-.767-.215-1.396-.43-1.89-.646a3.473 3.473 0 01-1.242-.898c-.336-.384-.503-.871-.503-1.464 0-.86.342-1.547 1.027-2.059.684-.511 1.588-.767 2.71-.767.754 0 1.421.121 2.003.364.582.242 1.03.575 1.346.999.315.424.472.898.472 1.423v.06c0 .135-.069.202-.205.202h-.966c-.137 0-.205-.067-.205-.202v-.06c0-.458-.223-.841-.668-1.15-.445-.31-1.044-.465-1.797-.465-.698 0-1.26.138-1.684.414-.424.276-.637.656-.637 1.14 0 .458.206.808.617 1.05.41.242 1.047.485 1.91.727.794.229 1.437.444 1.93.646.493.202.918.494 1.274.878.356.383.534.885.534 1.504 0 .874-.35 1.574-1.048 2.1-.698.524-1.622.786-2.773.786-.766 0-1.447-.12-2.043-.363zM70.25 33.235c.732.726 1.098 1.682 1.098 2.866 0 1.184-.373 2.113-1.12 2.826-.746.713-1.728 1.07-2.947 1.07h-4.005c-.055 0-.082.027-.082.08v6.016c0 .135-.068.202-.205.202H61.94c-.137 0-.205-.067-.205-.202V32.346c0-.134.068-.201.205-.201h5.402c1.205 0 2.174.363 2.906 1.09zm-1.1 4.834c.507-.491.76-1.14.76-1.948 0-.807-.253-1.48-.76-1.978-.506-.498-1.164-.747-1.971-.747h-3.903c-.055 0-.082.027-.082.08v5.25c0 .053.027.08.082.08h3.903c.807 0 1.465-.245 1.971-.737zM78.015 36.242c.11.053.15.141.123.262l-.226.99c-.04.134-.13.174-.267.12a2.122 2.122 0 00-.8-.141l-.268.02c-.712.027-1.3.286-1.766.777-.466.492-.699 1.114-.699 1.868v5.955c0 .134-.068.201-.205.201H72.86c-.137 0-.206-.067-.206-.201v-9.811c0-.134.069-.202.206-.202h1.047c.137 0 .206.068.206.202v1.231c0 .04.01.064.03.071.02.007.038-.003.052-.03a3.237 3.237 0 011.099-1.16c.445-.277.961-.415 1.55-.415.452 0 .842.088 1.17.263zM80.317 45.71c-.712-.499-1.205-1.185-1.479-2.06-.191-.619-.287-1.447-.287-2.483s.096-1.857.287-2.463c.26-.86.747-1.54 1.459-2.038.712-.498 1.574-.747 2.587-.747 1.014 0 1.811.249 2.516.747a3.743 3.743 0 011.448 2.018c.192.579.288 1.407.288 2.483 0 1.077-.096 1.918-.288 2.483-.26.875-.742 1.561-1.448 2.06-.705.497-1.55.746-2.536.746s-1.835-.249-2.547-.747zm4.231-1.04c.466-.357.78-.838.945-1.444.123-.484.185-1.164.185-2.039 0-.874-.055-1.567-.165-2.038-.164-.606-.482-1.087-.955-1.444-.472-.356-1.044-.535-1.715-.535-.67 0-1.239.179-1.704.535-.466.357-.78.838-.945 1.444-.11.47-.164 1.15-.164 2.038 0 .889.054 1.568.164 2.04.15.605.462 1.086.934 1.443.473.356 1.051.535 1.736.535.684 0 1.218-.179 1.684-.535zM91.262 33.91c-.274.33-.41.893-.41 1.687V36c0 .054.027.081.081.081h2.3c.138 0 .206.067.206.202v.908c0 .135-.068.202-.205.202h-2.3c-.055 0-.083.027-.083.08v8.62c0 .135-.068.202-.205.202h-1.027c-.137 0-.205-.067-.205-.202v-8.62c0-.053-.028-.08-.082-.08h-1.377c-.136 0-.205-.067-.205-.202v-.908c0-.135.069-.202.205-.202h1.377c.054 0 .082-.027.082-.08v-.485c0-.835.096-1.49.287-1.968a1.91 1.91 0 01.996-1.05c.473-.222 1.133-.333 1.982-.333h.596c.137 0 .205.067.205.202v.848c0 .134-.068.201-.205.201h-.473c-.753 0-1.266.165-1.54.495zM102.568 40.885v.646c0 .134-.069.201-.206.201h-6.634c-.054 0-.082.027-.082.081.028.74.069 1.218.123 1.433.151.606.473 1.084.966 1.434.493.35 1.123.525 1.89.525.574 0 1.081-.128 1.519-.384a2.655 2.655 0 001.027-1.09c.082-.121.178-.148.288-.08l.801.463c.109.068.137.162.082.283-.343.646-.856 1.154-1.541 1.524-.684.37-1.472.555-2.362.555-.972-.013-1.786-.242-2.444-.686-.657-.444-1.13-1.063-1.417-1.857-.246-.646-.37-1.575-.37-2.786 0-.565.01-1.026.031-1.383.02-.356.072-.676.154-.959.233-.874.702-1.574 1.407-2.099.705-.525 1.558-.787 2.557-.787 1.246 0 2.205.31 2.876.928.671.62 1.088 1.494 1.253 2.624.054.377.082.848.082 1.414zm-5.885-3.2c-.445.343-.736.804-.873 1.383-.082.282-.136.74-.164 1.373 0 .053.028.08.082.08h5.32c.055 0 .082-.027.082-.08-.027-.606-.068-1.037-.123-1.293-.151-.605-.455-1.086-.914-1.443-.459-.356-1.037-.535-1.736-.535-.698 0-1.229.172-1.674.515zM105.577 46.032c-.596-.242-1.054-.565-1.376-.969a2.115 2.115 0 01-.483-1.352v-.243c0-.134.069-.201.206-.201h.986c.136 0 .205.067.205.201v.162c0 .444.236.83.708 1.16.473.33 1.065.495 1.777.495s1.287-.158 1.725-.474c.438-.316.658-.717.658-1.201 0-.337-.113-.613-.339-.828a2.444 2.444 0 00-.801-.505 18.304 18.304 0 00-1.428-.464 14.86 14.86 0 01-1.889-.646 3.478 3.478 0 01-1.243-.898c-.335-.384-.503-.871-.503-1.464 0-.86.342-1.547 1.027-2.059.684-.511 1.588-.767 2.711-.767.753 0 1.421.121 2.002.364.582.242 1.031.575 1.346.999.315.424.472.898.472 1.423v.06c0 .135-.068.202-.205.202h-.966c-.137 0-.205-.067-.205-.202v-.06c0-.458-.222-.841-.667-1.15-.445-.31-1.045-.465-1.798-.465-.698 0-1.259.138-1.684.414-.424.276-.636.656-.636 1.14 0 .458.205.808.616 1.05.41.242 1.047.485 1.91.727.794.229 1.437.444 1.93.646.493.202.918.494 1.274.878.356.383.534.885.534 1.504 0 .874-.349 1.574-1.048 2.1-.698.524-1.622.786-2.772.786-.767 0-1.448-.12-2.044-.363zM114.405 46.032c-.595-.242-1.054-.565-1.376-.969a2.12 2.12 0 01-.482-1.352v-.243c0-.134.068-.201.205-.201h.986c.137 0 .205.067.205.201v.162c0 .444.236.83.709 1.16.472.33 1.064.495 1.776.495s1.288-.158 1.726-.474c.438-.316.657-.717.657-1.201 0-.337-.113-.613-.339-.828a2.444 2.444 0 00-.801-.505 18.394 18.394 0 00-1.427-.464c-.767-.215-1.397-.43-1.89-.646a3.478 3.478 0 01-1.243-.898c-.335-.384-.503-.871-.503-1.464 0-.86.343-1.547 1.027-2.059.685-.511 1.589-.767 2.711-.767.753 0 1.421.121 2.003.364.582.242 1.03.575 1.345.999.315.424.472.898.472 1.423v.06c0 .135-.068.202-.205.202h-.965c-.137 0-.206-.067-.206-.202v-.06c0-.458-.222-.841-.667-1.15-.445-.31-1.044-.465-1.797-.465-.699 0-1.26.138-1.684.414-.425.276-.637.656-.637 1.14 0 .458.205.808.616 1.05.411.242 1.048.485 1.91.727a19.53 19.53 0 011.931.646 3.55 3.55 0 011.273.878c.356.383.534.885.534 1.504 0 .874-.349 1.574-1.047 2.1-.699.524-1.623.786-2.773.786-.767 0-1.448-.12-2.044-.363zM121.761 33.9a1.087 1.087 0 01-.329-.807c0-.323.11-.61.329-.818.219-.209.493-.313.821-.313.329 0 .603.104.822.313.219.209.328.481.328.818 0 .336-.109.592-.328.807a1.125 1.125 0 01-.822.323c-.328 0-.602-.108-.821-.323zm.041 12.172v-9.81c0-.135.068-.202.205-.202h1.048c.137 0 .205.067.205.202v9.81c0 .135-.068.202-.205.202h-1.048c-.137 0-.205-.067-.205-.202zM126.792 45.71c-.712-.499-1.204-1.185-1.478-2.06-.192-.619-.288-1.447-.288-2.483s.096-1.857.288-2.463c.26-.86.746-1.54 1.458-2.038.712-.498 1.575-.747 2.588-.747 1.013 0 1.811.249 2.516.747a3.743 3.743 0 011.448 2.018c.191.579.287 1.407.287 2.483 0 1.077-.096 1.918-.287 2.483-.26.875-.743 1.561-1.448 2.06-.705.497-1.551.746-2.537.746s-1.835-.249-2.547-.747zm4.231-1.04c.466-.357.781-.838.945-1.444.123-.484.185-1.164.185-2.039 0-.874-.055-1.567-.164-2.038-.165-.606-.483-1.087-.955-1.444-.473-.356-1.044-.535-1.715-.535s-1.239.179-1.705.535c-.466.357-.78.838-.945 1.444-.109.47-.164 1.15-.164 2.038 0 .889.055 1.568.164 2.04.151.605.462 1.086.935 1.443.472.356 1.051.535 1.735.535.685 0 1.219-.179 1.684-.535zM142.209 36.889c.651.632.976 1.48.976 2.543v6.661c0 .135-.069.202-.206.202h-1.047c-.137 0-.206-.067-.206-.202v-6.378c0-.74-.229-1.346-.688-1.817-.458-.471-1.05-.707-1.776-.707s-1.363.229-1.828.687c-.466.457-.698 1.056-.698 1.796v6.42c0 .134-.069.201-.206.201h-1.047c-.137 0-.206-.067-.206-.202v-9.81c0-.135.069-.202.206-.202h1.047c.137 0 .206.067.206.202v.868c0 .027.01.047.03.06.021.014.038.007.052-.02.602-.834 1.526-1.251 2.772-1.251 1.096 0 1.969.316 2.619.949zM151.629 36.847c.671.62 1.007 1.44 1.007 2.463v6.783c0 .134-.069.201-.206.201h-1.047c-.137 0-.205-.067-.205-.201v-.828a.069.069 0 00-.031-.06c-.021-.014-.045-.007-.072.02-.342.403-.787.71-1.335.918a5.101 5.101 0 01-1.828.313c-.972 0-1.787-.242-2.444-.727-.657-.484-.986-1.224-.986-2.22 0-.996.373-1.807 1.119-2.392.747-.586 1.784-.878 3.112-.878h2.382c.055 0 .083-.027.083-.081v-.767c0-.687-.196-1.228-.586-1.625-.39-.397-.996-.596-1.817-.596-.658 0-1.192.125-1.603.374-.41.249-.664.595-.759 1.04-.041.134-.124.194-.247.181l-1.109-.141c-.151-.027-.212-.081-.185-.162.11-.753.52-1.366 1.232-1.837.713-.47 1.603-.706 2.671-.706 1.232 0 2.183.31 2.854.928zm-1.335 7.782c.589-.397.884-.932.884-1.605V41.45c0-.054-.028-.081-.083-.081h-2.156c-.904 0-1.63.182-2.177.545-.548.363-.822.868-.822 1.514 0 .592.209 1.04.627 1.343.417.302.962.454 1.632.454.808 0 1.507-.199 2.095-.596zM154.542 46.093V32.367c0-.135.068-.202.205-.202h1.048c.137 0 .205.067.205.202v13.726c0 .135-.068.202-.205.202h-1.048c-.137 0-.205-.067-.205-.202z" fill="#fff"/></svg>